{
.appVersion = "1254";
classes = (
{
automatic = 1;

glyphs = (
{
glyphname = A;
lastChange = "2019-08-11 18:58:45 +0000";
layers = (
{
anchors = (
{
name = bottom;
position = "{168, 0}";
},
{
name = ogonek;
position = "{274, 6}";
},
{
name = top;
position = "{168, 800}";
}
);
layerId = "3B122060-26E0-4730-9241-82784E6CB359";
paths = (
{
closed = 1;
nodes = (
"81 0 LINE",
"103 259 LINE",
"233 259 LINE",
"255 0 LINE",
"296 0 LINE",
"224 800 LINE",
"112 800 LINE",
"40 0 LINE"
);
},
{
closed = 1;
nodes = (
"120 461 LINE",
"148 762 LINE",
"188 762 LINE",
"216 462 LINE",
"230 297 LINE",
"106 297 LINE"
);
}
);
width = 336;
},
{
anchors = (
{
name = bottom;
position = "{259, 0}";
},
{
name = ogonek;
position = "{413, 11}";
},
{
name = top;
position = "{259, 800}";
}
);
color = -1;
layerId = "1DFA7D5B-2E97-4B89-827F-FB43F8066DC1";
paths = (
{
closed = 1;
nodes = (
"174 0 LINE",
"191 167 LINE",
"327 167 LINE",
"344 0 LINE",
"498 0 LINE",
"387 800 LINE",
"131 800 LINE",
"20 0 LINE"
);
},
{
closed = 1;
nodes = (
"223 476 LINE",
"235 668 LINE",
"283 668 LINE",
"295 476 LINE",
"313 299 LINE",
"205 299 LINE"
);
}
);
width = 518;
},
{
anchors = (
{
name = bottom;
position = "{249, 0}";
},
{
name = ogonek;
position = "{390, 10}";
},
{
name = top;
position = "{249, 800}";
}
);
color = -1;
layerId = "5013C991-8699-46CB-BB1C-82E334DBD38B";
paths = (
{
closed = 1;
nodes = (
"174 0 LINE",
"191 167 LINE",
"307 167 LINE",
"324 0 LINE",
"478 0 LINE",
"367 800 LINE",
"131 800 LINE",
"20 0 LINE"
);
},
{
closed = 1;
nodes = (
"223 476 LINE",
"235 668 LINE",
"263 668 LINE",
"275 476 LINE",
"293 299 LINE",
"205 299 LINE"
);
}
);
width = 498;
},
{
anchors = (
{
name = bottom;
position = "{133, 0}";
},
{
name = ogonek;
position = "{224, 1}";
},
{
name = top;
position = "{133, 800}";
}
);
layerId = "3D06B89B-468F-44E0-A3D7-A5BC6911123E";
paths = (
{
closed = 1;
nodes = (
"50 0 LINE",
"73 268 LINE",
"191 268 LINE",
"214 0 LINE",
"234 0 LINE",
"163 800 LINE",
"101 800 LINE",
"30 0 LINE"
);
},
{
closed = 1;
nodes = (
"90 461 LINE",
"118 780 LINE",
"146 780 LINE",
"174 462 LINE",
"189 288 LINE",
"75 288 LINE"
);
}
);
width = 254;
},
{
anchors = (
{
name = bottom;
position = "{186, 0}";
},
{
name = ogonek;
position = "{301, 7}";
},
{
name = top;
position = "{186, 800}";
}
);
layerId = "77772675-63BC-4C39-8CE0-5446587E214D";
paths = (
{
closed = 1;
nodes = (
"99 0 LINE",
"120 241 LINE",
"251 241 LINE",
"272 0 LINE",
"329 0 LINE",
"256 800 LINE",
"116 800 LINE",
"43 0 LINE"
);
},
{
closed = 1;
nodes = (
"140 464 LINE",
"165 744 LINE",
"207 744 LINE",
"232 465 LINE",
"246 297 LINE",
"125 297 LINE"
);
}
);
width = 371.7175;
},
{
anchors = (
{
name = bottom;
position = "{156, 0}";
},
{
name = ogonek;
position = "{257, 3}";
},
{
name = top;
position = "{156, 800}";
}
);
color = -1;
layerId = "4BC723F9-D357-4E8E-81DA-22F6730CB37E";
paths = (
{
closed = 1;
nodes = (
"74 0 LINE",
"96 248 LINE",
"214 248 LINE",
"236 0 LINE",
"282 0 LINE",
"203 800 LINE",
"107 800 LINE",
"28 0 LINE"
);
},
{
closed = 1;
nodes = (
"116 464 LINE",
"141 758 LINE",
"169 758 LINE",
"194 465 LINE",
"209 290 LINE",
"101 290 LINE"
);
}
);
width = 301.885;
}
);
leftKerningGroup = A;
rightKerningGroup = A;
unicode = 0041;
},
{
glyphname = AE;
lastChange = "2019-08-11 19:04:26 +0000";
layers = (
{
anchors = (
{
name = bottom;
position = "{237, 0}";
},
{
name = ogonek;
position = "{443, 2}";
},
{
name = top;
position = "{279, 800}";
},
{
name = topleft;
position = "{255, 800}";
}
);
layerId = "3B122060-26E0-4730-9241-82784E6CB359";
paths = (
{
closed = 1;
nodes = (
"454 800 LINE",
"174 800 LINE",
"40 0 LINE",
"82 0 LINE",
"124 252 LINE",
"245 252 LINE",
"245 0 LINE",
"454 0 LINE",
"454 38 LINE",
"285 38 LINE",
"285 381 LINE",
"444 381 LINE",
"444 419 LINE",
"285 419 LINE",
"285 762 LINE",
"454 762 LINE"
);
},
{
closed = 1;
nodes = (
"159 457 LINE",
"207 763 LINE",
"245 763 LINE",
"245 290 LINE",
"131 290 LINE"
);
}
);
width = 504;
},
{
anchors = (
{
name = bottom;
position = "{381, 0}";
},
{
name = ogonek;
position = "{708, 10}";
},
{
name = top;
position = "{431, 800}";
},
{
name = topleft;
position = "{346, 800}";
}
);
color = -1;
layerId = "1DFA7D5B-2E97-4B89-827F-FB43F8066DC1";
paths = (
{
closed = 1;
nodes = (
"712 800 LINE",
"186 800 LINE",
"20 0 LINE",
"184 0 LINE",
"220 167 LINE",
"346 167 LINE",
"346 0 LINE",
"712 0 LINE",
"712 132 LINE",
"496 132 LINE",
"496 341 LINE",
"702 341 LINE",
"702 473 LINE",
"496 473 LINE",
"496 668 LINE",
"712 668 LINE"
);
},
{
closed = 1;
nodes = (
"278 436 LINE",
"300 668 LINE",
"346 668 LINE",
"346 299 LINE",
"248 299 LINE"
);
}
);
width = 732;
},
{
anchors = (
{
name = bottom;
position = "{361, 0}";
},
{
name = ogonek;
position = "{671, 10}";
},
{
name = top;
position = "{411, 800}";
},
{
name = topleft;
position = "{306, 800}";
}
);
color = -1;
layerId = "5013C991-8699-46CB-BB1C-82E334DBD38B";
paths = (
{
closed = 1;
nodes = (
"672 800 LINE",
"186 800 LINE",
"20 0 LINE",
"184 0 LINE",
"220 167 LINE",
"326 167 LINE",
"326 0 LINE",
"672 0 LINE",
"672 132 LINE",
"476 132 LINE",
"476 341 LINE",
"662 341 LINE",
"662 473 LINE",
"476 473 LINE",
"476 668 LINE",
"672 668 LINE"
);
},
{
closed = 1;
nodes = (
"278 436 LINE",
"300 668 LINE",
"326 668 LINE",
"326 299 LINE",
"248 299 LINE"
);
}
);
width = 692;
},
{
anchors = (
{
name = bottom;
position = "{170, 0}";
},
{
name = ogonek;
position = "{328, 1}";
},
{
name = top;
position = "{205, 800}";
},
{
name = topleft;
position = "{158, 800}";
}
);
layerId = "3D06B89B-468F-44E0-A3D7-A5BC6911123E";
paths = (
{
closed = 1;
nodes = (
"337 800 LINE",
"141 800 LINE",
"30 0 LINE",
"50 0 LINE",
"87 268 LINE",
"178 268 LINE",
"178 0 LINE",
"337 0 LINE",
"337 20 LINE",
"198 20 LINE",
"198 390 LINE",
"327 390 LINE",
"327 410 LINE",
"198 410 LINE",
"198 780 LINE",
"337 780 LINE"
);
},
{
closed = 1;
nodes = (
"113 461 LINE",
"158 780 LINE",
"178 780 LINE",
"178 288 LINE",
"89 288 LINE"
);
}
);
width = 377;
},
{
anchors = (
{
name = bottom;
position = "{272, 0}";
},
{
name = ogonek;
position = "{502, 4}";
},
{
name = top;
position = "{316, 800}";
},
{
name = topleft;
position = "{280, 800}";
}
);
layerId = "77772675-63BC-4C39-8CE0-5446587E214D";
paths = (
{
closed = 1;
nodes = (
"512 800 LINE",
"183 800 LINE",
"43 0 LINE",
"109 0 LINE",
"150 235 LINE",
"272 235 LINE",
"272 0 LINE",
"512 0 LINE",
"512 56 LINE",
"333 56 LINE",
"333 373 LINE",
"502 373 LINE",
"502 430 LINE",
"333 430 LINE",
"333 744 LINE",
"512 744 LINE"
);
},
{
closed = 1;
nodes = (
"189 453 LINE",
"232 744 LINE",
"272 744 LINE",
"272 292 LINE",
"161 292 LINE"
);
}
);
width = 556;
},
{
anchors = (
{
name = bottom;
position = "{207, 0}";
},
{
name = ogonek;
position = "{395, 3}";
},
{
name = top;
position = "{245, 800}";
},
{
name = topleft;
position = "{187, 800}";
}
);
color = -1;
layerId = "4BC723F9-D357-4E8E-81DA-22F6730CB37E";
paths = (
{
closed = 1;
nodes = (
"403 800 LINE",
"150 800 LINE",
"28 0 LINE",
"76 0 LINE",
"113 248 LINE",
"207 248 LINE",
"207 0 LINE",
"403 0 LINE",
"403 42 LINE",
"253 42 LINE",
"253 380 LINE",
"393 380 LINE",
"393 422 LINE",
"253 422 LINE",
"253 758 LINE",
"403 758 LINE"
);
},
{
closed = 1;
nodes = (
"145 456 LINE",
"186 758 LINE",
"207 758 LINE",
"207 290 LINE",
"120 290 LINE"
);
}
);
width = 438.81875;
}
);
leftKerningGroup = A;
leftMetricsKey = A;
rightKerningGroup = E;
rightMetricsKey = E;
unicode = 00C6;
},
{
glyphname = B;
lastChange = "2019-08-09 19:33:38 +0000";
layers = (
{
layerId = "3B122060-26E0-4730-9241-82784E6CB359";
paths = (
{
closed = 1;
nodes = (
"193 0 LINE SMOOTH",
"274 0 OFFCURVE",
"307 28 OFFCURVE",
"309 98 CURVE SMOOTH",
"311 176 OFFCURVE",
"312 233 OFFCURVE",
"309 312 CURVE SMOOTH",
"307 359 OFFCURVE",
"289 385 OFFCURVE",
"245 395 CURVE",
"245 405 LINE",
"287 414 OFFCURVE",
"303 440 OFFCURVE",
"305 488 CURVE SMOOTH",
"307 551 OFFCURVE",
"306 609 OFFCURVE",
"305 702 CURVE SMOOTH",
"304 772 OFFCURVE",
"271 800 OFFCURVE",
"189 800 CURVE SMOOTH",
"70 800 LINE",
"70 0 LINE"
);
},
{
closed = 1;
nodes = (
"110 380 LINE",
"197 380 LINE SMOOTH",
"251 380 OFFCURVE",
"267 365 OFFCURVE",
"269 312 CURVE SMOOTH",
"272 234 OFFCURVE",
"272 176 OFFCURVE",
"269 98 CURVE SMOOTH",
"267 52 OFFCURVE",
"252 40 OFFCURVE",
"193 40 CURVE SMOOTH",
"110 40 LINE"
);
},
{
closed = 1;
nodes = (
"110 762 LINE",
"189 762 LINE SMOOTH",
"248 762 OFFCURVE",
"264 749 OFFCURVE",
"265 702 CURVE SMOOTH",
"267 624 OFFCURVE",
"268 566 OFFCURVE",
"265 488 CURVE SMOOTH",
"263 435 OFFCURVE",
"251 420 OFFCURVE",
"201 420 CURVE SMOOTH",
"110 420 LINE"
);
}
);
width = 371;
},
{
layerId = "1DFA7D5B-2E97-4B89-827F-FB43F8066DC1";
paths = (
{
closed = 1;
nodes = (
"245 0 LINE SMOOTH",
"394 0 OFFCURVE",
"454 56 OFFCURVE",
"460 195 CURVE SMOOTH",
"461 218 OFFCURVE",
"461 235 OFFCURVE",
"460 257 CURVE SMOOTH",
"457 332 OFFCURVE",
"430 374 OFFCURVE",
"369 394 CURVE",
"369 418 LINE",
"428 438 OFFCURVE",
"454 479 OFFCURVE",
"459 552 CURVE SMOOTH",
"460 569 OFFCURVE",
"460 586 OFFCURVE",
"460 605 CURVE SMOOTH",
"460 744 OFFCURVE",
"394 800 OFFCURVE",
"245 800 CURVE SMOOTH",
"40 800 LINE",
"40 0 LINE"
);
},
{
closed = 1;
nodes = (
"190 341 LINE",
"245 341 LINE SMOOTH",
"291 341 OFFCURVE",
"310 316 OFFCURVE",
"310 250 CURVE SMOOTH",
"310 232 OFFCURVE",
"310 215 OFFCURVE",
"310 197 CURVE SMOOTH",
"310 155 OFFCURVE",
"287 132 OFFCURVE",
"245 132 CURVE SMOOTH",
"190 132 LINE"
);
},
{
closed = 1;
nodes = (
"190 668 LINE",
"245 668 LINE SMOOTH",
"287 668 OFFCURVE",
"310 648 OFFCURVE",
"310 613 CURVE SMOOTH",
"310 594 OFFCURVE",
"310 575 OFFCURVE",
"310 556 CURVE SMOOTH",
"310 503 OFFCURVE",
"287 473 OFFCURVE",
"245 473 CURVE SMOOTH",
"190 473 LINE"
);
}
);
width = 481;
},
{
layerId = "5013C991-8699-46CB-BB1C-82E334DBD38B";
paths = (
{
closed = 1;
nodes = (
"225 0 LINE SMOOTH",
"374 0 OFFCURVE",
"434 56 OFFCURVE",
"440 195 CURVE SMOOTH",
"441 218 OFFCURVE",
"441 235 OFFCURVE",
"440 257 CURVE SMOOTH",
"437 332 OFFCURVE",
"410 374 OFFCURVE",
"349 394 CURVE",
"349 418 LINE",
"408 438 OFFCURVE",
"434 479 OFFCURVE",
"439 552 CURVE SMOOTH",
"440 569 OFFCURVE",
"440 586 OFFCURVE",
"440 605 CURVE SMOOTH",
"440 744 OFFCURVE",
"374 800 OFFCURVE",
"225 800 CURVE SMOOTH",
"40 800 LINE",
"40 0 LINE"
);
},
{
closed = 1;
nodes = (
"190 341 LINE",
"225 341 LINE SMOOTH",
"271 341 OFFCURVE",
"290 316 OFFCURVE",
"290 250 CURVE SMOOTH",
"290 232 OFFCURVE",
"290 215 OFFCURVE",
"290 197 CURVE SMOOTH",
"290 155 OFFCURVE",
"267 132 OFFCURVE",
"225 132 CURVE SMOOTH",
"190 132 LINE"
);
},
{
closed = 1;
nodes = (
"190 668 LINE",
"225 668 LINE SMOOTH",
"267 668 OFFCURVE",
"290 648 OFFCURVE",
"290 613 CURVE SMOOTH",
"290 594 OFFCURVE",
"290 575 OFFCURVE",
"290 556 CURVE SMOOTH",
"290 503 OFFCURVE",
"267 473 OFFCURVE",
"225 473 CURVE SMOOTH",
"190 473 LINE"
);
}
);
width = 461;
},
{
layerId = "3D06B89B-468F-44E0-A3D7-A5BC6911123E";
paths = (
{
closed = 1;
nodes = (
"143 0 LINE SMOOTH",
"202 0 OFFCURVE",
"227 27 OFFCURVE",
"229 93 CURVE SMOOTH",
"231 171 OFFCURVE",
"231 233 OFFCURVE",
"229 312 CURVE SMOOTH",
"228 357 OFFCURVE",
"215 382 OFFCURVE",
"185 392 CURVE",
"185 407 LINE",
"214 418 OFFCURVE",
"227 442 OFFCURVE",
"228 488 CURVE SMOOTH",
"230 551 OFFCURVE",
"230 614 OFFCURVE",
"228 707 CURVE SMOOTH",
"226 773 OFFCURVE",
"201 800 OFFCURVE",
"142 800 CURVE SMOOTH",
"60 800 LINE",
"60 0 LINE"
);
},
{
closed = 1;
nodes = (
"80 390 LINE",
"137 390 LINE SMOOTH",
"186 390 OFFCURVE",
"207 368 OFFCURVE",
"209 312 CURVE SMOOTH",
"212 234 OFFCURVE",
"212 171 OFFCURVE",
"209 93 CURVE SMOOTH",
"207 41 OFFCURVE",
"188 20 OFFCURVE",
"143 20 CURVE SMOOTH",
"80 20 LINE"
);
},
{
closed = 1;
nodes = (
"80 780 LINE",
"142 780 LINE SMOOTH",
"187 780 OFFCURVE",
"206 759 OFFCURVE",
"208 707 CURVE SMOOTH",
"211 629 OFFCURVE",
"211 566 OFFCURVE",
"208 488 CURVE SMOOTH",
"206 432 OFFCURVE",
"187 410 OFFCURVE",
"141 410 CURVE SMOOTH",
"80 410 LINE"
);
}
);
width = 280;
},
{
layerId = "77772675-63BC-4C39-8CE0-5446587E214D";
paths = (
{
closed = 1;
nodes = (
"203 0 LINE SMOOTH",
"298 0 OFFCURVE",
"336 33 OFFCURVE",
"339 117 CURVE SMOOTH",
"340 184 OFFCURVE",
"341 233 OFFCURVE",
"339 301 CURVE SMOOTH",
"336 354 OFFCURVE",
"317 383 OFFCURVE",
"269 395 CURVE",
"269 408 LINE",
"315 419 OFFCURVE",
"333 448 OFFCURVE",
"335 501 CURVE SMOOTH",
"337 555 OFFCURVE",
"336 604 OFFCURVE",
"335 683 CURVE SMOOTH",
"335 767 OFFCURVE",
"295 800 OFFCURVE",
"200 800 CURVE SMOOTH",
"64 800 LINE",
"64 0 LINE"
);
},
{
closed = 1;
nodes = (
"126 372 LINE",
"206 372 LINE SMOOTH",
"259 372 OFFCURVE",
"275 355 OFFCURVE",
"277 300 CURVE SMOOTH",
"279 234 OFFCURVE",
"279 184 OFFCURVE",
"277 117 CURVE SMOOTH",
"275 72 OFFCURVE",
"259 58 OFFCURVE",
"203 58 CURVE SMOOTH",
"126 58 LINE"
);
},
{
closed = 1;
nodes = (
"126 744 LINE",
"200 744 LINE SMOOTH",
"256 744 OFFCURVE",
"273 729 OFFCURVE",
"274 685 CURVE SMOOTH",
"275 618 OFFCURVE",
"276 568 OFFCURVE",
"274 501 CURVE SMOOTH",
"272 448 OFFCURVE",
"258 430 OFFCURVE",
"210 430 CURVE SMOOTH",
"126 430 LINE"
);
}
);
width = 392.5875;
},
{
layerId = "4BC723F9-D357-4E8E-81DA-22F6730CB37E";
paths = (
{
closed = 1;
nodes = (
"159 0 LINE SMOOTH",
"236 0 OFFCURVE",
"268 33 OFFCURVE",
"270 113 CURVE SMOOTH",
"272 180 OFFCURVE",
"272 233 OFFCURVE",
"270 301 CURVE SMOOTH",
"269 352 OFFCURVE",
"253 380 OFFCURVE",
"217 392 CURVE",
"217 409 LINE",
"252 422 OFFCURVE",
"268 449 OFFCURVE",
"269 501 CURVE SMOOTH",
"271 555 OFFCURVE",
"271 609 OFFCURVE",
"270 687 CURVE SMOOTH",
"268 767 OFFCURVE",
"235 800 OFFCURVE",
"158 800 CURVE SMOOTH",
"56 800 LINE",
"56 0 LINE"
);
},
{
closed = 1;
nodes = (
"102 380 LINE",
"154 380 LINE SMOOTH",
"203 380 OFFCURVE",
"223 358 OFFCURVE",
"225 300 CURVE SMOOTH",
"227 234 OFFCURVE",
"227 180 OFFCURVE",
"225 113 CURVE SMOOTH",
"223 63 OFFCURVE",
"204 42 OFFCURVE",
"159 42 CURVE SMOOTH",
"102 42 LINE"
);
},
{
closed = 1;
nodes = (
"102 758 LINE",
"158 758 LINE SMOOTH",
"203 758 OFFCURVE",
"222 737 OFFCURVE",
"224 689 CURVE SMOOTH",
"227 622 OFFCURVE",
"227 568 OFFCURVE",
"224 501 CURVE SMOOTH",
"222 446 OFFCURVE",
"203 422 OFFCURVE",
"157 422 CURVE SMOOTH",
"102 422 LINE"
);
}
);
width = 315.52125;
}
);
leftKerningGroup = H;
rightKerningGroup = B;
unicode = 0042;
},
{
glyphname = C;
lastChange = "2019-08-09 19:33:38 +0000";
layers = (
{
anchors = (
{
name = bottom;
position = "{191, 0}";
},
{
name = top;
position = "{191, 800}";
}
);
background = {
paths = (
{
closed = 1;
nodes = (
"240 -10 OFFCURVE",
"281 33 OFFCURVE",
"281 90 CURVE SMOOTH",
"281 240 LINE",
"261 240 LINE",
"261 90 LINE SMOOTH",
"261 44 OFFCURVE",
"229 10 OFFCURVE",
"186 10 CURVE SMOOTH",
"143 10 OFFCURVE",
"111 44 OFFCURVE",
"111 90 CURVE SMOOTH",
"111 700 LINE SMOOTH",
"111 746 OFFCURVE",
"143 790 OFFCURVE",
"186 790 CURVE SMOOTH",
"229 790 OFFCURVE",
"261 746 OFFCURVE",
"261 700 CURVE SMOOTH",
"261 570 LINE",
"281 570 LINE",
"281 700 LINE SMOOTH",
"281 757 OFFCURVE",
"240 810 OFFCURVE",
"186 810 CURVE SMOOTH",
"132 810 OFFCURVE",
"91 757 OFFCURVE",
"91 700 CURVE SMOOTH",
"91 90 LINE SMOOTH",
"91 33 OFFCURVE",
"132 -10 OFFCURVE",
"186 -10 CURVE SMOOTH"
);
}
);
};
layerId = "3B122060-26E0-4730-9241-82784E6CB359";
paths = (
{
closed = 1;
nodes = (
"276 -6 OFFCURVE",
"314 23 OFFCURVE",
"318 97 CURVE SMOOTH",
"321 154 OFFCURVE",
"320 200 OFFCURVE",
"317 282 CURVE",
"277 282 LINE",
"279 189 OFFCURVE",
"280 143 OFFCURVE",
"278 97 CURVE SMOOTH",
"276 46 OFFCURVE",
"254 32 OFFCURVE",
"191 32 CURVE SMOOTH",
"134 32 OFFCURVE",
"113 46 OFFCURVE",
"112 97 CURVE SMOOTH",
"107 343 OFFCURVE",
"107 456 OFFCURVE",
"112 701 CURVE SMOOTH",
"113 752 OFFCURVE",
"134 766 OFFCURVE",
"190 766 CURVE SMOOTH",
"251 766 OFFCURVE",
"272 752 OFFCURVE",
"274 701 CURVE SMOOTH",
"276 638 OFFCURVE",
"276 597 OFFCURVE",
"274 534 CURVE",
"314 534 LINE",
"317 597 OFFCURVE",
"317 638 OFFCURVE",
"314 701 CURVE SMOOTH",
"310 775 OFFCURVE",
"273 804 OFFCURVE",
"190 804 CURVE SMOOTH",
"110 804 OFFCURVE",
"73 775 OFFCURVE",
"72 701 CURVE SMOOTH",
"69 479 OFFCURVE",
"69 320 OFFCURVE",
"72 97 CURVE SMOOTH",
"73 23 OFFCURVE",
"111 -6 OFFCURVE",
"191 -6 CURVE SMOOTH"
);
}
);
width = 380;
},
{
anchors = (
{
name = bottom;
position = "{259, 0}";
},
{
name = top;
position = "{259, 800}";
}
);
layerId = "1DFA7D5B-2E97-4B89-827F-FB43F8066DC1";
paths = (
{
closed = 1;
nodes = (
"418 -10 OFFCURVE",
"481 47 OFFCURVE",
"485 191 CURVE SMOOTH",
"486 223 OFFCURVE",
"486 268 OFFCURVE",
"485 300 CURVE",
"335 300 LINE",
"337 255 OFFCURVE",
"337 226 OFFCURVE",
"335 183 CURVE SMOOTH",
"333 132 OFFCURVE",
"313 112 OFFCURVE",
"263 112 CURVE SMOOTH",
"214 112 OFFCURVE",
"193 132 OFFCURVE",
"192 183 CURVE SMOOTH",
"188 329 OFFCURVE",
"188 471 OFFCURVE",
"192 618 CURVE SMOOTH",
"193 668 OFFCURVE",
"214 688 OFFCURVE",
"263 688 CURVE SMOOTH",
"310 688 OFFCURVE",
"330 668 OFFCURVE",
"331 618 CURVE SMOOTH",
"332 581 OFFCURVE",
"331 537 OFFCURVE",
"330 500 CURVE",
"480 500 LINE",
"481 533 OFFCURVE",
"482 577 OFFCURVE",
"481 610 CURVE SMOOTH",
"477 746 OFFCURVE",
"410 810 OFFCURVE",
"263 810 CURVE SMOOTH",
"112 810 OFFCURVE",
"44 749 OFFCURVE",
"42 611 CURVE SMOOTH",
"39 460 OFFCURVE",
"39 340 OFFCURVE",
"42 191 CURVE SMOOTH",
"45 47 OFFCURVE",
"108 -10 OFFCURVE",
"263 -10 CURVE SMOOTH"
);
}
);
width = 506;
},
{
anchors = (
{
name = bottom;
position = "{248, 0}";
},
{
name = top;
position = "{248, 800}";
}
);
layerId = "5013C991-8699-46CB-BB1C-82E334DBD38B";
paths = (
{
closed = 1;
nodes = (
"399 -10 OFFCURVE",
"460 47 OFFCURVE",
"464 191 CURVE SMOOTH",
"465 223 OFFCURVE",
"465 268 OFFCURVE",
"464 300 CURVE",
"314 300 LINE",
"315 264 OFFCURVE",
"315 199 OFFCURVE",
"314 163 CURVE SMOOTH",
"313 130 OFFCURVE",
"291 112 OFFCURVE",
"252 112 CURVE SMOOTH",
"214 112 OFFCURVE",
"192 130 OFFCURVE",
"191 163 CURVE SMOOTH",
"186 302 OFFCURVE",
"186 498 OFFCURVE",
"191 638 CURVE SMOOTH",
"192 670 OFFCURVE",
"214 688 OFFCURVE",
"252 688 CURVE SMOOTH",
"288 688 OFFCURVE",
"309 670 OFFCURVE",
"310 638 CURVE SMOOTH",
"311 601 OFFCURVE",
"310 537 OFFCURVE",
"309 500 CURVE",
"459 500 LINE",
"460 533 OFFCURVE",
"461 577 OFFCURVE",
"460 610 CURVE SMOOTH",
"456 753 OFFCURVE",
"396 810 OFFCURVE",
"252 810 CURVE SMOOTH",
"105 810 OFFCURVE",
"43 733 OFFCURVE",
"41 611 CURVE SMOOTH",
"39 498 OFFCURVE",
"39 302 OFFCURVE",
"41 191 CURVE SMOOTH",
"44 47 OFFCURVE",
"101 -10 OFFCURVE",
"252 -10 CURVE SMOOTH"
);
}
);
width = 485;
},
{
anchors = (
{
name = bottom;
position = "{145, 0}";
},
{
name = top;
position = "{145, 800}";
}
);
background = {
paths = (
{
closed = 1;
nodes = (
"211 -10 OFFCURVE",
"252 33 OFFCURVE",
"252 90 CURVE SMOOTH",
"252 240 LINE",
"232 240 LINE",
"232 90 LINE SMOOTH",
"232 44 OFFCURVE",
"200 10 OFFCURVE",
"157 10 CURVE SMOOTH",
"114 10 OFFCURVE",
"82 44 OFFCURVE",
"82 90 CURVE SMOOTH",
"82 700 LINE SMOOTH",
"82 746 OFFCURVE",
"114 790 OFFCURVE",
"157 790 CURVE SMOOTH",
"200 790 OFFCURVE",
"232 746 OFFCURVE",
"232 700 CURVE SMOOTH",
"232 570 LINE",
"252 570 LINE",
"252 700 LINE SMOOTH",
"252 757 OFFCURVE",
"211 810 OFFCURVE",
"157 810 CURVE SMOOTH",
"103 810 OFFCURVE",
"62 757 OFFCURVE",
"62 700 CURVE SMOOTH",
"62 90 LINE SMOOTH",
"62 33 OFFCURVE",
"103 -10 OFFCURVE",
"157 -10 CURVE SMOOTH"
);
}
);
};
layerId = "3D06B89B-468F-44E0-A3D7-A5BC6911123E";
paths = (
{
closed = 1;
nodes = (
"211 -6 OFFCURVE",
"237 21 OFFCURVE",
"239 87 CURVE SMOOTH",
"241 157 OFFCURVE",
"240 212 OFFCURVE",
"238 282 CURVE",
"218 282 LINE",
"219 217 OFFCURVE",
"220 152 OFFCURVE",
"219 87 CURVE SMOOTH",
"218 33 OFFCURVE",
"200 14 OFFCURVE",
"147 14 CURVE SMOOTH",
"100 14 OFFCURVE",
"84 33 OFFCURVE",
"83 87 CURVE SMOOTH",
"79 318 OFFCURVE",
"79 481 OFFCURVE",
"83 711 CURVE SMOOTH",
"84 766 OFFCURVE",
"100 784 OFFCURVE",
"146 784 CURVE SMOOTH",
"197 784 OFFCURVE",
"214 766 OFFCURVE",
"215 711 CURVE SMOOTH",
"216 652 OFFCURVE",
"216 593 OFFCURVE",
"215 534 CURVE",
"235 534 LINE",
"236 575 OFFCURVE",
"236 670 OFFCURVE",
"235 711 CURVE SMOOTH",
"233 777 OFFCURVE",
"207 804 OFFCURVE",
"146 804 CURVE SMOOTH",
"88 804 OFFCURVE",
"64 778 OFFCURVE",
"63 711 CURVE SMOOTH",
"59 481 OFFCURVE",
"59 318 OFFCURVE",
"63 87 CURVE SMOOTH",
"64 21 OFFCURVE",
"88 -6 OFFCURVE",
"147 -6 CURVE SMOOTH"
);
}
);
width = 290;
},
{
anchors = (
{
name = bottom;
position = "{204, 0}";
},
{
name = top;
position = "{204, 800}";
}
);
layerId = "77772675-63BC-4C39-8CE0-5446587E214D";
paths = (
{
closed = 1;
nodes = (
"304 -7 OFFCURVE",
"347 28 OFFCURVE",
"351 115 CURVE SMOOTH",
"353 168 OFFCURVE",
"353 213 OFFCURVE",
"350 286 CURVE",
"288 286 LINE",
"290 202 OFFCURVE",
"291 159 OFFCURVE",
"289 114 CURVE SMOOTH",
"287 63 OFFCURVE",
"266 48 OFFCURVE",
"205 48 CURVE SMOOTH",
"150 48 OFFCURVE",
"129 63 OFFCURVE",
"128 114 CURVE SMOOTH",
"123 340 OFFCURVE",
"123 459 OFFCURVE",
"128 685 CURVE SMOOTH",
"129 736 OFFCURVE",
"150 751 OFFCURVE",
"204 751 CURVE SMOOTH",
"263 751 OFFCURVE",
"283 736 OFFCURVE",
"285 685 CURVE SMOOTH",
"287 627 OFFCURVE",
"287 585 OFFCURVE",
"285 527 CURVE",
"347 527 LINE",
"349 584 OFFCURVE",
"349 626 OFFCURVE",
"347 683 CURVE SMOOTH",
"343 769 OFFCURVE",
"300 805 OFFCURVE",
"204 805 CURVE SMOOTH",
"110 805 OFFCURVE",
"67 770 OFFCURVE",
"66 683 CURVE SMOOTH",
"63 475 OFFCURVE",
"63 324 OFFCURVE",
"66 115 CURVE SMOOTH",
"68 28 OFFCURVE",
"110 -7 OFFCURVE",
"205 -7 CURVE SMOOTH"
);
}
);
width = 404.7275;
},
{
anchors = (
{
name = bottom;
position = "{165, 0}";
},
{
name = top;
position = "{165, 800}";
}
);
layerId = "4BC723F9-D357-4E8E-81DA-22F6730CB37E";
paths = (
{
closed = 1;
nodes = (
"248 -7 OFFCURVE",
"281 26 OFFCURVE",
"283 107 CURVE SMOOTH",
"285 170 OFFCURVE",
"284 223 OFFCURVE",
"282 286 CURVE",
"237 286 LINE",
"238 226 OFFCURVE",
"239 161 OFFCURVE",
"238 102 CURVE SMOOTH",
"237 52 OFFCURVE",
"218 33 OFFCURVE",
"168 33 CURVE SMOOTH",
"122 33 OFFCURVE",
"105 52 OFFCURVE",
"104 102 CURVE SMOOTH",
"100 315 OFFCURVE",
"100 484 OFFCURVE",
"104 697 CURVE SMOOTH",
"105 747 OFFCURVE",
"122 765 OFFCURVE",
"167 765 CURVE SMOOTH",
"215 765 OFFCURVE",
"233 747 OFFCURVE",
"234 697 CURVE SMOOTH",
"235 642 OFFCURVE",
"234 582 OFFCURVE",
"233 527 CURVE",
"279 527 LINE",
"280 567 OFFCURVE",
"280 652 OFFCURVE",
"279 691 CURVE SMOOTH",
"277 772 OFFCURVE",
"244 805 OFFCURVE",
"167 805 CURVE SMOOTH",
"91 805 OFFCURVE",
"60 769 OFFCURVE",
"59 691 CURVE SMOOTH",
"55 484 OFFCURVE",
"55 315 OFFCURVE",
"59 107 CURVE SMOOTH",
"60 26 OFFCURVE",
"91 -7 OFFCURVE",
"168 -7 CURVE SMOOTH"
);
}
);
width = 328.26875;
}
);
leftKerningGroup = O;
rightKerningGroup = O;
unicode = 0043;
},
{
glyphname = D;
lastChange = "2019-08-09 19:33:38 +0000";
layers = (
{
anchors = (
{
name = bottom;
position = "{185, 0}";
},
{
name = center;
position = "{187, 400}";
},
{
name = top;
position = "{176, 800}";
}
);
layerId = "3B122060-26E0-4730-9241-82784E6CB359";
paths = (
{
closed = 1;
nodes = (
"195 0 LINE SMOOTH",
"270 0 OFFCURVE",
"301 27 OFFCURVE",
"302 93 CURVE SMOOTH",
"305 312 OFFCURVE",
"305 487 OFFCURVE",
"302 707 CURVE SMOOTH",
"301 773 OFFCURVE",
"268 800 OFFCURVE",
"186 800 CURVE SMOOTH",
"70 800 LINE",
"70 0 LINE"
);
},
{
closed = 1;
nodes = (
"110 762 LINE",
"186 762 LINE SMOOTH",
"245 762 OFFCURVE",
"261 749 OFFCURVE",
"262 707 CURVE SMOOTH",
"267 466 OFFCURVE",
"267 334 OFFCURVE",
"262 93 CURVE SMOOTH",
"261 51 OFFCURVE",
"247 38 OFFCURVE",
"195 38 CURVE SMOOTH",
"110 38 LINE"
);
}
);
width = 374;
},
{
anchors = (
{
name = bottom;
position = "{230, 0}";
},
{
name = center;
position = "{250, 400}";
},
{
name = top;
position = "{250, 800}";
}
);
layerId = "1DFA7D5B-2E97-4B89-827F-FB43F8066DC1";
paths = (
{
closed = 1;
nodes = (
"253 0 LINE SMOOTH",
"403 0 OFFCURVE",
"465 59 OFFCURVE",
"468 206 CURVE SMOOTH",
"471 345 OFFCURVE",
"471 456 OFFCURVE",
"468 595 CURVE SMOOTH",
"465 741 OFFCURVE",
"403 800 OFFCURVE",
"253 800 CURVE SMOOTH",
"40 800 LINE",
"40 0 LINE"
);
},
{
closed = 1;
nodes = (
"190 668 LINE",
"253 668 LINE SMOOTH",
"295 668 OFFCURVE",
"317 648 OFFCURVE",
"318 613 CURVE SMOOTH",
"322 471 OFFCURVE",
"322 330 OFFCURVE",
"318 188 CURVE SMOOTH",
"317 152 OFFCURVE",
"295 132 OFFCURVE",
"253 132 CURVE SMOOTH",
"190 132 LINE"
);
}
);
width = 510;
},
{
anchors = (
{
name = bottom;
position = "{230, 0}";
},
{
name = center;
position = "{250, 400}";
},
{
name = top;
position = "{250, 800}";
}
);
layerId = "5013C991-8699-46CB-BB1C-82E334DBD38B";
paths = (
{
closed = 1;
nodes = (
"243 0 LINE SMOOTH",
"393 0 OFFCURVE",
"455 59 OFFCURVE",
"458 206 CURVE SMOOTH",
"461 345 OFFCURVE",
"461 456 OFFCURVE",
"458 595 CURVE SMOOTH",
"455 741 OFFCURVE",
"393 800 OFFCURVE",
"243 800 CURVE SMOOTH",
"40 800 LINE",
"40 0 LINE"
);
},
{
closed = 1;
nodes = (
"190 668 LINE",
"243 668 LINE SMOOTH",
"285 668 OFFCURVE",
"307 648 OFFCURVE",
"308 613 CURVE SMOOTH",
"312 471 OFFCURVE",
"312 330 OFFCURVE",
"308 188 CURVE SMOOTH",
"307 152 OFFCURVE",
"285 132 OFFCURVE",
"243 132 CURVE SMOOTH",
"190 132 LINE"
);
}
);
width = 500;
},
{
anchors = (
{
name = bottom;
position = "{145, 0}";
},
{
name = center;
position = "{147, 400}";
},
{
name = top;
position = "{137, 800}";
}
);
layerId = "3D06B89B-468F-44E0-A3D7-A5BC6911123E";
paths = (
{
closed = 1;
nodes = (
"145 0 LINE SMOOTH",
"206 0 OFFCURVE",
"231 27 OFFCURVE",
"232 93 CURVE SMOOTH",
"235 312 OFFCURVE",
"235 487 OFFCURVE",
"232 707 CURVE SMOOTH",
"231 773 OFFCURVE",
"206 800 OFFCURVE",
"146 800 CURVE SMOOTH",
"60 800 LINE",
"60 0 LINE"
);
},
{
closed = 1;
nodes = (
"80 780 LINE",
"146 780 LINE SMOOTH",
"193 780 OFFCURVE",
"211 759 OFFCURVE",
"212 707 CURVE SMOOTH",
"214 502 OFFCURVE",
"214 298 OFFCURVE",
"212 93 CURVE SMOOTH",
"211 41 OFFCURVE",
"193 20 OFFCURVE",
"145 20 CURVE SMOOTH",
"80 20 LINE"
);
}
);
width = 294;
},
{
anchors = (
{
name = bottom;
position = "{194, 0}";
},
{
name = center;
position = "{199, 400}";
},
{
name = top;
position = "{191, 800}";
}
);
layerId = "77772675-63BC-4C39-8CE0-5446587E214D";
paths = (
{
closed = 1;
nodes = (
"206 0 LINE SMOOTH",
"296 0 OFFCURVE",
"333 33 OFFCURVE",
"335 115 CURVE SMOOTH",
"338 318 OFFCURVE",
"338 481 OFFCURVE",
"335 685 CURVE SMOOTH",
"333 767 OFFCURVE",
"294 800 OFFCURVE",
"199 800 CURVE SMOOTH",
"64 800 LINE",
"64 0 LINE"
);
},
{
closed = 1;
nodes = (
"126 744 LINE",
"199 744 LINE SMOOTH",
"255 744 OFFCURVE",
"272 729 OFFCURVE",
"273 689 CURVE SMOOTH",
"278 467 OFFCURVE",
"278 333 OFFCURVE",
"273 112 CURVE SMOOTH",
"272 71 OFFCURVE",
"256 56 OFFCURVE",
"206 56 CURVE SMOOTH",
"126 56 LINE"
);
}
);
width = 400.69;
},
{
anchors = (
{
name = bottom;
position = "{162, 0}";
},
{
name = center;
position = "{167, 400}";
},
{
name = top;
position = "{159, 800}";
}
);
layerId = "4BC723F9-D357-4E8E-81DA-22F6730CB37E";
paths = (
{
closed = 1;
nodes = (
"164 0 LINE SMOOTH",
"243 0 OFFCURVE",
"275 33 OFFCURVE",
"276 115 CURVE SMOOTH",
"279 318 OFFCURVE",
"279 481 OFFCURVE",
"276 685 CURVE SMOOTH",
"275 767 OFFCURVE",
"243 800 OFFCURVE",
"165 800 CURVE SMOOTH",
"56 800 LINE",
"56 0 LINE"
);
},
{
closed = 1;
nodes = (
"102 758 LINE",
"165 758 LINE SMOOTH",
"211 758 OFFCURVE",
"230 737 OFFCURVE",
"231 689 CURVE SMOOTH",
"233 496 OFFCURVE",
"233 304 OFFCURVE",
"231 112 CURVE SMOOTH",
"230 63 OFFCURVE",
"211 42 OFFCURVE",
"164 42 CURVE SMOOTH",
"102 42 LINE"
);
}
);
width = 334.4275;
}
);
leftKerningGroup = H;
rightKerningGroup = O;
unicode = 0044;
},
{
glyphname = Eth;
lastChange = "2019-08-09 19:33:38 +0000";
layers = (
{
components = (
{
name = D;
transform = "{1, 0, 0, 1, 19, 0}";
}
);
layerId = "3B122060-26E0-4730-9241-82784E6CB359";
paths = (
{
closed = 1;
nodes = (
"50 443 LINE",
"170 443 LINE",
"170 473 LINE",
"50 473 LINE"
);
}
);
width = 393;
},
{
components = (
{
name = D;
transform = "{1, 0, 0, 1, 49, 0}";
}
);
layerId = "1DFA7D5B-2E97-4B89-827F-FB43F8066DC1";
paths = (
{
closed = 1;
nodes = (
"50 401 LINE",
"308 401 LINE",
"308 473 LINE",
"50 473 LINE"
);
}
);
width = 559;
},
{
components = (
{
name = D;
transform = "{1, 0, 0, 1, 49, 0}";
}
);
layerId = "5013C991-8699-46CB-BB1C-82E334DBD38B";
paths = (
{
closed = 1;
nodes = (
"50 401 LINE",
"308 401 LINE",
"308 473 LINE",
"50 473 LINE"
);
}
);
width = 549;
},
{
components = (
{
name = D;
transform = "{1, 0, 0, 1, 29, 0}";
}
);
layerId = "3D06B89B-468F-44E0-A3D7-A5BC6911123E";
paths = (
{
closed = 1;
nodes = (
"50 453 LINE",
"170 453 LINE",
"170 473 LINE",
"50 473 LINE"
);
}
);
width = 323;
},
{
components = (
{
alignment = -1;
name = D;
transform = "{1, 0, 0, 1, 25, 0}";
}
);
layerId = "77772675-63BC-4C39-8CE0-5446587E214D";
paths = (
{
closed = 1;
nodes = (
"50 435 LINE",
"197 435 LINE",
"197 473 LINE",
"50 473 LINE"
);
}
);
width = 425.5775;
},
{
components = (
{
alignment = -1;
name = D;
transform = "{1, 0, 0, 1, 33, 0}";
}
);
layerId = "4BC723F9-D357-4E8E-81DA-22F6730CB37E";
paths = (
{
closed = 1;
nodes = (
"50 443 LINE",
"197 443 LINE",
"197 473 LINE",
"50 473 LINE"
);
}
);
width = 367.3525;
}
);
leftKerningGroup = H;
rightKerningGroup = O;
rightMetricsKey = D;
unicode = 00D0;
},
{
glyphname = E;
lastChange = "2019-08-09 19:33:38 +0000";
layers = (
{
anchors = (
{
name = bottom;
position = "{181, -2}";
},
{
name = ogonek;
position = "{268, 2}";
},
{
name = top;
position = "{171, 798}";
},
{
name = topleft;
position = "{80, 800}";
}
);
layerId = "3B122060-26E0-4730-9241-82784E6CB359";
paths = (
{
closed = 1;
nodes = (
"279 0 LINE",
"279 38 LINE",
"110 38 LINE",
"110 381 LINE",
"269 381 LINE",
"269 419 LINE",
"110 419 LINE",
"110 762 LINE",
"279 762 LINE",
"279 800 LINE",
"70 800 LINE",
"70 0 LINE"
);
}
);
width = 329;
},
{
anchors = (
{
name = bottom;
position = "{238, 0}";
},
{
name = ogonek;
position = "{402, 10}";
},
{
name = top;
position = "{224, 800}";
},
{
name = topleft;
position = "{40, 800}";
}
);
layerId = "1DFA7D5B-2E97-4B89-827F-FB43F8066DC1";
paths = (
{
closed = 1;
nodes = (
"406 0 LINE",
"406 132 LINE",
"190 132 LINE",
"190 341 LINE",
"396 341 LINE",
"396 473 LINE",
"190 473 LINE",
"190 668 LINE",
"406 668 LINE",
"406 800 LINE",
"40 800 LINE",
"40 0 LINE"
);
}
);
width = 426;
},
{
anchors = (
{
name = bottom;
position = "{218, 0}";
},
{
name = ogonek;
position = "{385, 10}";
},
{
name = top;
position = "{215, 800}";
},
{
name = topleft;
position = "{20, 800}";
}
);
layerId = "5013C991-8699-46CB-BB1C-82E334DBD38B";
paths = (
{
closed = 1;
nodes = (
"386 0 LINE",
"386 132 LINE",
"190 132 LINE",
"190 341 LINE",
"376 341 LINE",
"376 473 LINE",
"190 473 LINE",
"190 668 LINE",
"386 668 LINE",
"386 800 LINE",
"40 800 LINE",
"40 0 LINE"
);
}
);
width = 406;
},
{
anchors = (
{
name = bottom;
position = "{135, 0}";
},
{
name = ogonek;
position = "{210, 1}";
},
{
name = top;
position = "{135, 800}";
},
{
name = topleft;
position = "{40, 800}";
}
);
layerId = "3D06B89B-468F-44E0-A3D7-A5BC6911123E";
paths = (
{
closed = 1;
nodes = (
"219 0 LINE",
"219 20 LINE",
"80 20 LINE",
"80 390 LINE",
"209 390 LINE",
"209 410 LINE",
"80 410 LINE",
"80 780 LINE",
"219 780 LINE",
"219 800 LINE",
"60 800 LINE",
"60 0 LINE"
);
}
);
width = 259;
},
{
anchors = (
{
name = bottom;
position = "{192, -2}";
},
{
name = ogonek;
position = "{294, 4}";
},
{
name = top;
position = "{181, 798}";
},
{
name = topleft;
position = "{72, 800}";
}
);
layerId = "77772675-63BC-4C39-8CE0-5446587E214D";
paths = (
{
closed = 1;
nodes = (
"304 0 LINE",
"304 56 LINE",
"126 56 LINE",
"126 373 LINE",
"294 373 LINE",
"294 430 LINE",
"126 430 LINE",
"126 744 LINE",
"304 744 LINE",
"304 800 LINE",
"64 800 LINE",
"64 0 LINE"
);
}
);
width = 348.03625;
},
{
anchors = (
{
name = bottom;
position = "{151, 0}";
},
{
name = ogonek;
position = "{244, 3}";
},
{
name = top;
position = "{151, 800}";
},
{
name = topleft;
position = "{36, 800}";
}
);
layerId = "4BC723F9-D357-4E8E-81DA-22F6730CB37E";
paths = (
{
closed = 1;
nodes = (
"252 0 LINE",
"252 42 LINE",
"102 42 LINE",
"102 380 LINE",
"242 380 LINE",
"242 422 LINE",
"102 422 LINE",
"102 758 LINE",
"252 758 LINE",
"252 800 LINE",
"56 800 LINE",
"56 0 LINE"
);
}
);
width = 287.84875;
}
);
leftKerningGroup = H;
rightKerningGroup = E;
unicode = 0045;
},
{
glyphname = F;
lastChange = "2019-08-09 19:33:38 +0000";
layers = (
{
layerId = "3B122060-26E0-4730-9241-82784E6CB359";
paths = (
{
closed = 1;
nodes = (
"110 0 LINE",
"110 381 LINE",
"279 381 LINE",
"279 419 LINE",
"110 419 LINE",
"110 762 LINE",
"289 762 LINE",
"289 800 LINE",
"70 800 LINE",
"70 0 LINE"
);
}
);
width = 339;
},
{
layerId = "1DFA7D5B-2E97-4B89-827F-FB43F8066DC1";
paths = (
{
closed = 1;
nodes = (
"190 0 LINE",
"190 341 LINE",
"396 341 LINE",
"396 473 LINE",
"190 473 LINE",
"190 668 LINE",
"406 668 LINE",
"406 800 LINE",
"40 800 LINE",
"40 0 LINE"
);
}
);
width = 426;
},
{
layerId = "5013C991-8699-46CB-BB1C-82E334DBD38B";
paths = (
{
closed = 1;
nodes = (
"190 0 LINE",
"190 341 LINE",
"376 341 LINE",
"376 473 LINE",
"190 473 LINE",
"190 668 LINE",
"386 668 LINE",
"386 800 LINE",
"40 800 LINE",
"40 0 LINE"
);
}
);
width = 406;
},
{
layerId = "3D06B89B-468F-44E0-A3D7-A5BC6911123E";
paths = (
{
closed = 1;
nodes = (
"80 0 LINE",
"80 390 LINE",
"209 390 LINE",
"209 410 LINE",
"80 410 LINE",
"80 780 LINE",
"219 780 LINE",
"219 800 LINE",
"60 800 LINE",
"60 0 LINE"
);
}
);
width = 259;
},
{
layerId = "77772675-63BC-4C39-8CE0-5446587E214D";
paths = (
{
closed = 1;
nodes = (
"126 0 LINE",
"126 373 LINE",
"302 373 LINE",
"302 430 LINE",
"126 430 LINE",
"126 744 LINE",
"312 744 LINE",
"312 800 LINE",
"64 800 LINE",
"64 0 LINE"
);
}
);
width = 356.07375;
},
{
layerId = "4BC723F9-D357-4E8E-81DA-22F6730CB37E";
paths = (
{
closed = 1;
nodes = (
"102 0 LINE",
"102 380 LINE",
"242 380 LINE",
"242 422 LINE",
"102 422 LINE",
"102 758 LINE",
"252 758 LINE",
"252 800 LINE",
"56 800 LINE",
"56 0 LINE"
);
}
);
width = 287.84875;
}
);
leftKerningGroup = H;
rightKerningGroup = F;
unicode = 0046;
},
{
glyphname = G;
lastChange = "2019-08-09 19:33:38 +0000";
layers = (
{
anchors = (
{
name = bottom;
position = "{193, 0}";
},
{
name = top;
position = "{193, 800}";
}
);
background = {
paths = (
{
closed = 1;
nodes = (
"249 -10 OFFCURVE",
"290 33 OFFCURVE",
"290 90 CURVE SMOOTH",
"290 298 LINE",
"270 298 LINE",
"270 90 LINE SMOOTH",
"270 44 OFFCURVE",
"238 10 OFFCURVE",
"195 10 CURVE SMOOTH",
"152 10 OFFCURVE",
"120 44 OFFCURVE",
"120 90 CURVE SMOOTH",
"120 710 LINE SMOOTH",
"120 756 OFFCURVE",
"152 790 OFFCURVE",
"195 790 CURVE SMOOTH",
"238 790 OFFCURVE",
"270 756 OFFCURVE",
"270 710 CURVE SMOOTH",
"270 570 LINE",
"290 570 LINE",
"290 710 LINE SMOOTH",
"290 767 OFFCURVE",
"249 810 OFFCURVE",
"195 810 CURVE SMOOTH",
"141 810 OFFCURVE",
"100 767 OFFCURVE",
"100 710 CURVE SMOOTH",
"100 90 LINE SMOOTH",
"100 33 OFFCURVE",
"141 -10 OFFCURVE",
"195 -10 CURVE SMOOTH"
);
},
{
closed = 1;
nodes = (
"182 298 LINE",
"290 298 LINE",
"290 318 LINE",
"182 318 LINE"
);
}
);
};
layerId = "3B122060-26E0-4730-9241-82784E6CB359";
paths = (
{
closed = 1;
nodes = (
"285 -5 OFFCURVE",
"317 24 OFFCURVE",
"318 98 CURVE SMOOTH",
"319 159 OFFCURVE",
"319 211 OFFCURVE",
"318 307 CURVE",
"185 307 LINE",
"185 267 LINE",
"278 267 LINE",
"279 203 OFFCURVE",
"279 162 OFFCURVE",
"278 98 CURVE SMOOTH",
"277 47 OFFCURVE",
"263 33 OFFCURVE",
"194 33 CURVE SMOOTH",
"127 33 OFFCURVE",
"113 47 OFFCURVE",
"112 98 CURVE SMOOTH",
"108 335 OFFCURVE",
"108 465 OFFCURVE",
"112 702 CURVE SMOOTH",
"113 753 OFFCURVE",
"127 767 OFFCURVE",
"193 767 CURVE SMOOTH",
"258 767 OFFCURVE",
"272 753 OFFCURVE",
"274 702 CURVE SMOOTH",
"276 639 OFFCURVE",
"276 598 OFFCURVE",
"274 535 CURVE",
"314 535 LINE",
"316 598 OFFCURVE",
"316 639 OFFCURVE",
"314 702 CURVE SMOOTH",
"312 776 OFFCURVE",
"281 805 OFFCURVE",
"193 805 CURVE SMOOTH",
"104 805 OFFCURVE",
"73 776 OFFCURVE",
"72 702 CURVE SMOOTH",
"69 486 OFFCURVE",
"69 314 OFFCURVE",
"72 98 CURVE SMOOTH",
"73 24 OFFCURVE",
"104 -5 OFFCURVE",
"194 -5 CURVE SMOOTH"
);
}
);
width = 369;
},
{
anchors = (
{
name = bottom;
position = "{260, 0}";
},
{
name = top;
position = "{260, 800}";
}
);
background = {
paths = (
{
closed = 1;
nodes = (
"270 -10 OFFCURVE",
"333 54 OFFCURVE",
"333 140 CURVE SMOOTH",
"333 300 LINE",
"233 300 LINE",
"233 140 LINE SMOOTH",
"233 111 OFFCURVE",
"213 90 OFFCURVE",
"187 90 CURVE SMOOTH",
"162 90 OFFCURVE",
"143 111 OFFCURVE",
"143 140 CURVE SMOOTH",
"143 660 LINE SMOOTH",
"143 689 OFFCURVE",
"162 710 OFFCURVE",
"187 710 CURVE SMOOTH",
"213 710 OFFCURVE",
"233 689 OFFCURVE",
"233 660 CURVE SMOOTH",
"233 500 LINE",
"333 500 LINE",
"333 660 LINE SMOOTH",
"333 746 OFFCURVE",
"270 810 OFFCURVE",
"187 810 CURVE SMOOTH",
"105 810 OFFCURVE",
"43 746 OFFCURVE",
"43 660 CURVE SMOOTH",
"43 140 LINE SMOOTH",
"43 54 OFFCURVE",
"105 -10 OFFCURVE",
"187 -10 CURVE SMOOTH"
);
},
{
closed = 1;
nodes = (
"186 300 LINE",
"333 300 LINE",
"333 400 LINE",
"186 400 LINE"
);
}
);
};
layerId = "1DFA7D5B-2E97-4B89-827F-FB43F8066DC1";
paths = (
{
closed = 1;
nodes = (
"414 -10 OFFCURVE",
"477 47 OFFCURVE",
"484 191 CURVE SMOOTH",
"487 252 OFFCURVE",
"488 330 OFFCURVE",
"485 391 CURVE",
"284 391 LINE",
"284 261 LINE",
"339 261 LINE",
"341 238 OFFCURVE",
"341 196 OFFCURVE",
"339 173 CURVE SMOOTH",
"335 129 OFFCURVE",
"314 112 OFFCURVE",
"264 112 CURVE SMOOTH",
"216 112 OFFCURVE",
"196 129 OFFCURVE",
"193 173 CURVE SMOOTH",
"185 313 OFFCURVE",
"185 488 OFFCURVE",
"193 628 CURVE SMOOTH",
"196 671 OFFCURVE",
"216 688 OFFCURVE",
"264 688 CURVE SMOOTH",
"310 688 OFFCURVE",
"329 671 OFFCURVE",
"332 628 CURVE SMOOTH",
"334 584 OFFCURVE",
"334 544 OFFCURVE",
"332 500 CURVE",
"482 500 LINE",
"484 531 OFFCURVE",
"484 579 OFFCURVE",
"482 610 CURVE SMOOTH",
"473 753 OFFCURVE",
"411 810 OFFCURVE",
"264 810 CURVE SMOOTH",
"112 810 OFFCURVE",
"49 750 OFFCURVE",
"43 601 CURVE SMOOTH",
"39 493 OFFCURVE",
"39 303 OFFCURVE",
"43 191 CURVE SMOOTH",
"48 47 OFFCURVE",
"111 -10 OFFCURVE",
"264 -10 CURVE SMOOTH"
);
}
);
width = 507;
},
{
anchors = (
{
name = bottom;
position = "{250, 0}";
},
{
name = top;
position = "{250, 800}";
}
);
background = {
paths = (
{
closed = 1;
nodes = (
"260 -10 OFFCURVE",
"323 54 OFFCURVE",
"323 140 CURVE SMOOTH",
"323 300 LINE",
"223 300 LINE",
"223 140 LINE SMOOTH",
"223 111 OFFCURVE",
"203 90 OFFCURVE",
"177 90 CURVE SMOOTH",
"152 90 OFFCURVE",
"133 111 OFFCURVE",
"133 140 CURVE SMOOTH",
"133 660 LINE SMOOTH",
"133 689 OFFCURVE",
"152 710 OFFCURVE",
"177 710 CURVE SMOOTH",
"203 710 OFFCURVE",
"223 689 OFFCURVE",
"223 660 CURVE SMOOTH",
"223 500 LINE",
"323 500 LINE",
"323 660 LINE SMOOTH",
"323 746 OFFCURVE",
"260 810 OFFCURVE",
"177 810 CURVE SMOOTH",
"95 810 OFFCURVE",
"33 746 OFFCURVE",
"33 660 CURVE SMOOTH",
"33 140 LINE SMOOTH",
"33 54 OFFCURVE",
"95 -10 OFFCURVE",
"177 -10 CURVE SMOOTH"
);
},
{
closed = 1;
nodes = (
"176 300 LINE",
"323 300 LINE",
"323 400 LINE",
"176 400 LINE"
);
}
);
};
layerId = "5013C991-8699-46CB-BB1C-82E334DBD38B";
paths = (
{
closed = 1;
nodes = (
"397 -10 OFFCURVE",
"457 47 OFFCURVE",
"464 191 CURVE SMOOTH",
"467 252 OFFCURVE",
"468 330 OFFCURVE",
"465 391 CURVE",
"264 391 LINE",
"264 261 LINE",
"319 261 LINE",
"321 238 OFFCURVE",
"321 186 OFFCURVE",
"319 163 CURVE SMOOTH",
"316 130 OFFCURVE",
"292 112 OFFCURVE",
"254 112 CURVE SMOOTH",
"215 112 OFFCURVE",
"195 130 OFFCURVE",
"193 163 CURVE SMOOTH",
"185 303 OFFCURVE",
"185 498 OFFCURVE",
"193 638 CURVE SMOOTH",
"195 670 OFFCURVE",
"215 688 OFFCURVE",
"254 688 CURVE SMOOTH",
"289 688 OFFCURVE",
"310 670 OFFCURVE",
"312 638 CURVE SMOOTH",
"314 601 OFFCURVE",
"314 537 OFFCURVE",
"312 500 CURVE",
"462 500 LINE",
"464 531 OFFCURVE",
"464 579 OFFCURVE",
"462 610 CURVE SMOOTH",
"453 753 OFFCURVE",
"394 810 OFFCURVE",
"254 810 CURVE SMOOTH",
"106 810 OFFCURVE",
"49 753 OFFCURVE",
"43 601 CURVE SMOOTH",
"39 493 OFFCURVE",
"39 303 OFFCURVE",
"43 191 CURVE SMOOTH",
"48 47 OFFCURVE",
"103 -10 OFFCURVE",
"254 -10 CURVE SMOOTH"
);
}
);
width = 487;
},
{
anchors = (
{
name = bottom;
position = "{145, 0}";
},
{
name = top;
position = "{145, 800}";
}
);
background = {
paths = (
{
closed = 1;
nodes = (
"219 -10 OFFCURVE",
"260 33 OFFCURVE",
"260 90 CURVE SMOOTH",
"260 298 LINE",
"240 298 LINE",
"240 90 LINE SMOOTH",
"240 44 OFFCURVE",
"208 10 OFFCURVE",
"165 10 CURVE SMOOTH",
"122 10 OFFCURVE",
"90 44 OFFCURVE",
"90 90 CURVE SMOOTH",
"90 710 LINE SMOOTH",
"90 756 OFFCURVE",
"122 790 OFFCURVE",
"165 790 CURVE SMOOTH",
"208 790 OFFCURVE",
"240 756 OFFCURVE",
"240 710 CURVE SMOOTH",
"240 570 LINE",
"260 570 LINE",
"260 710 LINE SMOOTH",
"260 767 OFFCURVE",
"219 810 OFFCURVE",
"165 810 CURVE SMOOTH",
"111 810 OFFCURVE",
"70 767 OFFCURVE",
"70 710 CURVE SMOOTH",
"70 90 LINE SMOOTH",
"70 33 OFFCURVE",
"111 -10 OFFCURVE",
"165 -10 CURVE SMOOTH"
);
},
{
closed = 1;
nodes = (
"152 298 LINE",
"260 298 LINE",
"260 318 LINE",
"152 318 LINE"
);
}
);
};
layerId = "3D06B89B-468F-44E0-A3D7-A5BC6911123E";
paths = (
{
closed = 1;
nodes = (
"211 -5 OFFCURVE",
"237 22 OFFCURVE",
"238 88 CURVE SMOOTH",
"239 199 OFFCURVE",
"239 261 OFFCURVE",
"238 307 CURVE",
"145 307 LINE",
"145 287 LINE",
"218 287 LINE",
"219 216 OFFCURVE",
"219 159 OFFCURVE",
"218 88 CURVE SMOOTH",
"217 36 OFFCURVE",
"197 15 OFFCURVE",
"149 15 CURVE SMOOTH",
"101 15 OFFCURVE",
"82 36 OFFCURVE",
"82 88 CURVE SMOOTH",
"80 311 OFFCURVE",
"80 489 OFFCURVE",
"82 712 CURVE SMOOTH",
"83 764 OFFCURVE",
"102 785 OFFCURVE",
"148 785 CURVE SMOOTH",
"193 785 OFFCURVE",
"212 764 OFFCURVE",
"214 712 CURVE SMOOTH",
"216 649 OFFCURVE",
"216 598 OFFCURVE",
"214 535 CURVE",
"234 535 LINE",
"236 598 OFFCURVE",
"236 649 OFFCURVE",
"234 712 CURVE SMOOTH",
"232 778 OFFCURVE",
"207 805 OFFCURVE",
"148 805 CURVE SMOOTH",
"88 805 OFFCURVE",
"63 778 OFFCURVE",
"62 712 CURVE SMOOTH",
"59 489 OFFCURVE",
"59 311 OFFCURVE",
"62 88 CURVE SMOOTH",
"63 22 OFFCURVE",
"88 -5 OFFCURVE",
"149 -5 CURVE SMOOTH"
);
}
);
width = 279;
},
{
anchors = (
{
name = bottom;
position = "{206, 0}";
},
{
name = top;
position = "{206, 800}";
}
);
layerId = "77772675-63BC-4C39-8CE0-5446587E214D";
paths = (
{
closed = 1;
nodes = (
"310 -6 OFFCURVE",
"348 29 OFFCURVE",
"351 116 CURVE SMOOTH",
"352 177 OFFCURVE",
"352 234 OFFCURVE",
"351 323 CURVE",
"204 323 LINE",
"204 266 LINE",
"290 266 LINE",
"291 210 OFFCURVE",
"291 169 OFFCURVE",
"290 113 CURVE SMOOTH",
"288 63 OFFCURVE",
"273 49 OFFCURVE",
"208 49 CURVE SMOOTH",
"144 49 OFFCURVE",
"129 63 OFFCURVE",
"128 113 CURVE SMOOTH",
"123 331 OFFCURVE",
"123 470 OFFCURVE",
"128 687 CURVE SMOOTH",
"129 737 OFFCURVE",
"144 751 OFFCURVE",
"207 751 CURVE SMOOTH",
"268 751 OFFCURVE",
"283 737 OFFCURVE",
"285 687 CURVE SMOOTH",
"287 628 OFFCURVE",
"287 587 OFFCURVE",
"285 528 CURVE",
"347 528 LINE",
"349 585 OFFCURVE",
"349 627 OFFCURVE",
"347 684 CURVE SMOOTH",
"344 771 OFFCURVE",
"307 806 OFFCURVE",
"207 806 CURVE SMOOTH",
"106 806 OFFCURVE",
"68 771 OFFCURVE",
"66 682 CURVE SMOOTH",
"63 487 OFFCURVE",
"63 312 OFFCURVE",
"66 116 CURVE SMOOTH",
"68 29 OFFCURVE",
"105 -6 OFFCURVE",
"208 -6 CURVE SMOOTH"
);
}
);
width = 396.0825;
},
{
anchors = (
{
name = bottom;
position = "{166, 0}";
},
{
name = top;
position = "{166, 800}";
}
);
layerId = "4BC723F9-D357-4E8E-81DA-22F6730CB37E";
paths = (
{
closed = 1;
nodes = (
"248 -6 OFFCURVE",
"280 27 OFFCURVE",
"282 108 CURVE SMOOTH",
"284 209 OFFCURVE",
"284 275 OFFCURVE",
"283 323 CURVE",
"168 323 LINE",
"168 282 LINE",
"238 282 LINE",
"239 220 OFFCURVE",
"239 164 OFFCURVE",
"238 103 CURVE SMOOTH",
"236 54 OFFCURVE",
"216 34 OFFCURVE",
"170 34 CURVE SMOOTH",
"123 34 OFFCURVE",
"104 54 OFFCURVE",
"104 103 CURVE SMOOTH",
"101 309 OFFCURVE",
"101 491 OFFCURVE",
"104 697 CURVE SMOOTH",
"105 746 OFFCURVE",
"124 766 OFFCURVE",
"169 766 CURVE SMOOTH",
"212 766 OFFCURVE",
"231 746 OFFCURVE",
"233 697 CURVE SMOOTH",
"235 640 OFFCURVE",
"235 586 OFFCURVE",
"233 528 CURVE",
"279 528 LINE",
"281 585 OFFCURVE",
"281 635 OFFCURVE",
"279 692 CURVE SMOOTH",
"275 773 OFFCURVE",
"244 806 OFFCURVE",
"169 806 CURVE SMOOTH",
"92 806 OFFCURVE",
"60 773 OFFCURVE",
"58 690 CURVE SMOOTH",
"55 490 OFFCURVE",
"55 309 OFFCURVE",
"58 108 CURVE SMOOTH",
"60 27 OFFCURVE",
"91 -6 OFFCURVE",
"170 -6 CURVE SMOOTH"
);
}
);
width = 319.82;
}
);
leftKerningGroup = O;
rightKerningGroup = O;
unicode = 0047;
},
{
glyphname = H;
lastChange = "2019-08-09 19:33:38 +0000";
layers = (
{
anchors = (
{
name = bottom;
position = "{190, 0}";
},
{
name = center;
position = "{190, 400}";
},
{
name = top;
position = "{190, 800}";
},
{
name = topleft;
position = "{50, 800}";
}
);
layerId = "3B122060-26E0-4730-9241-82784E6CB359";
paths = (
{
closed = 1;
nodes = (
"110 0 LINE",
"110 381 LINE",
"270 381 LINE",
"270 0 LINE",
"310 0 LINE",
"310 800 LINE",
"270 800 LINE",
"270 419 LINE",
"110 419 LINE",
"110 800 LINE",
"70 800 LINE",
"70 0 LINE"
);
}
);
width = 380;
},
{
anchors = (
{
name = bottom;
position = "{253, 0}";
},
{
name = center;
position = "{253, 400}";
},
{
name = top;
position = "{253, 800}";
},
{
name = topleft;
position = "{20, 800}";
}
);
layerId = "1DFA7D5B-2E97-4B89-827F-FB43F8066DC1";
paths = (
{
closed = 1;
nodes = (
"190 0 LINE",
"190 341 LINE",
"315 341 LINE",
"315 0 LINE",
"465 0 LINE",
"465 800 LINE",
"315 800 LINE",
"315 473 LINE",
"190 473 LINE",
"190 800 LINE",
"40 800 LINE",
"40 0 LINE"
);
}
);
width = 505;
},
{
anchors = (
{
name = bottom;
position = "{243, 0}";
},
{
name = center;
position = "{243, 400}";
},
{
name = top;
position = "{243, 800}";
},
{
name = topleft;
position = "{20, 800}";
}
);
layerId = "5013C991-8699-46CB-BB1C-82E334DBD38B";
paths = (
{
closed = 1;
nodes = (
"190 0 LINE",
"190 341 LINE",
"295 341 LINE",
"295 0 LINE",
"445 0 LINE",
"445 800 LINE",
"295 800 LINE",
"295 473 LINE",
"190 473 LINE",
"190 800 LINE",
"40 800 LINE",
"40 0 LINE"
);
}
);
width = 485;
},
{
anchors = (
{
name = bottom;
position = "{150, 0}";
},
{
name = center;
position = "{150, 400}";
},
{
name = top;
position = "{150, 800}";
},
{
name = topleft;
position = "{40, 800}";
}
);
layerId = "3D06B89B-468F-44E0-A3D7-A5BC6911123E";
paths = (
{
closed = 1;
nodes = (
"80 0 LINE",
"80 390 LINE",
"220 390 LINE",
"220 0 LINE",
"240 0 LINE",
"240 800 LINE",
"220 800 LINE",
"220 410 LINE",
"80 410 LINE",
"80 800 LINE",
"60 800 LINE",
"60 0 LINE"
);
}
);
width = 300;
},
{
anchors = (
{
name = bottom;
position = "{202, 0}";
},
{
name = center;
position = "{202, 400}";
},
{
name = top;
position = "{202, 800}";
},
{
name = topleft;
position = "{44, 800}";
}
);
layerId = "77772675-63BC-4C39-8CE0-5446587E214D";
paths = (
{
closed = 1;
nodes = (
"126 0 LINE",
"126 373 LINE",
"279 373 LINE",
"279 0 LINE",
"340 0 LINE",
"340 800 LINE",
"279 800 LINE",
"279 430 LINE",
"126 430 LINE",
"126 800 LINE",
"64 800 LINE",
"64 0 LINE"
);
}
);
width = 404.53125;
},
{
anchors = (
{
name = bottom;
position = "{168, 0}";
},
{
name = center;
position = "{168, 400}";
},
{
name = top;
position = "{168, 800}";
},
{
name = topleft;
position = "{36, 800}";
}
);
layerId = "4BC723F9-D357-4E8E-81DA-22F6730CB37E";
paths = (
{
closed = 1;
nodes = (
"102 0 LINE",
"102 380 LINE",
"235 380 LINE",
"235 0 LINE",
"280 0 LINE",
"280 800 LINE",
"235 800 LINE",
"235 422 LINE",
"102 422 LINE",
"102 800 LINE",
"56 800 LINE",
"56 0 LINE"
);
}
);
width = 336.30625;
}
);
leftKerningGroup = H;
rightKerningGroup = H;
unicode = 0048;
},
{
glyphname = Hbar;
lastChange = "2019-08-11 19:05:42 +0000";
layers = (
{
components = (
{
name = H;
transform = "{1, 0, 0, 1, -13, 0}";
}
);
layerId = "3B122060-26E0-4730-9241-82784E6CB359";
leftMetricsKey = "=15";
rightMetricsKey = "=15";
paths = (
{
closed = 1;
nodes = (
"15 575 LINE",
"321 575 LINE",
"321 605 LINE",
"15 605 LINE"
);
}
);
width = 336;
},
{
components = (
{
name = H;
transform = "{1, 0, 0, 1, 38, 0}";
}
);
layerId = "1DFA7D5B-2E97-4B89-827F-FB43F8066DC1";
leftMetricsKey = "=30";
rightMetricsKey = "=30";
paths = (
{
closed = 1;
nodes = (
"30 568 LINE",
"551 568 LINE",
"551 640 LINE",
"30 640 LINE"
);
}
);
width = 581;
},
{
components = (
{
name = H;
transform = "{1, 0, 0, 1, 48, 0}";
}
);
layerId = "5013C991-8699-46CB-BB1C-82E334DBD38B";
leftMetricsKey = "=30";
rightMetricsKey = "=30";
paths = (
{
closed = 1;
nodes = (
"30 568 LINE",
"551 568 LINE",
"551 640 LINE",
"30 640 LINE"
);
}
);
width = 581;
},
{
components = (
{
name = H;
transform = "{1, 0, 0, 1, -2, 0}";
}
);
layerId = "3D06B89B-468F-44E0-A3D7-A5BC6911123E";
leftMetricsKey = "=15";
rightMetricsKey = "=15";
paths = (
{
closed = 1;
nodes = (
"15 580 LINE",
"281 580 LINE",
"281 600 LINE",
"15 600 LINE"
);
}
);
width = 296;
},
{
components = (
{
alignment = -1;
name = H;
transform = "{1, 0, 0, 1, -3, 0}";
}
);
layerId = "77772675-63BC-4C39-8CE0-5446587E214D";
leftMetricsKey = "=25";
rightMetricsKey = "=25";
paths = (
{
closed = 1;
nodes = (
"25 574 LINE",
"373 574 LINE",
"373 612 LINE",
"25 612 LINE"
);
}
);
width = 398;
},
{
components = (
{
alignment = -1;
name = H;
transform = "{1, 0, 0, 1, 46, 0}";
}
);
layerId = "4BC723F9-D357-4E8E-81DA-22F6730CB37E";
paths = (
{
closed = 1;
nodes = (
"56 578 LINE",
"372 578 LINE",
"372 608 LINE",
"56 608 LINE"
);
}
);
width = 428;
}
);
leftKerningGroup = H;
leftMetricsKey = H;
rightKerningGroup = H;
rightMetricsKey = H;
unicode = 0126;
},
{
glyphname = I;
lastChange = "2019-08-09 19:33:38 +0000";
layers = (
{
anchors = (
{
name = bottom;
position = "{90, 0}";
},
{
name = ogonek;
position = "{99, 2}";
},
{
name = top;
position = "{90, 800}";
},
{
name = topleft;
position = "{50, 800}";
}
);
layerId = "3B122060-26E0-4730-9241-82784E6CB359";
paths = (
{
closed = 1;
nodes = (
"110 0 LINE",
"110 800 LINE",
"70 800 LINE",
"70 0 LINE"
);
}
);
width = 180;
},
{
anchors = (
{
name = bottom;
position = "{115, 0}";
},
{
name = ogonek;
position = "{187, 10}";
},
{
name = top;
position = "{115, 800}";
},
{
name = topleft;
position = "{20, 800}";
}
);
layerId = "1DFA7D5B-2E97-4B89-827F-FB43F8066DC1";
paths = (
{
closed = 1;
nodes = (
"190 0 LINE",
"190 800 LINE",
"40 800 LINE",
"40 0 LINE"
);
}
);
width = 230;
},
{
anchors = (
{
name = bottom;
position = "{115, 0}";
},
{
name = ogonek;
position = "{189, 10}";
},
{
name = top;
position = "{115, 800}";
},
{
name = topleft;
position = "{20, 800}";
}
);
layerId = "5013C991-8699-46CB-BB1C-82E334DBD38B";
paths = (
{
closed = 1;
nodes = (
"190 0 LINE",
"190 800 LINE",
"40 800 LINE",
"40 0 LINE"
);
}
);
width = 230;
},
{
anchors = (
{
name = bottom;
position = "{70, 0}";
},
{
name = ogonek;
position = "{69, 1}";
},
{
name = top;
position = "{70, 800}";
},
{
name = topleft;
position = "{40, 800}";
}
);
layerId = "3D06B89B-468F-44E0-A3D7-A5BC6911123E";
paths = (
{
closed = 1;
nodes = (
"80 0 LINE",
"80 800 LINE",
"60 800 LINE",
"60 0 LINE"
);
}
);
width = 140;
},
{
anchors = (
{
name = bottom;
position = "{95, 0}";
},
{
name = ogonek;
position = "{116, 4}";
},
{
name = top;
position = "{95, 800}";
},
{
name = topleft;
position = "{44, 800}";
}
);
layerId = "77772675-63BC-4C39-8CE0-5446587E214D";
paths = (
{
closed = 1;
nodes = (
"126 0 LINE",
"126 800 LINE",
"64 800 LINE",
"64 0 LINE"
);
}
);
width = 189.8125;
},
{
anchors = (
{
name = bottom;
position = "{79, 0}";
},
{
name = ogonek;
position = "{93, 3}";
},
{
name = top;
position = "{79, 800}";
},
{
name = topleft;
position = "{36, 800}";
}
);
layerId = "4BC723F9-D357-4E8E-81DA-22F6730CB37E";
paths = (
{
closed = 1;
nodes = (
"102 0 LINE",
"102 800 LINE",
"56 800 LINE",
"56 0 LINE"
);
}
);
width = 157.6625;
}
);
leftKerningGroup = H;
rightKerningGroup = H;
unicode = 0049;
},
{
glyphname = J;
lastChange = "2019-08-09 20:16:51 +0000";
layers = (
{
anchors = (
{
name = bottom;
position = "{133, 0}";
},
{
name = top;
position = "{153, 800}";
}
);
layerId = "3B122060-26E0-4730-9241-82784E6CB359";
paths = (
{
closed = 1;
nodes = (
"212 -5 OFFCURVE",
"245 24 OFFCURVE",
"245 98 CURVE SMOOTH",
"245 800 LINE",
"205 800 LINE",
"205 98 LINE SMOOTH",
"205 49 OFFCURVE",
"189 33 OFFCURVE",
"129 33 CURVE SMOOTH",
"77 33 OFFCURVE",
"63 49 OFFCURVE",
"61 98 CURVE SMOOTH",
"58 163 OFFCURVE",
"59 218 OFFCURVE",
"61 283 CURVE",
"21 283 LINE",
"19 213 OFFCURVE",
"19 168 OFFCURVE",
"21 98 CURVE SMOOTH",
"23 24 OFFCURVE",
"54 -5 OFFCURVE",
"129 -5 CURVE SMOOTH"
);
}
);
width = 285;
},
{
anchors = (
{
name = bottom;
position = "{230, -10}";
},
{
name = top;
position = "{258, 800}";
}
);
layerId = "1DFA7D5B-2E97-4B89-827F-FB43F8066DC1";
paths = (
{
closed = 1;
nodes = (
"384 -10 OFFCURVE",
"445 47 OFFCURVE",
"445 191 CURVE SMOOTH",
"445 800 LINE",
"295 800 LINE",
"295 173 LINE SMOOTH",
"295 129 OFFCURVE",
"276 112 OFFCURVE",
"230 112 CURVE SMOOTH",
"183 112 OFFCURVE",
"163 129 OFFCURVE",
"162 173 CURVE SMOOTH",
"161 209 OFFCURVE",
"161 264 OFFCURVE",
"162 300 CURVE",
"21 300 LINE",
"20 268 OFFCURVE",
"20 223 OFFCURVE",
"21 191 CURVE SMOOTH",
"25 47 OFFCURVE",
"85 -10 OFFCURVE",
"230 -10 CURVE SMOOTH"
);
}
);
width = 475;
},
{
anchors = (
{
name = bottom;
position = "{230, -10}";
},
{
name = top;
position = "{258, 800}";
}
);
layerId = "5013C991-8699-46CB-BB1C-82E334DBD38B";
paths = (
{
closed = 1;
nodes = (
"381 -10 OFFCURVE",
"435 47 OFFCURVE",
"435 191 CURVE SMOOTH",
"435 800 LINE",
"285 800 LINE",
"285 163 LINE SMOOTH",
"285 130 OFFCURVE",
"269 112 OFFCURVE",
"230 112 CURVE SMOOTH",
"191 112 OFFCURVE",
"173 130 OFFCURVE",
"172 163 CURVE SMOOTH",
"171 199 OFFCURVE",
"171 264 OFFCURVE",
"172 300 CURVE",
"31 300 LINE",
"30 268 OFFCURVE",
"30 223 OFFCURVE",
"31 191 CURVE SMOOTH",
"35 47 OFFCURVE",
"83 -10 OFFCURVE",
"230 -10 CURVE SMOOTH"
);
}
);
width = 475;
},
{
anchors = (
{
name = bottom;
position = "{123, 0}";
},
{
name = top;
position = "{143, 800}";
}
);
layerId = "3D06B89B-468F-44E0-A3D7-A5BC6911123E";
paths = (
{
closed = 1;
nodes = (
"180 -5 OFFCURVE",
"205 22 OFFCURVE",
"205 88 CURVE SMOOTH",
"205 800 LINE",
"185 800 LINE",
"185 88 LINE SMOOTH",
"185 36 OFFCURVE",
"166 15 OFFCURVE",
"119 15 CURVE SMOOTH",
"70 15 OFFCURVE",
"53 36 OFFCURVE",
"51 88 CURVE SMOOTH",
"49 153 OFFCURVE",
"49 218 OFFCURVE",
"51 283 CURVE",
"31 283 LINE",
"29 213 OFFCURVE",
"29 158 OFFCURVE",
"31 88 CURVE SMOOTH",
"32 22 OFFCURVE",
"57 -5 OFFCURVE",
"119 -5 CURVE SMOOTH"
);
}
);
width = 265;
},
{
anchors = (
{
name = bottom;
position = "{157, -3}";
},
{
name = top;
position = "{179, 800}";
}
);
layerId = "77772675-63BC-4C39-8CE0-5446587E214D";
paths = (
{
closed = 1;
nodes = (
"248 -14 OFFCURVE",
"288 22 OFFCURVE",
"288 114 CURVE SMOOTH",
"288 800 LINE",
"220 800 LINE",
"220 109 LINE SMOOTH",
"220 62 OFFCURVE",
"203 45 OFFCURVE",
"147 45 CURVE SMOOTH",
"96 45 OFFCURVE",
"81 62 OFFCURVE",
"79 109 CURVE SMOOTH",
"77 167 OFFCURVE",
"77 230 OFFCURVE",
"79 287 CURVE",
"14 287 LINE",
"12 227 OFFCURVE",
"12 174 OFFCURVE",
"14 114 CURVE SMOOTH",
"16 22 OFFCURVE",
"54 -14 OFFCURVE",
"147 -14 CURVE SMOOTH"
);
}
);
width = 318;
},
{
anchors = (
{
name = bottom;
position = "{150, -3}";
},
{
name = top;
position = "{172, 800}";
}
);
layerId = "4BC723F9-D357-4E8E-81DA-22F6730CB37E";
paths = (
{
closed = 1;
nodes = (
"230 -6 OFFCURVE",
"263 28 OFFCURVE",
"263 114 CURVE SMOOTH",
"263 800 LINE",
"210 800 LINE",
"210 107 LINE SMOOTH",
"210 60 OFFCURVE",
"192 39 OFFCURVE",
"147 39 CURVE SMOOTH",
"100 39 OFFCURVE",
"83 60 OFFCURVE",
"81 107 CURVE SMOOTH",
"80 165 OFFCURVE",
"80 230 OFFCURVE",
"81 287 CURVE",
"31 287 LINE",
"29 227 OFFCURVE",
"29 174 OFFCURVE",
"31 114 CURVE SMOOTH",
"33 28 OFFCURVE",
"64 -6 OFFCURVE",
"147 -6 CURVE SMOOTH"
);
}
);
width = 318;
}
);
leftKerningGroup = J;
rightKerningGroup = O;
unicode = 004A;
},
{
glyphname = K;
lastChange = "2019-08-09 19:33:38 +0000";
layers = (
{
anchors = (
{
name = bottom;
position = "{185, 0}";
},
{
name = top;
position = "{175, 800}";
}
);
background = {
paths = (
{
closed = 1;
nodes = (
"135 391 LINE",
"137 400 LINE",
"240 800 LINE",
"220 800 LINE",
"101 339 LINE",
"98 332 LINE",
"107 292 LINE"
);
},
{
closed = 1;
nodes = (
"249 0 LINE",
"136 450 LINE",
"127 410 LINE",
"229 0 LINE"
);
},
{
closed = 1;
nodes = (
"110 0 LINE",
"110 800 LINE",
"90 800 LINE",
"90 0 LINE"
);
},
{
closed = 1;
nodes = (
"209 390 LINE",
"209 410 LINE",
"105 410 LINE",
"105 390 LINE"
);
}
);
};
layerId = "3B122060-26E0-4730-9241-82784E6CB359";
paths = (
{
closed = 1;
nodes = (
"110 0 LINE",
"110 180 LINE",
"170 359 LINE",
"275 0 LINE",
"318 0 LINE",
"191 426 LINE",
"302 800 LINE",
"260 800 LINE",
"213 641 LINE",
"128 349 LINE",
"110 349 LINE",
"110 639 LINE",
"110 800 LINE",
"70 800 LINE",
"70 0 LINE"
);
}
);
width = 358;
},
{
anchors = (
{
name = bottom;
position = "{265, 0}";
},
{
name = top;
position = "{265, 800}";
}
);
background = {
paths = (
{
closed = 1;
nodes = (
"200 0 LINE",
"200 800 LINE",
"50 800 LINE",
"50 0 LINE"
);
},
{
closed = 1;
nodes = (
"480 0 LINE",
"337 419 LINE",
"222 323 LINE",
"323 0 LINE"
);
},
{
closed = 1;
nodes = (
"319 317 LINE",
"468 800 LINE",
"311 800 LINE",
"220 470 LINE",
"200 470 LINE",
"200 317 LINE"
);
}
);
};
layerId = "1DFA7D5B-2E97-4B89-827F-FB43F8066DC1";
paths = (
{
closed = 1;
nodes = (
"193 0 LINE",
"193 180 LINE",
"265 320 LINE",
"356 0 LINE",
"508 0 LINE",
"369 471 LINE",
"502 800 LINE",
"338 800 LINE",
"266 606 LINE",
"218 427 LINE",
"181 427 LINE",
"198 606 LINE",
"200 800 LINE",
"40 800 LINE",
"40 0 LINE"
);
}
);
width = 528;
},
{
anchors = (
{
name = bottom;
position = "{265, 0}";
},
{
name = top;
position = "{265, 800}";
}
);
background = {
paths = (
{
closed = 1;
nodes = (
"200 0 LINE",
"200 800 LINE",
"50 800 LINE",
"50 0 LINE"
);
},
{
closed = 1;
nodes = (
"480 0 LINE",
"337 419 LINE",
"222 323 LINE",
"323 0 LINE"
);
},
{
closed = 1;
nodes = (
"319 317 LINE",
"468 800 LINE",
"311 800 LINE",
"220 470 LINE",
"200 470 LINE",
"200 317 LINE"
);
}
);
};
layerId = "5013C991-8699-46CB-BB1C-82E334DBD38B";
paths = (
{
closed = 1;
nodes = (
"193 0 LINE",
"193 184 LINE",
"249 305 LINE",
"336 0 LINE",
"488 0 LINE",
"349 471 LINE",
"482 800 LINE",
"318 800 LINE",
"246 606 LINE",
"198 427 LINE",
"171 427 LINE",
"198 606 LINE",
"200 800 LINE",
"40 800 LINE",
"40 0 LINE"
);
}
);
width = 508;
},
{
anchors = (
{
name = bottom;
position = "{149, 0}";
},
{
name = top;
position = "{139, 800}";
}
);
background = {
paths = (
{
closed = 1;
nodes = (
"95 391 LINE",
"97 400 LINE",
"200 800 LINE",
"180 800 LINE",
"61 339 LINE",
"58 332 LINE",
"67 292 LINE"
);
},
{
closed = 1;
nodes = (
"209 0 LINE",
"96 450 LINE",
"87 410 LINE",
"189 0 LINE"
);
},
{
closed = 1;
nodes = (
"70 0 LINE",
"70 800 LINE",
"50 800 LINE",
"50 0 LINE"
);
},
{
closed = 1;
nodes = (
"169 390 LINE",
"169 410 LINE",
"65 410 LINE",
"65 390 LINE"
);
}
);
};
layerId = "3D06B89B-468F-44E0-A3D7-A5BC6911123E";
paths = (
{
closed = 1;
nodes = (
"80 0 LINE",
"80 299 LINE",
"110 394 LINE",
"225 0 LINE",
"248 0 LINE",
"121 426 LINE",
"232 800 LINE",
"210 800 LINE",
"163 641 LINE",
"91 395 LINE",
"80 395 LINE",
"80 645 LINE",
"80 800 LINE",
"60 800 LINE",
"60 0 LINE"
);
}
);
width = 278;
},
{
anchors = (
{
name = bottom;
position = "{201, 0}";
},
{
name = top;
position = "{193, 800}";
}
);
layerId = "77772675-63BC-4C39-8CE0-5446587E214D";
paths = (
{
closed = 1;
nodes = (
"126 0 LINE",
"126 180 LINE",
"189 351 LINE",
"291 0 LINE",
"355 0 LINE",
"226 435 LINE",
"341 800 LINE",
"275 800 LINE",
"223 634 LINE",
"146 364 LINE",
"124 364 LINE",
"127 633 LINE",
"128 800 LINE",
"64 800 LINE",
"64 0 LINE"
);
}
);
width = 391.3625;
},
{
anchors = (
{
name = bottom;
position = "{172, 0}";
},
{
name = top;
position = "{164, 800}";
}
);
layerId = "4BC723F9-D357-4E8E-81DA-22F6730CB37E";
paths = (
{
closed = 1;
nodes = (
"102 0 LINE",
"102 276 LINE",
"137 377 LINE",
"247 0 LINE",
"295 0 LINE",
"166 435 LINE",
"281 800 LINE",
"231 800 LINE",
"179 634 LINE",
"112 401 LINE",
"98 401 LINE",
"103 637 LINE",
"104 800 LINE",
"56 800 LINE",
"56 0 LINE"
);
}
);
width = 323.1375;
}
);
leftKerningGroup = H;
rightKerningGroup = K;
unicode = 004B;
},
{
glyphname = L;
lastChange = "2019-08-09 19:33:38 +0000";
layers = (
{
anchors = (
{
name = bottom;
position = "{181, 0}";
},
{
name = center;
position = "{165, 400}";
},
{
name = top;
position = "{165, 800}";
},
{
name = topright;
position = "{249, 800}";
}
);
layerId = "3B122060-26E0-4730-9241-82784E6CB359";
paths = (
{
closed = 1;
nodes = (
"289 0 LINE",
"289 38 LINE",
"110 38 LINE",
"110 800 LINE",
"70 800 LINE",
"70 0 LINE"
);
}
);
width = 329;
},
{
anchors = (
{
name = bottom;
position = "{193, 0}";
},
{
name = center;
position = "{219, 400}";
},
{
name = top;
position = "{219, 800}";
},
{
name = topright;
position = "{417, 800}";
}
);
layerId = "1DFA7D5B-2E97-4B89-827F-FB43F8066DC1";
paths = (
{
closed = 1;
nodes = (
"387 0 LINE",
"387 132 LINE",
"190 132 LINE",
"190 800 LINE",
"40 800 LINE",
"40 0 LINE"
);
}
);
width = 407;
},
{
anchors = (
{
name = bottom;
position = "{204, 0}";
},
{
name = center;
position = "{219, 400}";
},
{
name = top;
position = "{219, 800}";
},
{
name = topright;
position = "{417, 800}";
}
);
layerId = "5013C991-8699-46CB-BB1C-82E334DBD38B";
paths = (
{
closed = 1;
nodes = (
"387 0 LINE",
"387 132 LINE",
"190 132 LINE",
"190 800 LINE",
"40 800 LINE",
"40 0 LINE"
);
}
);
width = 407;
},
{
anchors = (
{
name = bottom;
position = "{141, 0}";
},
{
name = center;
position = "{125, 400}";
},
{
name = top;
position = "{125, 800}";
},
{
name = topright;
position = "{209, 800}";
}
);
layerId = "3D06B89B-468F-44E0-A3D7-A5BC6911123E";
paths = (
{
closed = 1;
nodes = (
"219 0 LINE",
"219 20 LINE",
"80 20 LINE",
"80 800 LINE",
"60 800 LINE",
"60 0 LINE"
);
}
);
width = 249;
},
{
anchors = (
{
name = bottom;
position = "{183, 0}";
},
{
name = center;
position = "{176, 400}";
},
{
name = top;
position = "{176, 800}";
},
{
name = topright;
position = "{282, 800}";
}
);
layerId = "77772675-63BC-4C39-8CE0-5446587E214D";
paths = (
{
closed = 1;
nodes = (
"308 0 LINE",
"308 56 LINE",
"126 56 LINE",
"126 800 LINE",
"64 800 LINE",
"64 0 LINE"
);
}
);
width = 344.3075;
},
{
anchors = (
{
name = bottom;
position = "{153, 0}";
},
{
name = center;
position = "{143, 400}";
},
{
name = top;
position = "{143, 800}";
},
{
name = topright;
position = "{250, 800}";
}
);
layerId = "4BC723F9-D357-4E8E-81DA-22F6730CB37E";
paths = (
{
closed = 1;
nodes = (
"252 0 LINE",
"252 42 LINE",
"102 42 LINE",
"102 800 LINE",
"56 800 LINE",
"56 0 LINE"
);
}
);
width = 280.0075;
}
);
leftKerningGroup = H;
rightKerningGroup = L;
unicode = 004C;
},
{
glyphname = Lslash;
lastChange = "2019-08-09 19:33:38 +0000";
layers = (
{
components = (
{
name = L;
transform = "{1, 0, 0, 1, -3, 0}";
}
);
layerId = "3B122060-26E0-4730-9241-82784E6CB359";
paths = (
{
closed = 1;
nodes = (
"20 406 LINE",
"145 445 LINE",
"145 486 LINE",
"20 447 LINE"
);
}
);
width = 326;
},
{
components = (
{
name = L;
transform = "{1, 0, 0, 1, 28, 0}";
}
);
layerId = "1DFA7D5B-2E97-4B89-827F-FB43F8066DC1";
paths = (
{
closed = 1;
nodes = (
"20 356 LINE",
"298 439 LINE",
"298 511 LINE",
"20 428 LINE"
);
}
);
width = 435;
},
{
components = (
{
name = L;
transform = "{1, 0, 0, 1, 28, 0}";
}
);
layerId = "5013C991-8699-46CB-BB1C-82E334DBD38B";
paths = (
{
closed = 1;
nodes = (
"20 356 LINE",
"298 439 LINE",
"298 511 LINE",
"20 428 LINE"
);
}
);
width = 435;
},
{
components = (
{
name = L;
transform = "{1, 0, 0, 1, 3, 0}";
}
);
layerId = "3D06B89B-468F-44E0-A3D7-A5BC6911123E";
paths = (
{
closed = 1;
nodes = (
"20 426 LINE",
"125 465 LINE",
"125 486 LINE",
"20 447 LINE"
);
}
);
width = 252;
},
{
components = (
{
alignment = -1;
name = L;
transform = "{1, 0, 0, 1, 3, 0}";
}
);
layerId = "77772675-63BC-4C39-8CE0-5446587E214D";
paths = (
{
closed = 1;
nodes = (
"20 396 LINE",
"175 444 LINE",
"175 491 LINE",
"20 443 LINE"
);
}
);
width = 347.39125;
},
{
components = (
{
alignment = -1;
name = L;
transform = "{1, 0, 0, 1, 8, 0}";
}
);
layerId = "4BC723F9-D357-4E8E-81DA-22F6730CB37E";
paths = (
{
closed = 1;
nodes = (
"20 412 LINE",
"159 460 LINE",
"159 491 LINE",
"20 443 LINE"
);
}
);
width = 287.91375;
}
);
leftKerningGroup = H;
rightKerningGroup = L;
rightMetricsKey = L;
unicode = 0141;
},
{
glyphname = M;
lastChange = "2019-08-11 19:02:11 +0000";
layers = (
{
anchors = (
{
name = bottom;
position = "{274, 0}";
},
{
name = top;
position = "{274, 800}";
}
);
layerId = "3B122060-26E0-4730-9241-82784E6CB359";
paths = (
{
closed = 1;
nodes = (
"110 0 LINE",
"110 227 LINE",
"110 762 LINE",
"150 762 LINE",
"207 226 LINE",
"230 5 LINE",
"317 5 LINE",
"340 226 LINE",
"397 762 LINE",
"437 762 LINE",
"437 224 LINE",
"437 0 LINE",
"477 0 LINE",
"477 800 LINE",
"361 800 LINE",
"324 459 LINE",
"282 43 LINE",
"265 43 LINE",
"223 459 LINE",
"186 800 LINE",
"70 800 LINE",
"70 0 LINE"
);
}
);
width = 547;
},
{
anchors = (
{
name = bottom;
position = "{413, 0}";
},
{
name = top;
position = "{413, 800}";
}
);
layerId = "1DFA7D5B-2E97-4B89-827F-FB43F8066DC1";
paths = (
{
closed = 1;
nodes = (
"195 0 LINE",
"195 246 LINE",
"167 668 LINE",
"213 668 LINE",
"256 236 LINE",
"317 0 LINE",
"503 0 LINE",
"570 236 LINE",
"612 668 LINE",
"659 668 LINE",
"630 246 LINE",
"630 0 LINE",
"785 0 LINE",
"785 800 LINE",
"515 800 LINE",
"448 497 LINE",
"436 132 LINE",
"390 132 LINE",
"377 497 LINE",
"311 800 LINE",
"40 800 LINE",
"40 0 LINE"
);
}
);
width = 825;
},
{
anchors = (
{
name = bottom;
position = "{373, 0}";
},
{
name = top;
position = "{373, 800}";
}
);
layerId = "5013C991-8699-46CB-BB1C-82E334DBD38B";
paths = (
{
closed = 1;
nodes = (
"190 0 LINE",
"190 246 LINE",
"162 668 LINE",
"188 668 LINE",
"231 236 LINE",
"292 0 LINE",
"453 0 LINE",
"515 236 LINE",
"557 668 LINE",
"584 668 LINE",
"555 246 LINE",
"555 0 LINE",
"705 0 LINE",
"705 800 LINE",
"465 800 LINE",
"398 497 LINE",
"386 132 LINE",
"360 132 LINE",
"347 497 LINE",
"281 800 LINE",
"40 800 LINE",
"40 0 LINE"
);
}
);
width = 745;
},
{
anchors = (
{
name = bottom;
position = "{204, 0}";
},
{
name = top;
position = "{204, 800}";
}
);
layerId = "3D06B89B-468F-44E0-A3D7-A5BC6911123E";
paths = (
{
closed = 1;
nodes = (
"80 0 LINE",
"80 225 LINE",
"80 780 LINE",
"98 780 LINE",
"157 226 LINE",
"179 5 LINE",
"228 5 LINE",
"250 226 LINE",
"309 780 LINE",
"327 780 LINE",
"327 232 LINE",
"327 0 LINE",
"347 0 LINE",
"347 800 LINE",
"291 800 LINE",
"253 459 LINE",
"210 25 LINE",
"197 25 LINE",
"154 459 LINE",
"116 800 LINE",
"60 800 LINE",
"60 0 LINE"
);
}
);
width = 407;
},
{
anchors = (
{
name = bottom;
position = "{308, 0}";
},
{
name = top;
position = "{308, 800}";
}
);
layerId = "77772675-63BC-4C39-8CE0-5446587E214D";
paths = (
{
closed = 1;
nodes = (
"116 0 LINE",
"116 231 LINE",
"117 739 LINE",
"159 739 LINE",
"221 229 LINE",
"249 4 LINE",
"367 4 LINE",
"398 229 LINE",
"460 739 LINE",
"502 739 LINE",
"503 231 LINE",
"503 0 LINE",
"564 0 LINE",
"564 800 LINE",
"400 800 LINE",
"364 469 LINE",
"319 65 LINE",
"300 65 LINE",
"255 469 LINE",
"218 800 LINE",
"55 800 LINE",
"55 0 LINE"
);
}
);
width = 619;
},
{
anchors = (
{
name = bottom;
position = "{247, 0}";
},
{
name = top;
position = "{247, 800}";
}
);
layerId = "4BC723F9-D357-4E8E-81DA-22F6730CB37E";
paths = (
{
closed = 1;
nodes = (
"108 0 LINE",
"108 231 LINE",
"100 752 LINE",
"121 752 LINE",
"180 229 LINE",
"206 4 LINE",
"306 4 LINE",
"332 229 LINE",
"391 752 LINE",
"413 752 LINE",
"404 231 LINE",
"404 0 LINE",
"457 0 LINE",
"457 800 LINE",
"349 800 LINE",
"309 469 LINE",
"265 52 LINE",
"247 52 LINE",
"202 469 LINE",
"163 800 LINE",
"55 800 LINE",
"55 0 LINE"
);
}
);
width = 512;
}
);
leftKerningGroup = H;
rightKerningGroup = H;
unicode = 004D;
},
{
glyphname = N;
lastChange = "2019-08-11 19:01:52 +0000";
layers = (
{
anchors = (
{
name = bottom;
position = "{231, 0}";
},
{
name = top;
position = "{238, 800}";
}
);
layerId = "3B122060-26E0-4730-9241-82784E6CB359";
paths = (
{
closed = 1;
nodes = (
"110 0 LINE",
"110 301 LINE",
"110 762 LINE",
"151 762 LINE",
"216 300 LINE",
"259 0 LINE",
"375 0 LINE",
"375 800 LINE",
"335 800 LINE",
"335 551 LINE",
"335 38 LINE",
"294 38 LINE",
"221 548 LINE",
"185 800 LINE",
"70 800 LINE",
"70 0 LINE"
);
}
);
width = 445;
},
{
anchors = (
{
name = bottom;
position = "{297, 0}";
},
{
name = top;
position = "{297, 800}";
}
);
background = {
paths = (
{
closed = 1;
nodes = (
"211 0 LINE",
"206 307 LINE",
"181 668 LINE",
"209 668 LINE",
"261 291 LINE",
"355 0 LINE",
"594 0 LINE",
"594 800 LINE",
"434 800 LINE",
"439 457 LINE",
"483 132 LINE",
"457 132 LINE",
"372 535 LINE",
"292 800 LINE",
"50 800 LINE",
"50 0 LINE"
);
}
);
};
layerId = "1DFA7D5B-2E97-4B89-827F-FB43F8066DC1";
paths = (
{
closed = 1;
nodes = (
"190 0 LINE",
"177 307 LINE",
"151 669 LINE",
"199 669 LINE",
"240 262 LINE",
"300 0 LINE",
"559 0 LINE",
"559 800 LINE",
"408 800 LINE",
"420 457 LINE",
"448 132 LINE",
"402 132 LINE",
"347 545 LINE",
"287 800 LINE",
"40 800 LINE",
"40 0 LINE"
);
}
);
width = 599;
},
{
anchors = (
{
name = bottom;
position = "{272, 0}";
},
{
name = top;
position = "{272, 800}";
}
);
background = {
paths = (
{
closed = 1;
nodes = (
"186 0 LINE",
"181 307 LINE",
"156 668 LINE",
"184 668 LINE",
"236 291 LINE",
"330 0 LINE",
"569 0 LINE",
"569 800 LINE",
"409 800 LINE",
"414 457 LINE",
"458 132 LINE",
"432 132 LINE",
"347 535 LINE",
"267 800 LINE",
"25 800 LINE",
"25 0 LINE"
);
}
);
};
layerId = "5013C991-8699-46CB-BB1C-82E334DBD38B";
paths = (
{
closed = 1;
nodes = (
"185 0 LINE",
"172 307 LINE",
"146 669 LINE",
"174 669 LINE",
"215 262 LINE",
"275 0 LINE",
"503 0 LINE",
"503 800 LINE",
"358 800 LINE",
"370 457 LINE",
"398 132 LINE",
"372 132 LINE",
"317 545 LINE",
"257 800 LINE",
"40 800 LINE",
"40 0 LINE"
);
}
);
width = 543;
},
{
anchors = (
{
name = bottom;
position = "{161, 0}";
},
{
name = top;
position = "{168, 800}";
}
);
layerId = "3D06B89B-468F-44E0-A3D7-A5BC6911123E";
paths = (
{
closed = 1;
nodes = (
"80 0 LINE",
"80 299 LINE",
"80 780 LINE",
"98 780 LINE",
"166 300 LINE",
"209 0 LINE",
"265 0 LINE",
"265 800 LINE",
"245 800 LINE",
"245 554 LINE",
"245 20 LINE",
"227 20 LINE",
"151 548 LINE",
"115 800 LINE",
"60 800 LINE",
"60 0 LINE"
);
}
);
width = 325;
},
{
anchors = (
{
name = bottom;
position = "{242, 0}";
},
{
name = top;
position = "{247, 800}";
}
);
layerId = "77772675-63BC-4C39-8CE0-5446587E214D";
paths = (
{
closed = 1;
nodes = (
"116 0 LINE",
"112 298 LINE",
"113 739 LINE",
"153 739 LINE",
"222 291 LINE",
"266 0 LINE",
"422 0 LINE",
"422 800 LINE",
"360 800 LINE",
"363 527 LINE",
"364 62 LINE",
"322 62 LINE",
"246 547 LINE",
"210 800 LINE",
"55 800 LINE",
"55 0 LINE"
);
}
);
width = 473;
},
{
anchors = (
{
name = bottom;
position = "{183, 0}";
},
{
name = top;
position = "{188, 800}";
}
);
layerId = "4BC723F9-D357-4E8E-81DA-22F6730CB37E";
paths = (
{
closed = 1;
nodes = (
"100 0 LINE",
"97 298 LINE",
"89 752 LINE",
"114 752 LINE",
"182 291 LINE",
"226 0 LINE",
"329 0 LINE",
"329 800 LINE",
"277 800 LINE",
"280 527 LINE",
"289 48 LINE",
"266 48 LINE",
"190 547 LINE",
"151 800 LINE",
"49 800 LINE",
"49 0 LINE"
);
}
);
width = 380;
}
);
leftKerningGroup = H;
rightKerningGroup = H;
unicode = 004E;
},
{
glyphname = Eng;
lastChange = "2019-08-11 19:06:11 +0000";
layers = (
{
components = (
{
name = N;
}
);
layerId = "3B122060-26E0-4730-9241-82784E6CB359";
paths = (
{
closed = 1;
nodes = (
"351 -202 OFFCURVE",
"375 -164 OFFCURVE",
"375 -98 CURVE SMOOTH",
"375 23 LINE",
"337 23 LINE",
"337 -100 LINE SMOOTH",
"337 -146 OFFCURVE",
"323 -167 OFFCURVE",
"261 -167 CURVE SMOOTH",
"234 -167 OFFCURVE",
"214 -166 OFFCURVE",
"199 -164 CURVE",
"199 -196 LINE",
"217 -200 OFFCURVE",
"247 -202 OFFCURVE",
"263 -202 CURVE SMOOTH"
);
}
);
width = 445;
},
{
components = (
{
name = N;
}
);
layerId = "1DFA7D5B-2E97-4B89-827F-FB43F8066DC1";
paths = (
{
closed = 1;
nodes = (
"487 -211 OFFCURVE",
"559 -160 OFFCURVE",
"559 -33 CURVE SMOOTH",
"559 92 LINE",
"428 92 LINE",
"428 -47 LINE SMOOTH",
"428 -83 OFFCURVE",
"387 -97 OFFCURVE",
"334 -97 CURVE SMOOTH",
"315 -97 OFFCURVE",
"279 -96 OFFCURVE",
"261 -95 CURVE",
"261 -204 LINE",
"285 -208 OFFCURVE",
"311 -211 OFFCURVE",
"334 -211 CURVE SMOOTH"
);
}
);
width = 599;
},
{
components = (
{
name = N;
}
);
layerId = "5013C991-8699-46CB-BB1C-82E334DBD38B";
paths = (
{
closed = 1;
nodes = (
"431 -211 OFFCURVE",
"503 -160 OFFCURVE",
"503 -33 CURVE SMOOTH",
"503 92 LINE",
"372 92 LINE",
"372 -47 LINE SMOOTH",
"372 -83 OFFCURVE",
"331 -97 OFFCURVE",
"278 -97 CURVE SMOOTH",
"259 -97 OFFCURVE",
"223 -96 OFFCURVE",
"205 -95 CURVE",
"205 -204 LINE",
"229 -208 OFFCURVE",
"255 -211 OFFCURVE",
"278 -211 CURVE SMOOTH"
);
}
);
width = 543;
},
{
components = (
{
name = N;
}
);
layerId = "3D06B89B-468F-44E0-A3D7-A5BC6911123E";
paths = (
{
closed = 1;
nodes = (
"244 -200 OFFCURVE",
"265 -174 OFFCURVE",
"265 -110 CURVE SMOOTH",
"265 11 LINE",
"245 11 LINE",
"245 -110 LINE SMOOTH",
"245 -165 OFFCURVE",
"230 -180 OFFCURVE",
"182 -180 CURVE SMOOTH",
"161 -180 OFFCURVE",
"145 -179 OFFCURVE",
"131 -176 CURVE",
"131 -195 LINE",
"144 -198 OFFCURVE",
"169 -200 OFFCURVE",
"184 -200 CURVE SMOOTH"
);
}
);
width = 325;
},
{
components = (
{
alignment = -1;
name = N;
}
);
layerId = "77772675-63BC-4C39-8CE0-5446587E214D";
paths = (
{
closed = 1;
nodes = (
"389 -204 OFFCURVE",
"422 -163 OFFCURVE",
"422 -85 CURVE SMOOTH",
"422 37 LINE",
"366 37 LINE",
"366 -90 LINE SMOOTH",
"366 -134 OFFCURVE",
"347 -153 OFFCURVE",
"286 -153 CURVE SMOOTH",
"261 -153 OFFCURVE",
"238 -152 OFFCURVE",
"222 -150 CURVE",
"222 -198 LINE",
"241 -202 OFFCURVE",
"271 -204 OFFCURVE",
"288 -204 CURVE SMOOTH"
);
}
);
width = 473;
},
{
components = (
{
alignment = -1;
name = N;
}
);
layerId = "4BC723F9-D357-4E8E-81DA-22F6730CB37E";
paths = (
{
closed = 1;
nodes = (
"298 -202 OFFCURVE",
"329 -171 OFFCURVE",
"329 -95 CURVE SMOOTH",
"329 27 LINE",
"287 27 LINE",
"287 -98 LINE SMOOTH",
"287 -149 OFFCURVE",
"267 -164 OFFCURVE",
"218 -164 CURVE SMOOTH",
"197 -164 OFFCURVE",
"177 -163 OFFCURVE",
"163 -160 CURVE",
"163 -197 LINE",
"178 -200 OFFCURVE",
"203 -202 OFFCURVE",
"219 -202 CURVE SMOOTH"
);
}
);
width = 380;
}
);
leftKerningGroup = H;
leftMetricsKey = N;
rightKerningGroup = H;
rightMetricsKey = N;
unicode = 014A;
},
{
glyphname = O;
lastChange = "2019-08-09 19:33:38 +0000";
layers = (
{
anchors = (
{
name = bottom;
position = "{191, 0}";
},
{
name = center;
position = "{191, 400}";
},
{
name = ogonekalt;
position = "{254, 0}";
},
{
name = top;
position = "{191, 800}";
},
{
name = topleft;
position = "{82, 800}";
},
{
name = topright;
position = "{326, 800}";
}
);
background = {
paths = (
{
closed = 1;
nodes = (
"235 -10 OFFCURVE",
"280 35 OFFCURVE",
"280 90 CURVE SMOOTH",
"280 710 LINE SMOOTH",
"280 765 OFFCURVE",
"235 810 OFFCURVE",
"180 810 CURVE SMOOTH",
"125 810 OFFCURVE",
"80 765 OFFCURVE",
"80 710 CURVE SMOOTH",
"80 90 LINE SMOOTH",
"80 35 OFFCURVE",
"125 -10 OFFCURVE",
"180 -10 CURVE SMOOTH"
);
},
{
closed = 1;
nodes = (
"136 10 OFFCURVE",
"100 46 OFFCURVE",
"100 90 CURVE SMOOTH",
"100 710 LINE SMOOTH",
"100 754 OFFCURVE",
"136 790 OFFCURVE",
"180 790 CURVE SMOOTH",
"224 790 OFFCURVE",
"260 754 OFFCURVE",
"260 710 CURVE SMOOTH",
"260 90 LINE SMOOTH",
"260 46 OFFCURVE",
"224 10 OFFCURVE",
"180 10 CURVE SMOOTH"
);
}
);
};
layerId = "3B122060-26E0-4730-9241-82784E6CB359";
paths = (
{
closed = 1;
nodes = (
"274 -5 OFFCURVE",
"308 26 OFFCURVE",
"309 105 CURVE SMOOTH",
"312 335 OFFCURVE",
"312 474 OFFCURVE",
"309 694 CURVE SMOOTH",
"308 773 OFFCURVE",
"274 805 OFFCURVE",
"191 805 CURVE SMOOTH",
"108 805 OFFCURVE",
"74 773 OFFCURVE",
"73 694 CURVE SMOOTH",
"70 474 OFFCURVE",
"70 335 OFFCURVE",
"73 105 CURVE SMOOTH",
"74 26 OFFCURVE",
"108 -5 OFFCURVE",
"191 -5 CURVE SMOOTH"
);
},
{
closed = 1;
nodes = (
"131 33 OFFCURVE",
"114 48 OFFCURVE",
"113 105 CURVE SMOOTH",
"109 351 OFFCURVE",
"109 461 OFFCURVE",
"113 694 CURVE SMOOTH",
"114 751 OFFCURVE",
"131 767 OFFCURVE",
"191 767 CURVE SMOOTH",
"251 767 OFFCURVE",
"268 751 OFFCURVE",
"269 694 CURVE SMOOTH",
"273 454 OFFCURVE",
"273 344 OFFCURVE",
"269 105 CURVE SMOOTH",
"268 48 OFFCURVE",
"251 33 OFFCURVE",
"191 33 CURVE SMOOTH"
);
}
);
width = 380;
},
{
anchors = (
{
name = bottom;
position = "{264, 0}";
},
{
name = center;
position = "{264, 400}";
},
{
name = ogonekalt;
position = "{392, 3}";
},
{
name = top;
position = "{264, 800}";
},
{
name = topleft;
position = "{30, 800}";
},
{
name = topright;
position = "{497, 800}";
}
);
background = {
paths = (
{
closed = 1;
nodes = (
"260 -5 OFFCURVE",
"327 54 OFFCURVE",
"327 127 CURVE SMOOTH",
"327 675 LINE SMOOTH",
"327 746 OFFCURVE",
"260 805 OFFCURVE",
"170 805 CURVE SMOOTH",
"81 805 OFFCURVE",
"14 746 OFFCURVE",
"14 675 CURVE SMOOTH",
"14 127 LINE SMOOTH",
"14 54 OFFCURVE",
"81 -5 OFFCURVE",
"170 -5 CURVE SMOOTH"
);
},
{
closed = 1;
nodes = (
"144 102 OFFCURVE",
"124 118 OFFCURVE",
"124 140 CURVE SMOOTH",
"124 661 LINE SMOOTH",
"124 682 OFFCURVE",
"144 698 OFFCURVE",
"170 698 CURVE SMOOTH",
"197 698 OFFCURVE",
"217 682 OFFCURVE",
"217 661 CURVE SMOOTH",
"217 140 LINE SMOOTH",
"217 118 OFFCURVE",
"197 102 OFFCURVE",
"170 102 CURVE SMOOTH"
);
}
);
};
layerId = "1DFA7D5B-2E97-4B89-827F-FB43F8066DC1";
paths = (
{
closed = 1;
nodes = (
"415 -10 OFFCURVE",
"478 47 OFFCURVE",
"483 191 CURVE SMOOTH",
"489 340 OFFCURVE",
"489 459 OFFCURVE",
"483 610 CURVE SMOOTH",
"478 753 OFFCURVE",
"415 810 OFFCURVE",
"263 810 CURVE SMOOTH",
"108 810 OFFCURVE",
"45 753 OFFCURVE",
"42 610 CURVE SMOOTH",
"39 460 OFFCURVE",
"39 341 OFFCURVE",
"42 191 CURVE SMOOTH",
"45 47 OFFCURVE",
"108 -10 OFFCURVE",
"263 -10 CURVE SMOOTH"
);
},
{
closed = 1;
nodes = (
"214 112 OFFCURVE",
"193 132 OFFCURVE",
"192 183 CURVE SMOOTH",
"185 329 OFFCURVE",
"185 472 OFFCURVE",
"192 618 CURVE SMOOTH",
"193 668 OFFCURVE",
"214 688 OFFCURVE",
"263 688 CURVE SMOOTH",
"312 688 OFFCURVE",
"332 668 OFFCURVE",
"333 618 CURVE SMOOTH",
"340 472 OFFCURVE",
"340 329 OFFCURVE",
"333 183 CURVE SMOOTH",
"332 132 OFFCURVE",
"312 112 OFFCURVE",
"263 112 CURVE SMOOTH"
);
}
);
width = 527;
},
{
anchors = (
{
name = bottom;
position = "{254, 0}";
},
{
name = center;
position = "{254, 400}";
},
{
name = ogonekalt;
position = "{382, 3}";
},
{
name = top;
position = "{254, 800}";
},
{
name = topleft;
position = "{20, 800}";
},
{
name = topright;
position = "{487, 800}";
}
);
background = {
paths = (
{
closed = 1;
nodes = (
"250 -5 OFFCURVE",
"317 54 OFFCURVE",
"317 127 CURVE SMOOTH",
"317 675 LINE SMOOTH",
"317 746 OFFCURVE",
"250 805 OFFCURVE",
"160 805 CURVE SMOOTH",
"71 805 OFFCURVE",
"4 746 OFFCURVE",
"4 675 CURVE SMOOTH",
"4 127 LINE SMOOTH",
"4 54 OFFCURVE",
"71 -5 OFFCURVE",
"160 -5 CURVE SMOOTH"
);
},
{
closed = 1;
nodes = (
"134 102 OFFCURVE",
"114 118 OFFCURVE",
"114 140 CURVE SMOOTH",
"114 661 LINE SMOOTH",
"114 682 OFFCURVE",
"134 698 OFFCURVE",
"160 698 CURVE SMOOTH",
"187 698 OFFCURVE",
"207 682 OFFCURVE",
"207 661 CURVE SMOOTH",
"207 140 LINE SMOOTH",
"207 118 OFFCURVE",
"187 102 OFFCURVE",
"160 102 CURVE SMOOTH"
);
}
);
};
layerId = "5013C991-8699-46CB-BB1C-82E334DBD38B";
paths = (
{
closed = 1;
nodes = (
"400 -10 OFFCURVE",
"458 47 OFFCURVE",
"463 191 CURVE SMOOTH",
"468 322 OFFCURVE",
"468 477 OFFCURVE",
"463 610 CURVE SMOOTH",
"458 753 OFFCURVE",
"400 810 OFFCURVE",
"253 810 CURVE SMOOTH",
"106 810 OFFCURVE",
"45 753 OFFCURVE",
"42 610 CURVE SMOOTH",
"39 479 OFFCURVE",
"39 322 OFFCURVE",
"42 191 CURVE SMOOTH",
"45 47 OFFCURVE",
"106 -10 OFFCURVE",
"253 -10 CURVE SMOOTH"
);
},
{
closed = 1;
nodes = (
"215 112 OFFCURVE",
"193 130 OFFCURVE",
"192 163 CURVE SMOOTH",
"186 299 OFFCURVE",
"186 502 OFFCURVE",
"192 638 CURVE SMOOTH",
"193 670 OFFCURVE",
"215 688 OFFCURVE",
"253 688 CURVE SMOOTH",
"291 688 OFFCURVE",
"312 670 OFFCURVE",
"313 638 CURVE SMOOTH",
"319 502 OFFCURVE",
"319 299 OFFCURVE",
"313 163 CURVE SMOOTH",
"312 130 OFFCURVE",
"292 112 OFFCURVE",
"253 112 CURVE SMOOTH"
);
}
);
width = 507;
},
{
anchors = (
{
name = bottom;
position = "{151, 0}";
},
{
name = center;
position = "{151, 400}";
},
{
name = ogonekalt;
position = "{214, 0}";
},
{
name = top;
position = "{151, 800}";
},
{
name = topleft;
position = "{42, 800}";
},
{
name = topright;
position = "{260, 800}";
}
);
background = {
paths = (
{
closed = 1;
nodes = (
"205 -10 OFFCURVE",
"250 35 OFFCURVE",
"250 90 CURVE SMOOTH",
"250 710 LINE SMOOTH",
"250 765 OFFCURVE",
"205 810 OFFCURVE",
"150 810 CURVE SMOOTH",
"95 810 OFFCURVE",
"50 765 OFFCURVE",
"50 710 CURVE SMOOTH",
"50 90 LINE SMOOTH",
"50 35 OFFCURVE",
"95 -10 OFFCURVE",
"150 -10 CURVE SMOOTH"
);
},
{
closed = 1;
nodes = (
"106 10 OFFCURVE",
"70 46 OFFCURVE",
"70 90 CURVE SMOOTH",
"70 710 LINE SMOOTH",
"70 754 OFFCURVE",
"106 790 OFFCURVE",
"150 790 CURVE SMOOTH",
"194 790 OFFCURVE",
"230 754 OFFCURVE",
"230 710 CURVE SMOOTH",
"230 90 LINE SMOOTH",
"230 46 OFFCURVE",
"194 10 OFFCURVE",
"150 10 CURVE SMOOTH"
);
}
);
};
layerId = "3D06B89B-468F-44E0-A3D7-A5BC6911123E";
paths = (
{
closed = 1;
nodes = (
"214 -5 OFFCURVE",
"239 21 OFFCURVE",
"239 85 CURVE SMOOTH",
"241 310 OFFCURVE",
"241 489 OFFCURVE",
"239 714 CURVE SMOOTH",
"239 779 OFFCURVE",
"214 805 OFFCURVE",
"151 805 CURVE SMOOTH",
"88 805 OFFCURVE",
"64 779 OFFCURVE",
"63 714 CURVE SMOOTH",
"59 489 OFFCURVE",
"59 310 OFFCURVE",
"63 85 CURVE SMOOTH",
"64 21 OFFCURVE",
"88 -5 OFFCURVE",
"151 -5 CURVE SMOOTH"
);
},
{
closed = 1;
nodes = (
"101 15 OFFCURVE",
"84 32 OFFCURVE",
"83 85 CURVE SMOOTH",
"79 314 OFFCURVE",
"78 494 OFFCURVE",
"83 714 CURVE SMOOTH",
"84 768 OFFCURVE",
"101 785 OFFCURVE",
"151 785 CURVE SMOOTH",
"201 785 OFFCURVE",
"218 768 OFFCURVE",
"219 714 CURVE SMOOTH",
"222 494 OFFCURVE",
"224 314 OFFCURVE",
"219 85 CURVE SMOOTH",
"218 32 OFFCURVE",
"201 15 OFFCURVE",
"151 15 CURVE SMOOTH"
);
}
);
width = 300;
},
{
anchors = (
{
name = bottom;
position = "{205, 0}";
},
{
name = center;
position = "{205, 400}";
},
{
name = ogonekalt;
position = "{281, 1}";
},
{
name = top;
position = "{205, 800}";
},
{
name = topleft;
position = "{72, 800}";
},
{
name = topright;
position = "{360, 800}";
}
);
layerId = "77772675-63BC-4C39-8CE0-5446587E214D";
paths = (
{
closed = 1;
nodes = (
"302 -6 OFFCURVE",
"341 30 OFFCURVE",
"343 122 CURVE SMOOTH",
"347 336 OFFCURVE",
"347 471 OFFCURVE",
"343 678 CURVE SMOOTH",
"341 769 OFFCURVE",
"302 806 OFFCURVE",
"205 806 CURVE SMOOTH",
"108 806 OFFCURVE",
"68 769 OFFCURVE",
"67 678 CURVE SMOOTH",
"64 471 OFFCURVE",
"64 336 OFFCURVE",
"67 122 CURVE SMOOTH",
"68 30 OFFCURVE",
"108 -6 OFFCURVE",
"205 -6 CURVE SMOOTH"
);
},
{
closed = 1;
nodes = (
"147 49 OFFCURVE",
"130 64 OFFCURVE",
"129 120 CURVE SMOOTH",
"124 347 OFFCURVE",
"124 463 OFFCURVE",
"129 679 CURVE SMOOTH",
"130 735 OFFCURVE",
"147 751 OFFCURVE",
"205 751 CURVE SMOOTH",
"263 751 OFFCURVE",
"281 735 OFFCURVE",
"282 679 CURVE SMOOTH",
"286 458 OFFCURVE",
"286 341 OFFCURVE",
"282 120 CURVE SMOOTH",
"281 64 OFFCURVE",
"263 49 OFFCURVE",
"205 49 CURVE SMOOTH"
);
}
);
width = 408.84875;
},
{
anchors = (
{
name = bottom;
position = "{171, 0}";
},
{
name = center;
position = "{171, 400}";
},
{
name = ogonekalt;
position = "{247, 1}";
},
{
name = top;
position = "{171, 800}";
},
{
name = topleft;
position = "{38, 800}";
},
{
name = topright;
position = "{305, 800}";
}
);
layerId = "4BC723F9-D357-4E8E-81DA-22F6730CB37E";
paths = (
{
closed = 1;
nodes = (
"251 -6 OFFCURVE",
"282 26 OFFCURVE",
"283 106 CURVE SMOOTH",
"286 312 OFFCURVE",
"286 487 OFFCURVE",
"283 694 CURVE SMOOTH",
"282 774 OFFCURVE",
"251 806 OFFCURVE",
"171 806 CURVE SMOOTH",
"92 806 OFFCURVE",
"60 774 OFFCURVE",
"59 694 CURVE SMOOTH",
"55 487 OFFCURVE",
"55 312 OFFCURVE",
"59 106 CURVE SMOOTH",
"60 26 OFFCURVE",
"92 -6 OFFCURVE",
"171 -6 CURVE SMOOTH"
);
},
{
closed = 1;
nodes = (
"123 34 OFFCURVE",
"105 51 OFFCURVE",
"104 100 CURVE SMOOTH",
"100 311 OFFCURVE",
"99 496 OFFCURVE",
"104 699 CURVE SMOOTH",
"105 749 OFFCURVE",
"123 766 OFFCURVE",
"171 766 CURVE SMOOTH",
"219 766 OFFCURVE",
"236 749 OFFCURVE",
"237 699 CURVE SMOOTH",
"241 496 OFFCURVE",
"243 311 OFFCURVE",
"237 100 CURVE SMOOTH",
"236 51 OFFCURVE",
"219 34 OFFCURVE",
"171 34 CURVE SMOOTH"
);
}
);
width = 340.62375;
}
);
leftKerningGroup = O;
rightKerningGroup = O;
unicode = 004F;
},
{
glyphname = Oslash;
lastChange = "2019-08-10 15:04:31 +0000";
layers = (
{
components = (
{
name = O;
}
);
layerId = "3B122060-26E0-4730-9241-82784E6CB359";
paths = (
{
closed = 1;
nodes = (
"143 17 LINE",
"272 778 LINE",
"235 778 LINE",
"106 21 LINE"
);
}
);
width = 380;
},
{
components = (
{
name = O;
}
);
layerId = "1DFA7D5B-2E97-4B89-827F-FB43F8066DC1";
paths = (
{
closed = 1;
nodes = (
"203 88 LINE",
"428 663 LINE",
"321 690 LINE",
"96 114 LINE"
);
}
);
width = 527;
},
{
components = (
{
name = O;
}
);
layerId = "5013C991-8699-46CB-BB1C-82E334DBD38B";
paths = (
{
closed = 1;
nodes = (
"195 88 LINE",
"420 663 LINE",
"321 690 LINE",
"96 114 LINE"
);
}
);
width = 507;
},
{
components = (
{
name = O;
}
);
layerId = "3D06B89B-468F-44E0-A3D7-A5BC6911123E";
paths = (
{
closed = 1;
nodes = (
"101 17 LINE",
"219 776 LINE",
"200 780 LINE",
"82 21 LINE"
);
}
);
width = 300;
},
{
components = (
{
alignment = -1;
name = O;
}
);
layerId = "77772675-63BC-4C39-8CE0-5446587E214D";
paths = (
{
closed = 1;
nodes = (
"167 20 LINE",
"281 768 LINE",
"224 775 LINE",
"110 29 LINE"
);
}
);
width = 409.045;
},
{
components = (
{
alignment = -1;
name = O;
}
);
layerId = "4BC723F9-D357-4E8E-81DA-22F6730CB37E";
paths = (
{
closed = 1;
nodes = (
"144 24 LINE",
"252 763 LINE",
"204 773 LINE",
"96 33 LINE"
);
}
);
width = 340;
}
);
leftKerningGroup = O;
leftMetricsKey = O;
rightKerningGroup = O;
rightMetricsKey = O;
unicode = 00D8;
},
{
glyphname = P;
lastChange = "2019-08-09 19:33:38 +0000";
layers = (
{
layerId = "3B122060-26E0-4730-9241-82784E6CB359";
paths = (
{
closed = 1;
nodes = (
"110 0 LINE",
"110 345 LINE",
"181 345 LINE SMOOTH",
"254 345 OFFCURVE",
"285 372 OFFCURVE",
"288 438 CURVE SMOOTH",
"292 522 OFFCURVE",
"291 599 OFFCURVE",
"288 707 CURVE SMOOTH",
"286 773 OFFCURVE",
"255 800 OFFCURVE",
"182 800 CURVE SMOOTH",
"70 800 LINE",
"70 0 LINE"
);
},
{
closed = 1;
nodes = (
"110 762 LINE",
"182 762 LINE SMOOTH",
"232 762 OFFCURVE",
"247 750 OFFCURVE",
"248 707 CURVE SMOOTH",
"252 589 OFFCURVE",
"252 531 OFFCURVE",
"248 438 CURVE SMOOTH",
"246 395 OFFCURVE",
"233 383 OFFCURVE",
"181 383 CURVE SMOOTH",
"110 383 LINE"
);
}
);
width = 331;
},
{
layerId = "1DFA7D5B-2E97-4B89-827F-FB43F8066DC1";
paths = (
{
closed = 1;
nodes = (
"190 0 LINE",
"190 254 LINE",
"253 254 LINE SMOOTH",
"402 254 OFFCURVE",
"463 310 OFFCURVE",
"468 449 CURVE SMOOTH",
"470 505 OFFCURVE",
"470 549 OFFCURVE",
"468 605 CURVE SMOOTH",
"463 744 OFFCURVE",
"402 800 OFFCURVE",
"253 800 CURVE SMOOTH",
"40 800 LINE",
"40 0 LINE"
);
},
{
closed = 1;
nodes = (
"190 668 LINE",
"253 668 LINE SMOOTH",
"295 668 OFFCURVE",
"316 648 OFFCURVE",
"318 613 CURVE SMOOTH",
"321 564 OFFCURVE",
"321 490 OFFCURVE",
"318 441 CURVE SMOOTH",
"316 406 OFFCURVE",
"295 386 OFFCURVE",
"253 386 CURVE SMOOTH",
"190 386 LINE"
);
}
);
width = 490;
},
{
layerId = "5013C991-8699-46CB-BB1C-82E334DBD38B";
paths = (
{
closed = 1;
nodes = (
"190 0 LINE",
"190 254 LINE",
"233 254 LINE SMOOTH",
"382 254 OFFCURVE",
"443 310 OFFCURVE",
"448 449 CURVE SMOOTH",
"450 505 OFFCURVE",
"450 549 OFFCURVE",
"448 605 CURVE SMOOTH",
"443 744 OFFCURVE",
"382 800 OFFCURVE",
"233 800 CURVE SMOOTH",
"40 800 LINE",
"40 0 LINE"
);
},
{
closed = 1;
nodes = (
"190 668 LINE",
"233 668 LINE SMOOTH",
"275 668 OFFCURVE",
"296 648 OFFCURVE",
"298 613 CURVE SMOOTH",
"301 564 OFFCURVE",
"301 490 OFFCURVE",
"298 441 CURVE SMOOTH",
"296 406 OFFCURVE",
"275 386 OFFCURVE",
"233 386 CURVE SMOOTH",
"190 386 LINE"
);
}
);
width = 469;
},
{
layerId = "3D06B89B-468F-44E0-A3D7-A5BC6911123E";
paths = (
{
closed = 1;
nodes = (
"80 0 LINE",
"80 345 LINE",
"141 345 LINE SMOOTH",
"200 345 OFFCURVE",
"225 372 OFFCURVE",
"228 438 CURVE SMOOTH",
"232 522 OFFCURVE",
"232 599 OFFCURVE",
"228 707 CURVE SMOOTH",
"225 773 OFFCURVE",
"200 800 OFFCURVE",
"142 800 CURVE SMOOTH",
"60 800 LINE",
"60 0 LINE"
);
},
{
closed = 1;
nodes = (
"80 780 LINE",
"142 780 LINE SMOOTH",
"188 780 OFFCURVE",
"206 759 OFFCURVE",
"208 707 CURVE SMOOTH",
"211 611 OFFCURVE",
"211 534 OFFCURVE",
"208 438 CURVE SMOOTH",
"206 386 OFFCURVE",
"188 365 OFFCURVE",
"141 365 CURVE SMOOTH",
"80 365 LINE"
);
}
);
width = 261;
},
{
layerId = "77772675-63BC-4C39-8CE0-5446587E214D";
paths = (
{
closed = 1;
nodes = (
"126 0 LINE",
"126 327 LINE",
"195 327 LINE SMOOTH",
"283 327 OFFCURVE",
"320 360 OFFCURVE",
"323 440 CURVE SMOOTH",
"327 519 OFFCURVE",
"326 589 OFFCURVE",
"323 687 CURVE SMOOTH",
"321 767 OFFCURVE",
"284 800 OFFCURVE",
"196 800 CURVE SMOOTH",
"64 800 LINE",
"64 0 LINE"
);
},
{
closed = 1;
nodes = (
"126 744 LINE",
"196 744 LINE SMOOTH",
"244 744 OFFCURVE",
"261 730 OFFCURVE",
"262 689 CURVE SMOOTH",
"266 584 OFFCURVE",
"266 523 OFFCURVE",
"262 439 CURVE SMOOTH",
"260 397 OFFCURVE",
"245 384 OFFCURVE",
"195 384 CURVE SMOOTH",
"126 384 LINE"
);
}
);
width = 362.20375;
},
{
layerId = "4BC723F9-D357-4E8E-81DA-22F6730CB37E";
paths = (
{
closed = 1;
nodes = (
"102 0 LINE",
"102 327 LINE",
"159 327 LINE SMOOTH",
"236 327 OFFCURVE",
"268 360 OFFCURVE",
"271 440 CURVE SMOOTH",
"275 519 OFFCURVE",
"275 589 OFFCURVE",
"271 687 CURVE SMOOTH",
"268 767 OFFCURVE",
"236 800 OFFCURVE",
"160 800 CURVE SMOOTH",
"56 800 LINE",
"56 0 LINE"
);
},
{
closed = 1;
nodes = (
"102 758 LINE",
"160 758 LINE SMOOTH",
"205 758 OFFCURVE",
"224 737 OFFCURVE",
"226 689 CURVE SMOOTH",
"229 602 OFFCURVE",
"229 525 OFFCURVE",
"226 439 CURVE SMOOTH",
"224 390 OFFCURVE",
"205 369 OFFCURVE",
"159 369 CURVE SMOOTH",
"102 369 LINE"
);
}
);
width = 301.82;
}
);
leftKerningGroup = H;
rightKerningGroup = P;
unicode = 0050;
},
{
glyphname = Thorn;
lastChange = "2019-08-09 19:33:38 +0000";
layers = (
{
layerId = "3B122060-26E0-4730-9241-82784E6CB359";
paths = (
{
closed = 1;
nodes = (
"100 0 LINE",
"100 185 LINE",
"161 185 LINE SMOOTH",
"234 185 OFFCURVE",
"265 212 OFFCURVE",
"268 278 CURVE SMOOTH",
"272 362 OFFCURVE",
"271 439 OFFCURVE",
"268 547 CURVE SMOOTH",
"266 613 OFFCURVE",
"235 640 OFFCURVE",
"162 640 CURVE SMOOTH",
"100 640 LINE",
"100 800 LINE",
"60 800 LINE",
"60 0 LINE"
);
},
{
closed = 1;
nodes = (
"100 602 LINE",
"162 602 LINE SMOOTH",
"212 602 OFFCURVE",
"226 589 OFFCURVE",
"228 547 CURVE SMOOTH",
"233 441 OFFCURVE",
"231 384 OFFCURVE",
"228 278 CURVE SMOOTH",
"227 236 OFFCURVE",
"212 223 OFFCURVE",
"161 223 CURVE SMOOTH",
"100 223 LINE"
);
}
);
width = 301;
},
{
layerId = "1DFA7D5B-2E97-4B89-827F-FB43F8066DC1";
paths = (
{
closed = 1;
nodes = (
"190 0 LINE",
"190 134 LINE",
"253 134 LINE SMOOTH",
"402 134 OFFCURVE",
"463 190 OFFCURVE",
"468 329 CURVE SMOOTH",
"470 385 OFFCURVE",
"470 429 OFFCURVE",
"468 485 CURVE SMOOTH",
"463 624 OFFCURVE",
"402 680 OFFCURVE",
"253 680 CURVE SMOOTH",
"190 680 LINE",
"190 800 LINE",
"40 800 LINE",
"40 0 LINE"
);
},
{
closed = 1;
nodes = (
"190 548 LINE",
"253 548 LINE SMOOTH",
"295 548 OFFCURVE",
"316 528 OFFCURVE",
"318 493 CURVE SMOOTH",
"321 444 OFFCURVE",
"321 370 OFFCURVE",
"318 321 CURVE SMOOTH",
"316 286 OFFCURVE",
"295 266 OFFCURVE",
"253 266 CURVE SMOOTH",
"190 266 LINE"
);
}
);
width = 490;
},
{
layerId = "5013C991-8699-46CB-BB1C-82E334DBD38B";
paths = (
{
closed = 1;
nodes = (
"190 0 LINE",
"190 134 LINE",
"233 134 LINE SMOOTH",
"382 134 OFFCURVE",
"443 190 OFFCURVE",
"448 329 CURVE SMOOTH",
"450 385 OFFCURVE",
"450 429 OFFCURVE",
"448 485 CURVE SMOOTH",
"443 624 OFFCURVE",
"382 680 OFFCURVE",
"233 680 CURVE SMOOTH",
"190 680 LINE",
"190 800 LINE",
"40 800 LINE",
"40 0 LINE"
);
},
{
closed = 1;
nodes = (
"190 548 LINE",
"233 548 LINE SMOOTH",
"275 548 OFFCURVE",
"296 528 OFFCURVE",
"298 493 CURVE SMOOTH",
"301 444 OFFCURVE",
"301 370 OFFCURVE",
"298 321 CURVE SMOOTH",
"296 286 OFFCURVE",
"275 266 OFFCURVE",
"233 266 CURVE SMOOTH",
"190 266 LINE"
);
}
);
width = 469;
},
{
layerId = "3D06B89B-468F-44E0-A3D7-A5BC6911123E";
paths = (
{
closed = 1;
nodes = (
"80 0 LINE",
"80 185 LINE",
"141 185 LINE SMOOTH",
"200 185 OFFCURVE",
"225 212 OFFCURVE",
"228 278 CURVE SMOOTH",
"232 362 OFFCURVE",
"231 439 OFFCURVE",
"228 547 CURVE SMOOTH",
"226 613 OFFCURVE",
"200 640 OFFCURVE",
"142 640 CURVE SMOOTH",
"80 640 LINE",
"80 800 LINE",
"60 800 LINE",
"60 0 LINE"
);
},
{
closed = 1;
nodes = (
"80 620 LINE",
"142 620 LINE SMOOTH",
"188 620 OFFCURVE",
"206 599 OFFCURVE",
"208 547 CURVE SMOOTH",
"212 451 OFFCURVE",
"212 374 OFFCURVE",
"208 278 CURVE SMOOTH",
"206 226 OFFCURVE",
"188 205 OFFCURVE",
"141 205 CURVE SMOOTH",
"80 205 LINE"
);
}
);
width = 261;
},
{
layerId = "77772675-63BC-4C39-8CE0-5446587E214D";
paths = (
{
closed = 1;
nodes = (
"118 0 LINE",
"118 175 LINE",
"179 175 LINE SMOOTH",
"267 175 OFFCURVE",
"304 208 OFFCURVE",
"307 288 CURVE SMOOTH",
"311 367 OFFCURVE",
"310 437 OFFCURVE",
"307 535 CURVE SMOOTH",
"305 615 OFFCURVE",
"268 648 OFFCURVE",
"180 648 CURVE SMOOTH",
"118 648 LINE",
"118 800 LINE",
"56 800 LINE",
"56 0 LINE"
);
},
{
closed = 1;
nodes = (
"118 591 LINE",
"180 591 LINE SMOOTH",
"228 591 OFFCURVE",
"244 577 OFFCURVE",
"246 536 CURVE SMOOTH",
"250 442 OFFCURVE",
"249 381 OFFCURVE",
"246 286 CURVE SMOOTH",
"244 246 OFFCURVE",
"228 231 OFFCURVE",
"179 231 CURVE SMOOTH",
"118 231 LINE"
);
}
);
width = 338.09125;
},
{
layerId = "4BC723F9-D357-4E8E-81DA-22F6730CB37E";
paths = (
{
closed = 1;
nodes = (
"102 0 LINE",
"102 175 LINE",
"159 175 LINE SMOOTH",
"236 175 OFFCURVE",
"268 208 OFFCURVE",
"271 288 CURVE SMOOTH",
"275 367 OFFCURVE",
"274 437 OFFCURVE",
"271 535 CURVE SMOOTH",
"269 615 OFFCURVE",
"236 648 OFFCURVE",
"160 648 CURVE SMOOTH",
"102 648 LINE",
"102 800 LINE",
"56 800 LINE",
"56 0 LINE"
);
},
{
closed = 1;
nodes = (
"102 606 LINE",
"160 606 LINE SMOOTH",
"205 606 OFFCURVE",
"224 585 OFFCURVE",
"226 536 CURVE SMOOTH",
"229 450 OFFCURVE",
"229 373 OFFCURVE",
"226 286 CURVE SMOOTH",
"224 238 OFFCURVE",
"205 217 OFFCURVE",
"159 217 CURVE SMOOTH",
"102 217 LINE"
);
}
);
width = 301.82;
}
);
leftKerningGroup = H;
rightKerningGroup = P;
unicode = 00DE;
},
{
glyphname = Q;
lastChange = "2019-08-09 19:33:38 +0000";
layers = (
{
background = {
paths = (
{
closed = 1;
nodes = (
"204 -5 OFFCURVE",
"229 21 OFFCURVE",
"229 85 CURVE SMOOTH",
"231 310 OFFCURVE",
"231 489 OFFCURVE",
"229 714 CURVE SMOOTH",
"229 779 OFFCURVE",
"204 805 OFFCURVE",
"141 805 CURVE SMOOTH",
"78 805 OFFCURVE",
"53 779 OFFCURVE",
"53 714 CURVE SMOOTH",
"51 489 OFFCURVE",
"51 310 OFFCURVE",
"53 85 CURVE SMOOTH",
"53 21 OFFCURVE",
"78 -5 OFFCURVE",
"141 -5 CURVE SMOOTH"
);
},
{
closed = 1;
nodes = (
"94 15 OFFCURVE",
"74 35 OFFCURVE",
"73 85 CURVE SMOOTH",
"70 310 OFFCURVE",
"70 489 OFFCURVE",
"73 714 CURVE SMOOTH",
"74 765 OFFCURVE",
"94 785 OFFCURVE",
"141 785 CURVE SMOOTH",
"188 785 OFFCURVE",
"208 765 OFFCURVE",
"209 714 CURVE SMOOTH",
"212 489 OFFCURVE",
"212 310 OFFCURVE",
"209 85 CURVE SMOOTH",
"208 35 OFFCURVE",
"188 15 OFFCURVE",
"141 15 CURVE SMOOTH"
);
}
);
};
layerId = "3B122060-26E0-4730-9241-82784E6CB359";
paths = (
{
closed = 1;
nodes = (
"254 -51 LINE",
"229 -53 OFFCURVE",
"222 -43 OFFCURVE",
"221 -3 CURVE",
"282 4 OFFCURVE",
"308 36 OFFCURVE",
"309 105 CURVE SMOOTH",
"312 335 OFFCURVE",
"312 474 OFFCURVE",
"309 694 CURVE SMOOTH",
"308 773 OFFCURVE",
"274 805 OFFCURVE",
"191 805 CURVE SMOOTH",
"108 805 OFFCURVE",
"74 773 OFFCURVE",
"73 694 CURVE SMOOTH",
"70 474 OFFCURVE",
"70 335 OFFCURVE",
"73 105 CURVE SMOOTH",
"74 29 OFFCURVE",
"105 -2 OFFCURVE",
"181 -5 CURVE",
"182 -66 OFFCURVE",
"204 -90 OFFCURVE",
"254 -87 CURVE"
);
},
{
closed = 1;
nodes = (
"131 33 OFFCURVE",
"114 48 OFFCURVE",
"113 105 CURVE SMOOTH",
"109 351 OFFCURVE",
"109 461 OFFCURVE",
"113 694 CURVE SMOOTH",
"114 751 OFFCURVE",
"131 767 OFFCURVE",
"191 767 CURVE SMOOTH",
"251 767 OFFCURVE",
"268 751 OFFCURVE",
"269 694 CURVE SMOOTH",
"273 454 OFFCURVE",
"273 344 OFFCURVE",
"269 105 CURVE SMOOTH",
"268 48 OFFCURVE",
"251 33 OFFCURVE",
"191 33 CURVE SMOOTH"
);
}
);
width = 381;
},
{
background = {
paths = (
{
closed = 1;
nodes = (
"390 -10 OFFCURVE",
"450 47 OFFCURVE",
"453 191 CURVE SMOOTH",
"456 340 OFFCURVE",
"456 459 OFFCURVE",
"453 610 CURVE SMOOTH",
"450 753 OFFCURVE",
"390 810 OFFCURVE",
"243 810 CURVE SMOOTH",
"96 810 OFFCURVE",
"35 753 OFFCURVE",
"32 610 CURVE SMOOTH",
"29 460 OFFCURVE",
"29 341 OFFCURVE",
"32 191 CURVE SMOOTH",
"35 47 OFFCURVE",
"96 -10 OFFCURVE",
"243 -10 CURVE SMOOTH"
);
},
{
closed = 1;
nodes = (
"205 112 OFFCURVE",
"183 130 OFFCURVE",
"182 163 CURVE SMOOTH",
"176 299 OFFCURVE",
"176 502 OFFCURVE",
"182 638 CURVE SMOOTH",
"183 670 OFFCURVE",
"205 688 OFFCURVE",
"243 688 CURVE SMOOTH",
"282 688 OFFCURVE",
"302 670 OFFCURVE",
"303 638 CURVE SMOOTH",
"306 502 OFFCURVE",
"306 299 OFFCURVE",
"303 163 CURVE SMOOTH",
"302 130 OFFCURVE",
"282 112 OFFCURVE",
"243 112 CURVE SMOOTH"
);
}
);
};
layerId = "1DFA7D5B-2E97-4B89-827F-FB43F8066DC1";
paths = (
{
closed = 1;
nodes = (
"452 -44 LINE",
"407 -50 OFFCURVE",
"384 -31 OFFCURVE",
"387 10 CURVE",
"451 38 OFFCURVE",
"480 95 OFFCURVE",
"483 191 CURVE SMOOTH",
"489 340 OFFCURVE",
"489 459 OFFCURVE",
"483 610 CURVE SMOOTH",
"478 753 OFFCURVE",
"415 810 OFFCURVE",
"263 810 CURVE SMOOTH",
"108 810 OFFCURVE",
"45 753 OFFCURVE",
"42 610 CURVE SMOOTH",
"39 460 OFFCURVE",
"39 341 OFFCURVE",
"42 191 CURVE SMOOTH",
"45 53 OFFCURVE",
"103 -5 OFFCURVE",
"244 -10 CURVE",
"259 -129 OFFCURVE",
"321 -174 OFFCURVE",
"452 -164 CURVE"
);
},
{
closed = 1;
nodes = (
"214 112 OFFCURVE",
"193 132 OFFCURVE",
"192 183 CURVE SMOOTH",
"185 329 OFFCURVE",
"185 472 OFFCURVE",
"192 618 CURVE SMOOTH",
"193 668 OFFCURVE",
"214 688 OFFCURVE",
"263 688 CURVE SMOOTH",
"312 688 OFFCURVE",
"332 668 OFFCURVE",
"333 618 CURVE SMOOTH",
"340 472 OFFCURVE",
"340 329 OFFCURVE",
"333 183 CURVE SMOOTH",
"332 132 OFFCURVE",
"312 112 OFFCURVE",
"263 112 CURVE SMOOTH"
);
}
);
width = 527;
},
{
background = {
paths = (
{
closed = 1;
nodes = (
"390 -10 OFFCURVE",
"450 47 OFFCURVE",
"453 191 CURVE SMOOTH",
"456 340 OFFCURVE",
"456 459 OFFCURVE",
"453 610 CURVE SMOOTH",
"450 753 OFFCURVE",
"390 810 OFFCURVE",
"243 810 CURVE SMOOTH",
"96 810 OFFCURVE",
"35 753 OFFCURVE",
"32 610 CURVE SMOOTH",
"29 460 OFFCURVE",
"29 341 OFFCURVE",
"32 191 CURVE SMOOTH",
"35 47 OFFCURVE",
"96 -10 OFFCURVE",
"243 -10 CURVE SMOOTH"
);
},
{
closed = 1;
nodes = (
"205 112 OFFCURVE",
"183 130 OFFCURVE",
"182 163 CURVE SMOOTH",
"176 299 OFFCURVE",
"176 502 OFFCURVE",
"182 638 CURVE SMOOTH",
"183 670 OFFCURVE",
"205 688 OFFCURVE",
"243 688 CURVE SMOOTH",
"282 688 OFFCURVE",
"302 670 OFFCURVE",
"303 638 CURVE SMOOTH",
"306 502 OFFCURVE",
"306 299 OFFCURVE",
"303 163 CURVE SMOOTH",
"302 130 OFFCURVE",
"282 112 OFFCURVE",
"243 112 CURVE SMOOTH"
);
}
);
};
layerId = "5013C991-8699-46CB-BB1C-82E334DBD38B";
paths = (
{
closed = 1;
nodes = (
"452 -4 LINE",
"420 -8 OFFCURVE",
"399 0 OFFCURVE",
"391 20 CURVE",
"438 51 OFFCURVE",
"460 106 OFFCURVE",
"463 191 CURVE SMOOTH",
"468 322 OFFCURVE",
"468 477 OFFCURVE",
"463 610 CURVE SMOOTH",
"458 753 OFFCURVE",
"400 810 OFFCURVE",
"253 810 CURVE SMOOTH",
"106 810 OFFCURVE",
"45 753 OFFCURVE",
"42 610 CURVE SMOOTH",
"39 479 OFFCURVE",
"39 322 OFFCURVE",
"42 191 CURVE SMOOTH",
"45 47 OFFCURVE",
"106 -10 OFFCURVE",
"252 -10 CURVE",
"275 -99 OFFCURVE",
"337 -133 OFFCURVE",
"452 -124 CURVE"
);
},
{
closed = 1;
nodes = (
"215 112 OFFCURVE",
"193 130 OFFCURVE",
"192 163 CURVE SMOOTH",
"186 299 OFFCURVE",
"186 502 OFFCURVE",
"192 638 CURVE SMOOTH",
"193 670 OFFCURVE",
"215 688 OFFCURVE",
"253 688 CURVE SMOOTH",
"292 688 OFFCURVE",
"312 670 OFFCURVE",
"313 638 CURVE SMOOTH",
"319 502 OFFCURVE",
"319 299 OFFCURVE",
"313 163 CURVE SMOOTH",
"312 130 OFFCURVE",
"292 112 OFFCURVE",
"253 112 CURVE SMOOTH"
);
}
);
width = 507;
},
{
background = {
paths = (
{
closed = 1;
nodes = (
"204 -5 OFFCURVE",
"229 21 OFFCURVE",
"229 85 CURVE SMOOTH",
"231 310 OFFCURVE",
"231 489 OFFCURVE",
"229 714 CURVE SMOOTH",
"229 779 OFFCURVE",
"204 805 OFFCURVE",
"141 805 CURVE SMOOTH",
"78 805 OFFCURVE",
"53 779 OFFCURVE",
"53 714 CURVE SMOOTH",
"51 489 OFFCURVE",
"51 310 OFFCURVE",
"53 85 CURVE SMOOTH",
"53 21 OFFCURVE",
"78 -5 OFFCURVE",
"141 -5 CURVE SMOOTH"
);
},
{
closed = 1;
nodes = (
"94 15 OFFCURVE",
"74 35 OFFCURVE",
"73 85 CURVE SMOOTH",
"70 310 OFFCURVE",
"70 489 OFFCURVE",
"73 714 CURVE SMOOTH",
"74 765 OFFCURVE",
"94 785 OFFCURVE",
"141 785 CURVE SMOOTH",
"188 785 OFFCURVE",
"208 765 OFFCURVE",
"209 714 CURVE SMOOTH",
"212 489 OFFCURVE",
"212 310 OFFCURVE",
"209 85 CURVE SMOOTH",
"208 35 OFFCURVE",
"188 15 OFFCURVE",
"141 15 CURVE SMOOTH"
);
}
);
};
layerId = "3D06B89B-468F-44E0-A3D7-A5BC6911123E";
paths = (
{
closed = 1;
nodes = (
"224 -59 LINE",
"190 -62 OFFCURVE",
"174 -46 OFFCURVE",
"171 -4 CURVE",
"219 2 OFFCURVE",
"239 28 OFFCURVE",
"239 85 CURVE SMOOTH",
"241 310 OFFCURVE",
"241 489 OFFCURVE",
"239 714 CURVE SMOOTH",
"239 779 OFFCURVE",
"214 805 OFFCURVE",
"151 805 CURVE SMOOTH",
"88 805 OFFCURVE",
"64 779 OFFCURVE",
"63 714 CURVE SMOOTH",
"59 489 OFFCURVE",
"59 310 OFFCURVE",
"63 85 CURVE SMOOTH",
"64 21 OFFCURVE",
"88 -5 OFFCURVE",
"151 -5 CURVE",
"155 -59 OFFCURVE",
"176 -80 OFFCURVE",
"224 -77 CURVE"
);
},
{
closed = 1;
nodes = (
"101 15 OFFCURVE",
"84 32 OFFCURVE",
"83 85 CURVE SMOOTH",
"79 314 OFFCURVE",
"78 494 OFFCURVE",
"83 714 CURVE SMOOTH",
"84 768 OFFCURVE",
"101 785 OFFCURVE",
"151 785 CURVE SMOOTH",
"201 785 OFFCURVE",
"218 768 OFFCURVE",
"219 714 CURVE SMOOTH",
"222 494 OFFCURVE",
"224 314 OFFCURVE",
"219 85 CURVE SMOOTH",
"218 32 OFFCURVE",
"201 15 OFFCURVE",
"151 15 CURVE SMOOTH"
);
}
);
width = 300;
},
{
layerId = "77772675-63BC-4C39-8CE0-5446587E214D";
paths = (
{
closed = 1;
nodes = (
"293 -50 LINE",
"264 -52 OFFCURVE",
"254 -41 OFFCURVE",
"254 0 CURVE",
"315 11 OFFCURVE",
"342 48 OFFCURVE",
"343 122 CURVE SMOOTH",
"347 336 OFFCURVE",
"347 471 OFFCURVE",
"343 678 CURVE SMOOTH",
"341 769 OFFCURVE",
"302 806 OFFCURVE",
"205 806 CURVE SMOOTH",
"108 806 OFFCURVE",
"68 769 OFFCURVE",
"67 678 CURVE SMOOTH",
"64 471 OFFCURVE",
"64 336 OFFCURVE",
"67 122 CURVE SMOOTH",
"68 34 OFFCURVE",
"105 -3 OFFCURVE",
"193 -6 CURVE",
"197 -78 OFFCURVE",
"227 -106 OFFCURVE",
"293 -102 CURVE"
);
},
{
closed = 1;
nodes = (
"147 49 OFFCURVE",
"130 64 OFFCURVE",
"129 120 CURVE SMOOTH",
"124 347 OFFCURVE",
"124 463 OFFCURVE",
"129 679 CURVE SMOOTH",
"130 735 OFFCURVE",
"147 751 OFFCURVE",
"205 751 CURVE SMOOTH",
"263 751 OFFCURVE",
"281 735 OFFCURVE",
"282 679 CURVE SMOOTH",
"286 458 OFFCURVE",
"286 341 OFFCURVE",
"282 120 CURVE SMOOTH",
"281 64 OFFCURVE",
"263 49 OFFCURVE",
"205 49 CURVE SMOOTH"
);
}
);
width = 409.6525;
},
{
layerId = "4BC723F9-D357-4E8E-81DA-22F6730CB37E";
paths = (
{
closed = 1;
nodes = (
"269 -48 LINE",
"235 -51 OFFCURVE",
"218 -37 OFFCURVE",
"214 1 CURVE",
"262 12 OFFCURVE",
"282 43 OFFCURVE",
"283 106 CURVE SMOOTH",
"286 312 OFFCURVE",
"286 487 OFFCURVE",
"283 694 CURVE SMOOTH",
"282 774 OFFCURVE",
"251 806 OFFCURVE",
"171 806 CURVE SMOOTH",
"92 806 OFFCURVE",
"60 774 OFFCURVE",
"59 694 CURVE SMOOTH",
"55 487 OFFCURVE",
"55 312 OFFCURVE",
"59 106 CURVE SMOOTH",
"60 26 OFFCURVE",
"92 -6 OFFCURVE",
"171 -6 CURVE",
"179 -67 OFFCURVE",
"208 -90 OFFCURVE",
"269 -86 CURVE"
);
},
{
closed = 1;
nodes = (
"123 34 OFFCURVE",
"105 51 OFFCURVE",
"104 100 CURVE SMOOTH",
"100 311 OFFCURVE",
"99 496 OFFCURVE",
"104 699 CURVE SMOOTH",
"105 749 OFFCURVE",
"123 766 OFFCURVE",
"171 766 CURVE SMOOTH",
"219 766 OFFCURVE",
"236 749 OFFCURVE",
"237 699 CURVE SMOOTH",
"241 496 OFFCURVE",
"243 311 OFFCURVE",
"237 100 CURVE SMOOTH",
"236 51 OFFCURVE",
"219 34 OFFCURVE",
"171 34 CURVE SMOOTH"
);
}
);
width = 340.62375;
}
);
leftKerningGroup = O;
rightKerningGroup = O;
unicode = 0051;
},
{
glyphname = R;
lastChange = "2019-08-09 19:33:38 +0000";
layers = (
{
anchors = (
{
name = bottom;
position = "{188, 0}";
},
{
name = top;
position = "{182, 800}";
}
);
background = {
paths = (
{
closed = 1;
nodes = (
"159 378 LINE SMOOTH",
"219 378 OFFCURVE",
"244 400 OFFCURVE",
"246 462 CURVE SMOOTH",
"249 533 OFFCURVE",
"249 603 OFFCURVE",
"246 707 CURVE SMOOTH",
"244 773 OFFCURVE",
"219 800 OFFCURVE",
"160 800 CURVE SMOOTH",
"91 800 LINE",
"91 780 LINE",
"160 780 LINE SMOOTH",
"205 780 OFFCURVE",
"224 759 OFFCURVE",
"226 707 CURVE SMOOTH",
"229 619 OFFCURVE",
"229 548 OFFCURVE",
"226 460 CURVE SMOOTH",
"224 408 OFFCURVE",
"205 387 OFFCURVE",
"159 387 CURVE SMOOTH",
"95 387 LINE",
"95 378 LINE"
);
},
{
closed = 1;
nodes = (
"249 0 LINE",
"250 69 OFFCURVE",
"249 153 OFFCURVE",
"248 294 CURVE SMOOTH",
"247 355 OFFCURVE",
"222 377 OFFCURVE",
"162 377 CURVE SMOOTH",
"91 377 LINE",
"91 367 LINE",
"162 367 LINE SMOOTH",
"208 367 OFFCURVE",
"227 346 OFFCURVE",
"228 294 CURVE SMOOTH",
"230 200 OFFCURVE",
"230 116 OFFCURVE",
"229 0 CURVE"
);
},
{
closed = 1;
nodes = (
"100 0 LINE",
"100 800 LINE",
"80 800 LINE",
"80 0 LINE"
);
},
{
closed = 1;
nodes = (
"205 370 LINE",
"205 387 LINE",
"95 387 LINE",
"95 370 LINE"
);
}
);
};
layerId = "3B122060-26E0-4730-9241-82784E6CB359";
paths = (
{
closed = 1;
nodes = (
"110 0 LINE",
"110 326 LINE",
"201 326 LINE",
"273 0 LINE",
"315 0 LINE",
"241 332 LINE",
"278 343 OFFCURVE",
"295 370 OFFCURVE",
"297 418 CURVE SMOOTH",
"301 508 OFFCURVE",
"301 591 OFFCURVE",
"297 707 CURVE SMOOTH",
"295 773 OFFCURVE",
"264 800 OFFCURVE",
"191 800 CURVE SMOOTH",
"70 800 LINE",
"70 0 LINE"
);
},
{
closed = 1;
nodes = (
"110 762 LINE",
"191 762 LINE SMOOTH",
"241 762 OFFCURVE",
"255 750 OFFCURVE",
"257 707 CURVE SMOOTH",
"262 593 OFFCURVE",
"260 532 OFFCURVE",
"257 418 CURVE SMOOTH",
"256 376 OFFCURVE",
"241 364 OFFCURVE",
"190 364 CURVE SMOOTH",
"110 364 LINE"
);
}
);
width = 355;
},
{
anchors = (
{
name = bottom;
position = "{250, 0}";
},
{
name = top;
position = "{236, 800}";
}
);
background = {
paths = (
{
closed = 1;
nodes = (
"233 368 LINE SMOOTH",
"383 370 OFFCURVE",
"444 412 OFFCURVE",
"448 522 CURVE SMOOTH",
"449 551 OFFCURVE",
"449 575 OFFCURVE",
"448 605 CURVE SMOOTH",
"443 744 OFFCURVE",
"382 800 OFFCURVE",
"233 800 CURVE SMOOTH",
"157 800 LINE",
"157 668 LINE",
"233 668 LINE SMOOTH",
"275 668 OFFCURVE",
"298 648 OFFCURVE",
"298 613 CURVE SMOOTH",
"298 581 OFFCURVE",
"298 537 OFFCURVE",
"298 505 CURVE SMOOTH",
"298 463 OFFCURVE",
"275 440 OFFCURVE",
"233 440 CURVE SMOOTH",
"153 440 LINE",
"153 367 LINE"
);
},
{
closed = 1;
nodes = (
"451 0 LINE",
"452 69 OFFCURVE",
"450 145 OFFCURVE",
"447 214 CURVE SMOOTH",
"442 327 OFFCURVE",
"383 367 OFFCURVE",
"237 367 CURVE SMOOTH",
"153 367 LINE",
"153 307 LINE",
"231 307 LINE SMOOTH",
"272 307 OFFCURVE",
"295 281 OFFCURVE",
"297 235 CURVE SMOOTH",
"300 161 OFFCURVE",
"302 74 OFFCURVE",
"301 0 CURVE"
);
},
{
closed = 1;
nodes = (
"190 0 LINE",
"190 800 LINE",
"40 800 LINE",
"40 0 LINE"
);
},
{
closed = 1;
nodes = (
"339 347 LINE",
"339 384 LINE",
"153 384 LINE",
"153 347 LINE"
);
}
);
};
layerId = "1DFA7D5B-2E97-4B89-827F-FB43F8066DC1";
paths = (
{
closed = 1;
nodes = (
"190 0 LINE",
"190 270 LINE",
"234 270 LINE",
"310 0 LINE",
"469 0 LINE",
"375 295 LINE",
"430 324 OFFCURVE",
"455 378 OFFCURVE",
"458 465 CURVE SMOOTH",
"460 521 OFFCURVE",
"460 549 OFFCURVE",
"458 605 CURVE SMOOTH",
"453 744 OFFCURVE",
"392 800 OFFCURVE",
"243 800 CURVE SMOOTH",
"40 800 LINE",
"40 0 LINE"
);
},
{
closed = 1;
nodes = (
"190 668 LINE",
"243 668 LINE SMOOTH",
"285 668 OFFCURVE",
"306 648 OFFCURVE",
"308 613 CURVE SMOOTH",
"311 564 OFFCURVE",
"311 506 OFFCURVE",
"308 457 CURVE SMOOTH",
"306 422 OFFCURVE",
"285 402 OFFCURVE",
"243 402 CURVE SMOOTH",
"190 402 LINE"
);
}
);
width = 489;
},
{
anchors = (
{
name = bottom;
position = "{250, 0}";
},
{
name = top;
position = "{236, 800}";
}
);
background = {
paths = (
{
closed = 1;
nodes = (
"233 368 LINE SMOOTH",
"383 370 OFFCURVE",
"444 412 OFFCURVE",
"448 522 CURVE SMOOTH",
"449 551 OFFCURVE",
"449 575 OFFCURVE",
"448 605 CURVE SMOOTH",
"443 744 OFFCURVE",
"382 800 OFFCURVE",
"233 800 CURVE SMOOTH",
"157 800 LINE",
"157 668 LINE",
"233 668 LINE SMOOTH",
"275 668 OFFCURVE",
"298 648 OFFCURVE",
"298 613 CURVE SMOOTH",
"298 581 OFFCURVE",
"298 537 OFFCURVE",
"298 505 CURVE SMOOTH",
"298 463 OFFCURVE",
"275 440 OFFCURVE",
"233 440 CURVE SMOOTH",
"153 440 LINE",
"153 367 LINE"
);
},
{
closed = 1;
nodes = (
"451 0 LINE",
"452 69 OFFCURVE",
"450 145 OFFCURVE",
"447 214 CURVE SMOOTH",
"442 327 OFFCURVE",
"383 367 OFFCURVE",
"237 367 CURVE SMOOTH",
"153 367 LINE",
"153 307 LINE",
"231 307 LINE SMOOTH",
"272 307 OFFCURVE",
"295 281 OFFCURVE",
"297 235 CURVE SMOOTH",
"300 161 OFFCURVE",
"302 74 OFFCURVE",
"301 0 CURVE"
);
},
{
closed = 1;
nodes = (
"190 0 LINE",
"190 800 LINE",
"40 800 LINE",
"40 0 LINE"
);
},
{
closed = 1;
nodes = (
"339 347 LINE",
"339 384 LINE",
"153 384 LINE",
"153 347 LINE"
);
}
);
};
layerId = "5013C991-8699-46CB-BB1C-82E334DBD38B";
paths = (
{
closed = 1;
nodes = (
"190 0 LINE",
"190 270 LINE",
"224 270 LINE",
"300 0 LINE",
"459 0 LINE",
"365 295 LINE",
"420 324 OFFCURVE",
"445 378 OFFCURVE",
"448 465 CURVE SMOOTH",
"450 521 OFFCURVE",
"450 549 OFFCURVE",
"448 605 CURVE SMOOTH",
"443 744 OFFCURVE",
"382 800 OFFCURVE",
"233 800 CURVE SMOOTH",
"40 800 LINE",
"40 0 LINE"
);
},
{
closed = 1;
nodes = (
"190 668 LINE",
"233 668 LINE SMOOTH",
"275 668 OFFCURVE",
"296 648 OFFCURVE",
"298 613 CURVE SMOOTH",
"301 564 OFFCURVE",
"301 506 OFFCURVE",
"298 457 CURVE SMOOTH",
"296 422 OFFCURVE",
"275 402 OFFCURVE",
"233 402 CURVE SMOOTH",
"190 402 LINE"
);
}
);
width = 479;
},
{
anchors = (
{
name = bottom;
position = "{147, 0}";
},
{
name = top;
position = "{132, 800}";
}
);
background = {
paths = (
{
closed = 1;
nodes = (
"139 378 LINE SMOOTH",
"199 378 OFFCURVE",
"224 400 OFFCURVE",
"226 462 CURVE SMOOTH",
"229 533 OFFCURVE",
"229 603 OFFCURVE",
"226 707 CURVE SMOOTH",
"224 773 OFFCURVE",
"199 800 OFFCURVE",
"140 800 CURVE SMOOTH",
"71 800 LINE",
"71 780 LINE",
"140 780 LINE SMOOTH",
"185 780 OFFCURVE",
"204 759 OFFCURVE",
"206 707 CURVE SMOOTH",
"209 619 OFFCURVE",
"209 548 OFFCURVE",
"206 460 CURVE SMOOTH",
"204 408 OFFCURVE",
"185 387 OFFCURVE",
"139 387 CURVE SMOOTH",
"75 387 LINE",
"75 378 LINE"
);
},
{
closed = 1;
nodes = (
"229 0 LINE",
"230 69 OFFCURVE",
"229 153 OFFCURVE",
"228 294 CURVE SMOOTH",
"227 355 OFFCURVE",
"202 377 OFFCURVE",
"142 377 CURVE SMOOTH",
"71 377 LINE",
"71 367 LINE",
"142 367 LINE SMOOTH",
"188 367 OFFCURVE",
"207 346 OFFCURVE",
"208 294 CURVE SMOOTH",
"210 200 OFFCURVE",
"210 116 OFFCURVE",
"209 0 CURVE"
);
},
{
closed = 1;
nodes = (
"80 0 LINE",
"80 800 LINE",
"60 800 LINE",
"60 0 LINE"
);
},
{
closed = 1;
nodes = (
"185 370 LINE",
"185 387 LINE",
"75 387 LINE",
"75 370 LINE"
);
}
);
};
layerId = "3D06B89B-468F-44E0-A3D7-A5BC6911123E";
paths = (
{
closed = 1;
nodes = (
"80 0 LINE",
"80 325 LINE",
"152 325 LINE",
"224 0 LINE",
"246 0 LINE",
"173 329 LINE",
"209 338 OFFCURVE",
"226 366 OFFCURVE",
"228 418 CURVE SMOOTH",
"232 502 OFFCURVE",
"232 599 OFFCURVE",
"228 707 CURVE SMOOTH",
"225 773 OFFCURVE",
"200 800 OFFCURVE",
"142 800 CURVE SMOOTH",
"60 800 LINE",
"60 0 LINE"
);
},
{
closed = 1;
nodes = (
"80 780 LINE",
"142 780 LINE SMOOTH",
"188 780 OFFCURVE",
"206 759 OFFCURVE",
"208 707 CURVE SMOOTH",
"211 611 OFFCURVE",
"211 514 OFFCURVE",
"208 418 CURVE SMOOTH",
"206 366 OFFCURVE",
"188 345 OFFCURVE",
"141 345 CURVE SMOOTH",
"80 345 LINE"
);
}
);
width = 276;
},
{
anchors = (
{
name = bottom;
position = "{200, 0}";
},
{
name = top;
position = "{193, 800}";
}
);
layerId = "77772675-63BC-4C39-8CE0-5446587E214D";
paths = (
{
closed = 1;
nodes = (
"126 0 LINE",
"126 315 LINE",
"207 315 LINE",
"280 0 LINE",
"345 0 LINE",
"267 325 LINE",
"308 339 OFFCURVE",
"326 372 OFFCURVE",
"329 427 CURVE SMOOTH",
"332 511 OFFCURVE",
"332 583 OFFCURVE",
"329 687 CURVE SMOOTH",
"326 767 OFFCURVE",
"289 800 OFFCURVE",
"201 800 CURVE SMOOTH",
"64 800 LINE",
"64 0 LINE"
);
},
{
closed = 1;
nodes = (
"126 744 LINE",
"201 744 LINE SMOOTH",
"250 744 OFFCURVE",
"265 730 OFFCURVE",
"267 689 CURVE SMOOTH",
"272 587 OFFCURVE",
"270 527 OFFCURVE",
"267 426 CURVE SMOOTH",
"266 385 OFFCURVE",
"250 371 OFFCURVE",
"200 371 CURVE SMOOTH",
"126 371 LINE"
);
}
);
width = 381.2975;
},
{
anchors = (
{
name = bottom;
position = "{167, 0}";
},
{
name = top;
position = "{152, 800}";
}
);
layerId = "4BC723F9-D357-4E8E-81DA-22F6730CB37E";
paths = (
{
closed = 1;
nodes = (
"102 0 LINE",
"102 314 LINE",
"166 314 LINE",
"239 0 LINE",
"288 0 LINE",
"211 322 LINE",
"250 335 OFFCURVE",
"269 368 OFFCURVE",
"271 427 CURVE SMOOTH",
"275 506 OFFCURVE",
"275 589 OFFCURVE",
"271 687 CURVE SMOOTH",
"268 767 OFFCURVE",
"236 800 OFFCURVE",
"160 800 CURVE SMOOTH",
"56 800 LINE",
"56 0 LINE"
);
},
{
closed = 1;
nodes = (
"102 758 LINE",
"160 758 LINE SMOOTH",
"205 758 OFFCURVE",
"224 737 OFFCURVE",
"226 689 CURVE SMOOTH",
"229 602 OFFCURVE",
"229 512 OFFCURVE",
"226 426 CURVE SMOOTH",
"224 377 OFFCURVE",
"205 356 OFFCURVE",
"159 356 CURVE SMOOTH",
"102 356 LINE"
);
}
);
width = 315.83875;
}
);
leftKerningGroup = H;
rightKerningGroup = R;
unicode = 0052;
},
{
glyphname = S;
lastChange = "2019-08-09 19:33:38 +0000";
layers = (
{
anchors = (
{
name = bottom;
position = "{189, 0}";
},
{
name = top;
position = "{189, 800}";
}
);
layerId = "3B122060-26E0-4730-9241-82784E6CB359";
paths = (
{
closed = 1;
nodes = (
"272 -5 OFFCURVE",
"304 24 OFFCURVE",
"307 98 CURVE SMOOTH",
"309 149 OFFCURVE",
"309 213 OFFCURVE",
"307 266 CURVE SMOOTH",
"304 361 OFFCURVE",
"281 392 OFFCURVE",
"199 412 CURVE SMOOTH",
"162 421 LINE SMOOTH",
"124 431 OFFCURVE",
"113 454 OFFCURVE",
"112 529 CURVE SMOOTH",
"111 590 OFFCURVE",
"110 641 OFFCURVE",
"112 702 CURVE SMOOTH",
"114 753 OFFCURVE",
"131 767 OFFCURVE",
"189 767 CURVE SMOOTH",
"246 767 OFFCURVE",
"262 753 OFFCURVE",
"264 702 CURVE SMOOTH",
"266 653 OFFCURVE",
"266 604 OFFCURVE",
"264 535 CURVE",
"304 535 LINE",
"305 600 OFFCURVE",
"305 653 OFFCURVE",
"304 702 CURVE SMOOTH",
"302 776 OFFCURVE",
"269 805 OFFCURVE",
"190 805 CURVE SMOOTH",
"106 805 OFFCURVE",
"73 776 OFFCURVE",
"72 703 CURVE SMOOTH",
"71 642 OFFCURVE",
"70 580 OFFCURVE",
"71 529 CURVE SMOOTH",
"73 429 OFFCURVE",
"93 397 OFFCURVE",
"162 379 CURVE SMOOTH",
"198 370 LINE SMOOTH",
"251 356 OFFCURVE",
"266 334 OFFCURVE",
"267 266 CURVE SMOOTH",
"268 217 OFFCURVE",
"270 147 OFFCURVE",
"267 98 CURVE SMOOTH",
"264 47 OFFCURVE",
"248 33 OFFCURVE",
"190 33 CURVE SMOOTH",
"130 33 OFFCURVE",
"113 47 OFFCURVE",
"111 98 CURVE SMOOTH",
"108 163 OFFCURVE",
"109 218 OFFCURVE",
"111 283 CURVE",
"71 283 LINE",
"69 210 OFFCURVE",
"69 168 OFFCURVE",
"71 98 CURVE SMOOTH",
"73 24 OFFCURVE",
"107 -5 OFFCURVE",
"191 -5 CURVE SMOOTH"
);
}
);
width = 378;
},
{
anchors = (
{
name = bottom;
position = "{262, 0}";
},
{
name = top;
position = "{262, 800}";
}
);
background = {
paths = (
{
closed = 1;
nodes = (
"275 309 OFFCURVE",
"293 301 OFFCURVE",
"293 269 CURVE SMOOTH",
"293 191 LINE SMOOTH",
"293 158 OFFCURVE",
"275 140 OFFCURVE",
"242 140 CURVE SMOOTH",
"210 140 OFFCURVE",
"190 158 OFFCURVE",
"190 191 CURVE SMOOTH",
"190 300 LINE",
"40 300 LINE",
"39 268 OFFCURVE",
"39 228 OFFCURVE",
"40 196 CURVE SMOOTH",
"44 67 OFFCURVE",
"113 -5 OFFCURVE",
"242 -5 CURVE SMOOTH",
"371 -5 OFFCURVE",
"443 67 OFFCURVE",
"443 196 CURVE SMOOTH",
"444 219 OFFCURVE",
"444 242 OFFCURVE",
"444 265 CURVE SMOOTH",
"440 394 OFFCURVE",
"371 434 OFFCURVE",
"246 465 CURVE SMOOTH",
"242 466 LINE SMOOTH",
"211 474 OFFCURVE",
"191 484 OFFCURVE",
"191 517 CURVE SMOOTH",
"191 610 LINE SMOOTH",
"191 642 OFFCURVE",
"209 660 OFFCURVE",
"242 660 CURVE SMOOTH",
"274 660 OFFCURVE",
"290 642 OFFCURVE",
"290 610 CURVE SMOOTH",
"289 500 LINE",
"439 500 LINE",
"440 533 OFFCURVE",
"441 572 OFFCURVE",
"440 605 CURVE SMOOTH",
"436 734 OFFCURVE",
"371 805 OFFCURVE",
"242 805 CURVE SMOOTH",
"113 805 OFFCURVE",
"44 734 OFFCURVE",
"41 605 CURVE SMOOTH",
"41 580 OFFCURVE",
"40 546 OFFCURVE",
"40 521 CURVE SMOOTH",
"44 392 OFFCURVE",
"120 361 OFFCURVE",
"242 320 CURVE SMOOTH",
"245 319 LINE SMOOTH"
);
}
);
};
layerId = "1DFA7D5B-2E97-4B89-827F-FB43F8066DC1";
paths = (
{
closed = 1;
nodes = (
"414 -10 OFFCURVE",
"477 47 OFFCURVE",
"483 191 CURVE SMOOTH",
"484 214 OFFCURVE",
"485 241 OFFCURVE",
"484 264 CURVE SMOOTH",
"480 367 OFFCURVE",
"436 435 OFFCURVE",
"323 459 CURVE SMOOTH",
"242 476 LINE SMOOTH",
"208 483 OFFCURVE",
"194 508 OFFCURVE",
"191 535 CURVE SMOOTH",
"187 569 OFFCURVE",
"187 604 OFFCURVE",
"191 638 CURVE SMOOTH",
"195 670 OFFCURVE",
"221 688 OFFCURVE",
"263 688 CURVE SMOOTH",
"308 688 OFFCURVE",
"334 670 OFFCURVE",
"335 638 CURVE SMOOTH",
"337 592 OFFCURVE",
"336 546 OFFCURVE",
"334 500 CURVE",
"478 500 LINE",
"480 535 OFFCURVE",
"481 581 OFFCURVE",
"480 610 CURVE SMOOTH",
"474 753 OFFCURVE",
"412 810 OFFCURVE",
"263 810 CURVE SMOOTH",
"110 810 OFFCURVE",
"47 753 OFFCURVE",
"41 610 CURVE SMOOTH",
"40 585 OFFCURVE",
"40 564 OFFCURVE",
"41 535 CURVE SMOOTH",
"44 435 OFFCURVE",
"78 370 OFFCURVE",
"183 346 CURVE SMOOTH",
"275 325 LINE SMOOTH",
"307 318 OFFCURVE",
"330 292 OFFCURVE",
"333 264 CURVE SMOOTH",
"337 230 OFFCURVE",
"337 197 OFFCURVE",
"333 163 CURVE SMOOTH",
"329 130 OFFCURVE",
"304 112 OFFCURVE",
"263 112 CURVE SMOOTH",
"219 112 OFFCURVE",
"193 130 OFFCURVE",
"190 163 CURVE SMOOTH",
"186 202 OFFCURVE",
"187 251 OFFCURVE",
"190 300 CURVE",
"49 300 LINE",
"44 268 OFFCURVE",
"44 223 OFFCURVE",
"45 191 CURVE SMOOTH",
"51 47 OFFCURVE",
"113 -10 OFFCURVE",
"263 -10 CURVE SMOOTH"
);
}
);
width = 524;
},
{
anchors = (
{
name = bottom;
position = "{252, 0}";
},
{
name = top;
position = "{252, 800}";
}
);
background = {
paths = (
{
closed = 1;
nodes = (
"265 309 OFFCURVE",
"283 301 OFFCURVE",
"283 269 CURVE SMOOTH",
"283 191 LINE SMOOTH",
"283 158 OFFCURVE",
"265 140 OFFCURVE",
"232 140 CURVE SMOOTH",
"200 140 OFFCURVE",
"180 158 OFFCURVE",
"180 191 CURVE SMOOTH",
"180 300 LINE",
"30 300 LINE",
"29 268 OFFCURVE",
"29 228 OFFCURVE",
"30 196 CURVE SMOOTH",
"34 67 OFFCURVE",
"103 -5 OFFCURVE",
"232 -5 CURVE SMOOTH",
"361 -5 OFFCURVE",
"433 67 OFFCURVE",
"433 196 CURVE SMOOTH",
"434 219 OFFCURVE",
"434 242 OFFCURVE",
"434 265 CURVE SMOOTH",
"430 394 OFFCURVE",
"361 434 OFFCURVE",
"236 465 CURVE SMOOTH",
"232 466 LINE SMOOTH",
"201 474 OFFCURVE",
"181 484 OFFCURVE",
"181 517 CURVE SMOOTH",
"181 610 LINE SMOOTH",
"181 642 OFFCURVE",
"199 660 OFFCURVE",
"232 660 CURVE SMOOTH",
"264 660 OFFCURVE",
"280 642 OFFCURVE",
"280 610 CURVE SMOOTH",
"279 500 LINE",
"429 500 LINE",
"430 533 OFFCURVE",
"431 572 OFFCURVE",
"430 605 CURVE SMOOTH",
"426 734 OFFCURVE",
"361 805 OFFCURVE",
"232 805 CURVE SMOOTH",
"103 805 OFFCURVE",
"34 734 OFFCURVE",
"31 605 CURVE SMOOTH",
"31 580 OFFCURVE",
"30 546 OFFCURVE",
"30 521 CURVE SMOOTH",
"34 392 OFFCURVE",
"110 361 OFFCURVE",
"232 320 CURVE SMOOTH",
"235 319 LINE SMOOTH"
);
}
);
};
layerId = "5013C991-8699-46CB-BB1C-82E334DBD38B";
paths = (
{
closed = 1;
nodes = (
"401 -10 OFFCURVE",
"457 47 OFFCURVE",
"463 191 CURVE SMOOTH",
"464 214 OFFCURVE",
"465 241 OFFCURVE",
"464 264 CURVE SMOOTH",
"460 367 OFFCURVE",
"425 432 OFFCURVE",
"313 459 CURVE SMOOTH",
"242 476 LINE SMOOTH",
"208 484 OFFCURVE",
"194 508 OFFCURVE",
"191 535 CURVE SMOOTH",
"187 569 OFFCURVE",
"187 604 OFFCURVE",
"191 638 CURVE SMOOTH",
"195 670 OFFCURVE",
"213 688 OFFCURVE",
"253 688 CURVE SMOOTH",
"290 688 OFFCURVE",
"314 670 OFFCURVE",
"315 638 CURVE SMOOTH",
"317 592 OFFCURVE",
"316 546 OFFCURVE",
"314 500 CURVE",
"458 500 LINE",
"460 535 OFFCURVE",
"461 581 OFFCURVE",
"460 610 CURVE SMOOTH",
"454 753 OFFCURVE",
"395 810 OFFCURVE",
"253 810 CURVE SMOOTH",
"102 810 OFFCURVE",
"47 753 OFFCURVE",
"41 610 CURVE SMOOTH",
"40 585 OFFCURVE",
"40 564 OFFCURVE",
"41 535 CURVE SMOOTH",
"44 435 OFFCURVE",
"79 373 OFFCURVE",
"183 346 CURVE SMOOTH",
"265 325 LINE SMOOTH",
"297 317 OFFCURVE",
"310 292 OFFCURVE",
"313 264 CURVE SMOOTH",
"317 230 OFFCURVE",
"317 197 OFFCURVE",
"313 163 CURVE SMOOTH",
"309 130 OFFCURVE",
"292 112 OFFCURVE",
"253 112 CURVE SMOOTH",
"213 112 OFFCURVE",
"193 130 OFFCURVE",
"190 163 CURVE SMOOTH",
"186 202 OFFCURVE",
"187 251 OFFCURVE",
"190 300 CURVE",
"49 300 LINE",
"44 268 OFFCURVE",
"44 223 OFFCURVE",
"45 191 CURVE SMOOTH",
"51 47 OFFCURVE",
"106 -10 OFFCURVE",
"253 -10 CURVE SMOOTH"
);
}
);
width = 504;
},
{
anchors = (
{
name = bottom;
position = "{149, 0}";
},
{
name = top;
position = "{149, 800}";
}
);
layerId = "3D06B89B-468F-44E0-A3D7-A5BC6911123E";
paths = (
{
closed = 1;
nodes = (
"209 -5 OFFCURVE",
"235 22 OFFCURVE",
"237 88 CURVE SMOOTH",
"239 159 OFFCURVE",
"239 183 OFFCURVE",
"237 266 CURVE SMOOTH",
"235 347 OFFCURVE",
"229 388 OFFCURVE",
"169 402 CURVE SMOOTH",
"132 411 LINE SMOOTH",
"88 422 OFFCURVE",
"83 451 OFFCURVE",
"82 529 CURVE SMOOTH",
"81 590 OFFCURVE",
"80 651 OFFCURVE",
"82 712 CURVE SMOOTH",
"84 764 OFFCURVE",
"101 785 OFFCURVE",
"149 785 CURVE SMOOTH",
"195 785 OFFCURVE",
"212 764 OFFCURVE",
"214 712 CURVE SMOOTH",
"216 653 OFFCURVE",
"216 594 OFFCURVE",
"214 535 CURVE",
"234 535 LINE",
"235 608 OFFCURVE",
"235 671 OFFCURVE",
"234 712 CURVE SMOOTH",
"232 778 OFFCURVE",
"208 805 OFFCURVE",
"150 805 CURVE SMOOTH",
"87 805 OFFCURVE",
"62 779 OFFCURVE",
"62 713 CURVE SMOOTH",
"62 652 OFFCURVE",
"60 580 OFFCURVE",
"61 529 CURVE SMOOTH",
"63 441 OFFCURVE",
"70 404 OFFCURVE",
"132 389 CURVE SMOOTH",
"168 380 LINE SMOOTH",
"210 369 OFFCURVE",
"216 328 OFFCURVE",
"217 266 CURVE SMOOTH",
"218 187 OFFCURVE",
"219 157 OFFCURVE",
"217 88 CURVE SMOOTH",
"215 36 OFFCURVE",
"198 15 OFFCURVE",
"150 15 CURVE SMOOTH",
"101 15 OFFCURVE",
"83 36 OFFCURVE",
"81 88 CURVE SMOOTH",
"79 153 OFFCURVE",
"79 218 OFFCURVE",
"81 283 CURVE",
"61 283 LINE",
"59 204 OFFCURVE",
"59 166 OFFCURVE",
"61 88 CURVE SMOOTH",
"63 22 OFFCURVE",
"89 -5 OFFCURVE",
"151 -5 CURVE SMOOTH"
);
}
);
width = 298;
},
{
anchors = (
{
name = bottom;
position = "{203, 0}";
},
{
name = top;
position = "{203, 800}";
}
);
layerId = "77772675-63BC-4C39-8CE0-5446587E214D";
paths = (
{
closed = 1;
nodes = (
"300 -6 OFFCURVE",
"338 29 OFFCURVE",
"342 116 CURVE SMOOTH",
"343 162 OFFCURVE",
"344 218 OFFCURVE",
"342 266 CURVE SMOOTH",
"339 362 OFFCURVE",
"311 400 OFFCURVE",
"223 421 CURVE SMOOTH",
"178 432 LINE SMOOTH",
"140 441 OFFCURVE",
"129 465 OFFCURVE",
"128 530 CURVE SMOOTH",
"126 586 OFFCURVE",
"125 634 OFFCURVE",
"128 689 CURVE SMOOTH",
"130 737 OFFCURVE",
"149 751 OFFCURVE",
"204 751 CURVE SMOOTH",
"258 751 OFFCURVE",
"276 737 OFFCURVE",
"278 689 CURVE SMOOTH",
"280 641 OFFCURVE",
"280 593 OFFCURVE",
"278 528 CURVE",
"338 528 LINE",
"339 587 OFFCURVE",
"340 639 OFFCURVE",
"339 684 CURVE SMOOTH",
"336 771 OFFCURVE",
"297 806 OFFCURVE",
"204 806 CURVE SMOOTH",
"107 806 OFFCURVE",
"68 771 OFFCURVE",
"66 685 CURVE SMOOTH",
"65 631 OFFCURVE",
"64 577 OFFCURVE",
"65 530 CURVE SMOOTH",
"67 430 OFFCURVE",
"90 392 OFFCURVE",
"166 373 CURVE SMOOTH",
"213 361 LINE SMOOTH",
"262 349 OFFCURVE",
"279 326 OFFCURVE",
"280 266 CURVE SMOOTH",
"282 220 OFFCURVE",
"283 157 OFFCURVE",
"280 111 CURVE SMOOTH",
"277 63 OFFCURVE",
"259 49 OFFCURVE",
"204 49 CURVE SMOOTH",
"147 49 OFFCURVE",
"129 63 OFFCURVE",
"127 111 CURVE SMOOTH",
"123 171 OFFCURVE",
"124 224 OFFCURVE",
"127 286 CURVE",
"67 286 LINE",
"64 221 OFFCURVE",
"64 179 OFFCURVE",
"66 116 CURVE SMOOTH",
"69 29 OFFCURVE",
"108 -6 OFFCURVE",
"205 -6 CURVE SMOOTH"
);
}
);
width = 406.6525;
},
{
anchors = (
{
name = bottom;
position = "{169, 0}";
},
{
name = top;
position = "{169, 800}";
}
);
layerId = "4BC723F9-D357-4E8E-81DA-22F6730CB37E";
paths = (
{
closed = 1;
nodes = (
"247 -6 OFFCURVE",
"279 27 OFFCURVE",
"281 108 CURVE SMOOTH",
"283 170 OFFCURVE",
"283 194 OFFCURVE",
"282 266 CURVE SMOOTH",
"279 351 OFFCURVE",
"267 397 OFFCURVE",
"197 413 CURVE SMOOTH",
"154 424 LINE SMOOTH",
"112 434 OFFCURVE",
"105 462 OFFCURVE",
"103 530 CURVE SMOOTH",
"102 586 OFFCURVE",
"101 642 OFFCURVE",
"103 697 CURVE SMOOTH",
"106 746 OFFCURVE",
"123 766 OFFCURVE",
"169 766 CURVE SMOOTH",
"214 766 OFFCURVE",
"232 746 OFFCURVE",
"234 697 CURVE SMOOTH",
"236 641 OFFCURVE",
"236 585 OFFCURVE",
"234 528 CURVE",
"278 528 LINE",
"279 594 OFFCURVE",
"279 653 OFFCURVE",
"278 692 CURVE SMOOTH",
"276 773 OFFCURVE",
"245 806 OFFCURVE",
"170 806 CURVE SMOOTH",
"90 806 OFFCURVE",
"59 774 OFFCURVE",
"58 693 CURVE SMOOTH",
"58 639 OFFCURVE",
"56 577 OFFCURVE",
"57 530 CURVE SMOOTH",
"59 440 OFFCURVE",
"72 398 OFFCURVE",
"142 381 CURVE SMOOTH",
"187 369 LINE SMOOTH",
"227 359 OFFCURVE",
"234 321 OFFCURVE",
"236 266 CURVE SMOOTH",
"237 195 OFFCURVE",
"238 165 OFFCURVE",
"236 103 CURVE SMOOTH",
"233 54 OFFCURVE",
"216 34 OFFCURVE",
"170 34 CURVE SMOOTH",
"123 34 OFFCURVE",
"105 54 OFFCURVE",
"102 103 CURVE SMOOTH",
"100 163 OFFCURVE",
"100 224 OFFCURVE",
"102 286 CURVE",
"59 286 LINE",
"56 217 OFFCURVE",
"56 177 OFFCURVE",
"58 108 CURVE SMOOTH",
"61 27 OFFCURVE",
"92 -6 OFFCURVE",
"171 -6 CURVE SMOOTH"
);
}
);
width = 338.4275;
}
);
leftKerningGroup = O;
rightKerningGroup = O;
unicode = 0053;
},
{
glyphname = Germandbls;
lastChange = "2019-08-09 19:33:38 +0000";
layers = (
{
layerId = "3B122060-26E0-4730-9241-82784E6CB359";
paths = (
{
closed = 1;
nodes = (
"80 0 LINE",
"80 710 LINE SMOOTH",
"80 751 OFFCURVE",
"95 763 OFFCURVE",
"148 763 CURVE SMOOTH",
"221 763 LINE",
"137 409 LINE",
"137 372 LINE",
"167 372 LINE SMOOTH",
"218 372 OFFCURVE",
"232 355 OFFCURVE",
"234 291 CURVE SMOOTH",
"236 224 OFFCURVE",
"236 181 OFFCURVE",
"234 113 CURVE SMOOTH",
"232 62 OFFCURVE",
"216 38 OFFCURVE",
"158 38 CURVE SMOOTH",
"99 38 LINE",
"99 0 LINE",
"158 0 LINE SMOOTH",
"239 0 OFFCURVE",
"272 39 OFFCURVE",
"274 113 CURVE SMOOTH",
"276 191 OFFCURVE",
"276 221 OFFCURVE",
"274 291 CURVE SMOOTH",
"272 370 OFFCURVE",
"235 405 OFFCURVE",
"179 410 CURVE",
"269 769 LINE",
"269 801 LINE",
"148 801 LINE SMOOTH",
"71 801 OFFCURVE",
"40 774 OFFCURVE",
"40 710 CURVE SMOOTH",
"40 0 LINE"
);
}
);
width = 315;
},
{
layerId = "1DFA7D5B-2E97-4B89-827F-FB43F8066DC1";
paths = (
{
closed = 1;
nodes = (
"190 0 LINE",
"190 628 LINE SMOOTH",
"190 660 OFFCURVE",
"213 678 OFFCURVE",
"251 678 CURVE SMOOTH",
"334 678 LINE",
"239 452 LINE",
"241 335 LINE",
"305 335 LINE SMOOTH",
"338 335 OFFCURVE",
"350 302 OFFCURVE",
"353 274 CURVE SMOOTH",
"357 240 OFFCURVE",
"357 207 OFFCURVE",
"353 173 CURVE SMOOTH",
"349 140 OFFCURVE",
"332 122 OFFCURVE",
"293 122 CURVE SMOOTH",
"241 122 LINE",
"241 0 LINE",
"293 0 LINE SMOOTH",
"441 0 OFFCURVE",
"497 57 OFFCURVE",
"503 201 CURVE SMOOTH",
"504 224 OFFCURVE",
"505 251 OFFCURVE",
"504 274 CURVE SMOOTH",
"500 367 OFFCURVE",
"472 429 OFFCURVE",
"385 460 CURVE",
"490 687 LINE",
"490 800 LINE",
"251 800 LINE SMOOTH",
"104 800 OFFCURVE",
"40 743 OFFCURVE",
"40 600 CURVE SMOOTH",
"40 0 LINE"
);
}
);
width = 544;
},
{
layerId = "5013C991-8699-46CB-BB1C-82E334DBD38B";
paths = (
{
closed = 1;
nodes = (
"190 0 LINE",
"190 628 LINE SMOOTH",
"190 660 OFFCURVE",
"213 678 OFFCURVE",
"251 678 CURVE SMOOTH",
"324 678 LINE",
"229 452 LINE",
"231 335 LINE",
"295 335 LINE SMOOTH",
"328 335 OFFCURVE",
"340 302 OFFCURVE",
"343 274 CURVE SMOOTH",
"347 240 OFFCURVE",
"347 207 OFFCURVE",
"343 173 CURVE SMOOTH",
"339 140 OFFCURVE",
"322 122 OFFCURVE",
"283 122 CURVE SMOOTH",
"231 122 LINE",
"231 0 LINE",
"283 0 LINE SMOOTH",
"431 0 OFFCURVE",
"487 57 OFFCURVE",
"493 201 CURVE SMOOTH",
"494 224 OFFCURVE",
"495 251 OFFCURVE",
"494 274 CURVE SMOOTH",
"490 367 OFFCURVE",
"462 429 OFFCURVE",
"375 460 CURVE",
"480 687 LINE",
"480 800 LINE",
"251 800 LINE SMOOTH",
"104 800 OFFCURVE",
"40 743 OFFCURVE",
"40 600 CURVE SMOOTH",
"40 0 LINE"
);
}
);
width = 534;
},
{
layerId = "3D06B89B-468F-44E0-A3D7-A5BC6911123E";
paths = (
{
closed = 1;
nodes = (
"80 0 LINE",
"80 709 LINE SMOOTH",
"80 763 OFFCURVE",
"98 779 OFFCURVE",
"148 780 CURVE SMOOTH",
"216 781 LINE",
"133 409 LINE",
"133 390 LINE",
"157 390 LINE SMOOTH",
"203 390 OFFCURVE",
"222 362 OFFCURVE",
"224 291 CURVE SMOOTH",
"226 224 OFFCURVE",
"226 171 OFFCURVE",
"224 103 CURVE SMOOTH",
"222 44 OFFCURVE",
"200 20 OFFCURVE",
"148 20 CURVE SMOOTH",
"99 20 LINE",
"99 0 LINE",
"148 0 LINE SMOOTH",
"214 0 OFFCURVE",
"242 29 OFFCURVE",
"244 103 CURVE SMOOTH",
"246 181 OFFCURVE",
"246 221 OFFCURVE",
"244 291 CURVE SMOOTH",
"242 376 OFFCURVE",
"215 410 OFFCURVE",
"155 410 CURVE",
"239 786 LINE",
"239 801 LINE",
"148 800 LINE SMOOTH",
"85 799 OFFCURVE",
"60 774 OFFCURVE",
"60 709 CURVE SMOOTH",
"60 0 LINE"
);
}
);
width = 309;
},
{
layerId = "77772675-63BC-4C39-8CE0-5446587E214D";
paths = (
{
closed = 1;
nodes = (
"102 0 LINE",
"102 694 LINE SMOOTH",
"102 733 OFFCURVE",
"118 746 OFFCURVE",
"168 746 CURVE SMOOTH",
"243 746 LINE",
"157 417 LINE",
"157 365 LINE",
"194 365 LINE SMOOTH",
"242 365 OFFCURVE",
"255 345 OFFCURVE",
"257 288 CURVE SMOOTH",
"260 227 OFFCURVE",
"260 186 OFFCURVE",
"257 125 CURVE SMOOTH",
"255 77 OFFCURVE",
"239 54 OFFCURVE",
"184 54 CURVE SMOOTH",
"127 54 LINE",
"127 0 LINE",
"184 0 LINE SMOOTH",
"279 0 OFFCURVE",
"316 43 OFFCURVE",
"319 130 CURVE SMOOTH",
"321 197 OFFCURVE",
"321 227 OFFCURVE",
"319 288 CURVE SMOOTH",
"317 369 OFFCURVE",
"282 410 OFFCURVE",
"219 420 CURVE",
"312 753 LINE",
"312 801 LINE",
"168 801 LINE SMOOTH",
"77 801 OFFCURVE",
"40 768 OFFCURVE",
"40 688 CURVE SMOOTH",
"40 0 LINE"
);
}
);
width = 359.94125;
},
{
layerId = "4BC723F9-D357-4E8E-81DA-22F6730CB37E";
paths = (
{
closed = 1;
nodes = (
"102 0 LINE",
"102 693 LINE SMOOTH",
"102 743 OFFCURVE",
"121 759 OFFCURVE",
"168 760 CURVE SMOOTH",
"237 761 LINE",
"152 417 LINE",
"152 379 LINE",
"184 379 LINE SMOOTH",
"228 379 OFFCURVE",
"245 350 OFFCURVE",
"247 288 CURVE SMOOTH",
"250 227 OFFCURVE",
"250 178 OFFCURVE",
"247 117 CURVE SMOOTH",
"245 63 OFFCURVE",
"224 40 OFFCURVE",
"174 40 CURVE SMOOTH",
"125 40 LINE",
"125 0 LINE",
"174 0 LINE SMOOTH",
"257 0 OFFCURVE",
"290 34 OFFCURVE",
"293 122 CURVE SMOOTH",
"295 189 OFFCURVE",
"295 227 OFFCURVE",
"293 288 CURVE SMOOTH",
"291 374 OFFCURVE",
"263 414 OFFCURVE",
"198 420 CURVE",
"286 767 LINE",
"286 801 LINE",
"168 800 LINE SMOOTH",
"89 799 OFFCURVE",
"56 768 OFFCURVE",
"56 688 CURVE SMOOTH",
"56 0 LINE"
);
}
);
width = 353.15625;
}
);
leftKerningGroup = H;
rightKerningGroup = B;
unicode = 1E9E;
},
{
glyphname = Schwa;
lastChange = "2019-08-11 19:08:19 +0000";
layers = (
{
layerId = "3B122060-26E0-4730-9241-82784E6CB359";
paths = (
{
closed = 1;
nodes = (
"283 -5 OFFCURVE",
"317 24 OFFCURVE",
"318 97 CURVE SMOOTH",
"321 312 OFFCURVE",
"321 485 OFFCURVE",
"318 701 CURVE SMOOTH",
"317 774 OFFCURVE",
"283 803 OFFCURVE",
"199 803 CURVE SMOOTH",
"110 803 OFFCURVE",
"74 774 OFFCURVE",
"72 701 CURVE SMOOTH",
"70 647 OFFCURVE",
"71 595 OFFCURVE",
"73 516 CURVE",
"113 516 LINE",
"112 605 OFFCURVE",
"111 658 OFFCURVE",
"112 701 CURVE SMOOTH",
"113 751 OFFCURVE",
"132 764 OFFCURVE",
"199 764 CURVE SMOOTH",
"260 764 OFFCURVE",
"277 751 OFFCURVE",
"278 701 CURVE SMOOTH",
"281 531 OFFCURVE",
"282 447 OFFCURVE",
"282 408 CURVE",
"76 408 LINE",
"75 265 OFFCURVE",
"75 176 OFFCURVE",
"76 97 CURVE SMOOTH",
"77 24 OFFCURVE",
"112 -5 OFFCURVE",
"200 -5 CURVE SMOOTH"
);
},
{
closed = 1;
nodes = (
"135 33 OFFCURVE",
"117 47 OFFCURVE",
"116 97 CURVE SMOOTH",
"115 153 OFFCURVE",
"115 231 OFFCURVE",
"116 370 CURVE",
"282 370 LINE",
"280 247 OFFCURVE",
"279 169 OFFCURVE",
"278 97 CURVE SMOOTH",
"277 47 OFFCURVE",
"260 33 OFFCURVE",
"200 33 CURVE SMOOTH"
);
}
);
width = 389;
},
{
layerId = "1DFA7D5B-2E97-4B89-827F-FB43F8066DC1";
paths = (
{
closed = 1;
nodes = (
"419 -10 OFFCURVE",
"482 47 OFFCURVE",
"484 189 CURVE SMOOTH",
"487 340 OFFCURVE",
"487 460 OFFCURVE",
"484 609 CURVE SMOOTH",
"481 753 OFFCURVE",
"418 810 OFFCURVE",
"263 810 CURVE SMOOTH",
"108 810 OFFCURVE",
"45 753 OFFCURVE",
"41 609 CURVE SMOOTH",
"40 570 OFFCURVE",
"40 539 OFFCURVE",
"41 500 CURVE",
"191 500 LINE",
"190 536 OFFCURVE",
"190 601 OFFCURVE",
"191 637 CURVE SMOOTH",
"192 670 OFFCURVE",
"218 688 OFFCURVE",
"263 688 CURVE SMOOTH",
"308 688 OFFCURVE",
"333 670 OFFCURVE",
"334 637 CURVE SMOOTH",
"336 575 OFFCURVE",
"337 510 OFFCURVE",
"338 444 CURVE",
"45 444 LINE",
"44 341 OFFCURVE",
"44 273 OFFCURVE",
"45 190 CURVE SMOOTH",
"47 47 OFFCURVE",
"109 -10 OFFCURVE",
"263 -10 CURVE SMOOTH"
);
},
{
closed = 1;
nodes = (
"220 112 OFFCURVE",
"196 130 OFFCURVE",
"195 162 CURVE SMOOTH",
"193 219 OFFCURVE",
"192 277 OFFCURVE",
"192 341 CURVE",
"338 341 LINE",
"337 280 OFFCURVE",
"336 220 OFFCURVE",
"334 162 CURVE SMOOTH",
"333 130 OFFCURVE",
"308 112 OFFCURVE",
"263 112 CURVE SMOOTH"
);
}
);
width = 526;
},
{
layerId = "5013C991-8699-46CB-BB1C-82E334DBD38B";
paths = (
{
closed = 1;
nodes = (
"400 -10 OFFCURVE",
"462 67 OFFCURVE",
"464 189 CURVE SMOOTH",
"466 302 OFFCURVE",
"466 498 OFFCURVE",
"464 609 CURVE SMOOTH",
"461 753 OFFCURVE",
"404 810 OFFCURVE",
"253 810 CURVE SMOOTH",
"106 810 OFFCURVE",
"45 753 OFFCURVE",
"41 609 CURVE SMOOTH",
"40 577 OFFCURVE",
"40 532 OFFCURVE",
"41 500 CURVE",
"191 500 LINE",
"190 536 OFFCURVE",
"190 601 OFFCURVE",
"191 637 CURVE SMOOTH",
"192 670 OFFCURVE",
"214 688 OFFCURVE",
"253 688 CURVE SMOOTH",
"291 688 OFFCURVE",
"313 670 OFFCURVE",
"314 637 CURVE SMOOTH",
"316 580 OFFCURVE",
"317 513 OFFCURVE",
"318 444 CURVE",
"45 444 LINE",
"44 341 OFFCURVE",
"44 273 OFFCURVE",
"45 190 CURVE SMOOTH",
"47 47 OFFCURVE",
"109 -10 OFFCURVE",
"253 -10 CURVE SMOOTH"
);
},
{
closed = 1;
nodes = (
"217 112 OFFCURVE",
"196 130 OFFCURVE",
"195 162 CURVE SMOOTH",
"193 219 OFFCURVE",
"192 277 OFFCURVE",
"192 341 CURVE",
"318 341 LINE",
"317 277 OFFCURVE",
"316 216 OFFCURVE",
"314 162 CURVE SMOOTH",
"313 130 OFFCURVE",
"291 112 OFFCURVE",
"253 112 CURVE SMOOTH"
);
}
);
width = 505;
},
{
layerId = "3D06B89B-468F-44E0-A3D7-A5BC6911123E";
paths = (
{
closed = 1;
nodes = (
"221 -6 OFFCURVE",
"246 21 OFFCURVE",
"247 87 CURVE SMOOTH",
"251 309 OFFCURVE",
"251 488 OFFCURVE",
"247 711 CURVE SMOOTH",
"246 777 OFFCURVE",
"221 804 OFFCURVE",
"158 804 CURVE SMOOTH",
"91 804 OFFCURVE",
"63 777 OFFCURVE",
"61 711 CURVE SMOOTH",
"59 654 OFFCURVE",
"60 598 OFFCURVE",
"62 516 CURVE",
"82 516 LINE",
"81 609 OFFCURVE",
"80 665 OFFCURVE",
"81 711 CURVE SMOOTH",
"82 763 OFFCURVE",
"104 784 OFFCURVE",
"158 784 CURVE SMOOTH",
"206 784 OFFCURVE",
"226 763 OFFCURVE",
"227 711 CURVE SMOOTH",
"229 603 OFFCURVE",
"230 505 OFFCURVE",
"230 408 CURVE",
"65 408 LINE",
"64 299 OFFCURVE",
"64 207 OFFCURVE",
"65 87 CURVE SMOOTH",
"66 21 OFFCURVE",
"93 -6 OFFCURVE",
"159 -6 CURVE SMOOTH"
);
},
{
closed = 1;
nodes = (
"107 14 OFFCURVE",
"86 35 OFFCURVE",
"85 87 CURVE SMOOTH",
"84 199 OFFCURVE",
"84 287 OFFCURVE",
"85 388 CURVE",
"230 388 LINE",
"230 291 OFFCURVE",
"229 194 OFFCURVE",
"227 87 CURVE SMOOTH",
"226 35 OFFCURVE",
"207 14 OFFCURVE",
"159 14 CURVE SMOOTH"
);
}
);
width = 310;
},
{
layerId = "77772675-63BC-4C39-8CE0-5446587E214D";
paths = (
{
closed = 1;
nodes = (
"313 -6 OFFCURVE",
"353 29 OFFCURVE",
"355 115 CURVE SMOOTH",
"358 317 OFFCURVE",
"358 480 OFFCURVE",
"355 683 CURVE SMOOTH",
"353 769 OFFCURVE",
"313 804 OFFCURVE",
"214 804 CURVE SMOOTH",
"110 804 OFFCURVE",
"68 769 OFFCURVE",
"66 683 CURVE SMOOTH",
"64 634 OFFCURVE",
"65 585 OFFCURVE",
"67 513 CURVE",
"128 513 LINE",
"127 576 OFFCURVE",
"127 626 OFFCURVE",
"128 688 CURVE SMOOTH",
"129 736 OFFCURVE",
"148 749 OFFCURVE",
"214 749 CURVE SMOOTH",
"275 749 OFFCURVE",
"292 736 OFFCURVE",
"293 688 CURVE SMOOTH",
"296 535 OFFCURVE",
"297 457 OFFCURVE",
"297 415 CURVE",
"70 415 LINE",
"69 274 OFFCURVE",
"69 189 OFFCURVE",
"70 115 CURVE SMOOTH",
"71 29 OFFCURVE",
"112 -6 OFFCURVE",
"214 -6 CURVE SMOOTH"
);
},
{
closed = 1;
nodes = (
"151 49 OFFCURVE",
"133 62 OFFCURVE",
"132 110 CURVE SMOOTH",
"130 185 OFFCURVE",
"130 239 OFFCURVE",
"131 364 CURVE",
"297 364 LINE",
"295 238 OFFCURVE",
"294 183 OFFCURVE",
"293 110 CURVE SMOOTH",
"292 62 OFFCURVE",
"275 49 OFFCURVE",
"214 49 CURVE SMOOTH"
);
}
);
width = 420;
},
{
layerId = "4BC723F9-D357-4E8E-81DA-22F6730CB37E";
paths = (
{
closed = 1;
nodes = (
"256 -7 OFFCURVE",
"288 30 OFFCURVE",
"290 107 CURVE SMOOTH",
"293 308 OFFCURVE",
"293 490 OFFCURVE",
"290 691 CURVE SMOOTH",
"288 772 OFFCURVE",
"257 805 OFFCURVE",
"177 805 CURVE SMOOTH",
"94 805 OFFCURVE",
"59 772 OFFCURVE",
"57 691 CURVE SMOOTH",
"55 639 OFFCURVE",
"56 585 OFFCURVE",
"58 513 CURVE",
"103 513 LINE",
"102 595 OFFCURVE",
"102 652 OFFCURVE",
"103 696 CURVE SMOOTH",
"104 745 OFFCURVE",
"126 765 OFFCURVE",
"177 765 CURVE SMOOTH",
"223 765 OFFCURVE",
"243 745 OFFCURVE",
"244 696 CURVE SMOOTH",
"246 598 OFFCURVE",
"247 507 OFFCURVE",
"247 415 CURVE",
"61 415 LINE",
"60 307 OFFCURVE",
"60 220 OFFCURVE",
"61 107 CURVE SMOOTH",
"62 26 OFFCURVE",
"96 -7 OFFCURVE",
"177 -7 CURVE SMOOTH"
);
},
{
closed = 1;
nodes = (
"129 33 OFFCURVE",
"108 54 OFFCURVE",
"107 102 CURVE SMOOTH",
"105 203 OFFCURVE",
"105 285 OFFCURVE",
"106 379 CURVE",
"247 379 LINE",
"247 288 OFFCURVE",
"246 198 OFFCURVE",
"244 102 CURVE SMOOTH",
"243 54 OFFCURVE",
"223 33 OFFCURVE",
"177 33 CURVE SMOOTH"
);
}
);
width = 347;
}
);
leftKerningGroup = O;
leftMetricsKey = O;
rightKerningGroup = O;
rightMetricsKey = O;
unicode = 018F;
},
{
glyphname = T;
lastChange = "2019-08-09 19:33:38 +0000";
layers = (
{
anchors = (
{
name = bottom;
position = "{172, 0}";
},
{
name = center;
position = "{172, 400}";
},
{
name = top;
position = "{172, 800}";
}
);
layerId = "3B122060-26E0-4730-9241-82784E6CB359";
paths = (
{
closed = 1;
nodes = (
"192 0 LINE",
"192 762 LINE",
"304 762 LINE",
"304 800 LINE",
"40 800 LINE",
"40 762 LINE",
"152 762 LINE",
"152 0 LINE"
);
}
);
width = 344;
},
{
anchors = (
{
name = bottom;
position = "{234, 0}";
},
{
name = center;
position = "{234, 400}";
},
{
name = top;
position = "{234, 800}";
}
);
layerId = "1DFA7D5B-2E97-4B89-827F-FB43F8066DC1";
paths = (
{
closed = 1;
nodes = (
"309 0 LINE",
"309 668 LINE",
"447 668 LINE",
"447 800 LINE",
"20 800 LINE",
"20 668 LINE",
"159 668 LINE",
"159 0 LINE"
);
}
);
width = 467;
},
{
anchors = (
{
name = bottom;
position = "{224, 0}";
},
{
name = center;
position = "{224, 400}";
},
{
name = top;
position = "{224, 800}";
}
);
layerId = "5013C991-8699-46CB-BB1C-82E334DBD38B";
paths = (
{
closed = 1;
nodes = (
"299 0 LINE",
"299 668 LINE",
"427 668 LINE",
"427 800 LINE",
"20 800 LINE",
"20 668 LINE",
"149 668 LINE",
"149 0 LINE"
);
}
);
width = 447;
},
{
anchors = (
{
name = bottom;
position = "{127, 0}";
},
{
name = center;
position = "{127, 400}";
},
{
name = top;
position = "{127, 800}";
}
);
layerId = "3D06B89B-468F-44E0-A3D7-A5BC6911123E";
paths = (
{
closed = 1;
nodes = (
"137 0 LINE",
"137 780 LINE",
"224 780 LINE",
"224 800 LINE",
"30 800 LINE",
"30 780 LINE",
"117 780 LINE",
"117 0 LINE"
);
}
);
width = 254;
},
{
anchors = (
{
name = bottom;
position = "{184, 0}";
},
{
name = center;
position = "{184, 400}";
},
{
name = top;
position = "{184, 800}";
}
);
layerId = "77772675-63BC-4C39-8CE0-5446587E214D";
paths = (
{
closed = 1;
nodes = (
"215 0 LINE",
"215 744 LINE",
"332 744 LINE",
"332 800 LINE",
"36 800 LINE",
"36 744 LINE",
"153 744 LINE",
"153 0 LINE"
);
}
);
width = 368.13875;
},
{
anchors = (
{
name = bottom;
position = "{146, 0}";
},
{
name = center;
position = "{146, 400}";
},
{
name = top;
position = "{146, 800}";
}
);
layerId = "4BC723F9-D357-4E8E-81DA-22F6730CB37E";
paths = (
{
closed = 1;
nodes = (
"169 0 LINE",
"169 758 LINE",
"264 758 LINE",
"264 800 LINE",
"28 800 LINE",
"28 758 LINE",
"123 758 LINE",
"123 0 LINE"
);
}
);
width = 291.87625;
}
);
leftKerningGroup = V;
rightKerningGroup = V;
unicode = 0054;
},
{
glyphname = Tbar;
lastChange = "2019-08-09 19:33:38 +0000";
layers = (
{
components = (
{
name = T;
}
);
layerId = "3B122060-26E0-4730-9241-82784E6CB359";
paths = (
{
closed = 1;
nodes = (
"232 335 LINE",
"232 373 LINE",
"112 373 LINE",
"112 335 LINE"
);
}
);
width = 344;
},
{
components = (
{
name = T;
}
);
layerId = "1DFA7D5B-2E97-4B89-827F-FB43F8066DC1";
paths = (
{
closed = 1;
nodes = (
"374 305 LINE",
"374 377 LINE",
"94 377 LINE",
"94 305 LINE"
);
}
);
width = 467;
},
{
components = (
{
name = T;
}
);
layerId = "5013C991-8699-46CB-BB1C-82E334DBD38B";
paths = (
{
closed = 1;
nodes = (
"374 305 LINE",
"374 377 LINE",
"94 377 LINE",
"94 305 LINE"
);
}
);
width = 447;
},
{
components = (
{
name = T;
}
);
layerId = "3D06B89B-468F-44E0-A3D7-A5BC6911123E";
paths = (
{
closed = 1;
nodes = (
"191 344 LINE",
"191 364 LINE",
"71 364 LINE",
"71 344 LINE"
);
}
);
width = 254;
},
{
components = (
{
alignment = -1;
name = T;
}
);
layerId = "77772675-63BC-4C39-8CE0-5446587E214D";
paths = (
{
closed = 1;
nodes = (
"260 329 LINE",
"260 374 LINE",
"108 374 LINE",
"108 329 LINE"
);
}
);
width = 368.13875;
},
{
components = (
{
alignment = -1;
name = T;
}
);
layerId = "4BC723F9-D357-4E8E-81DA-22F6730CB37E";
paths = (
{
closed = 1;
nodes = (
"227 336 LINE",
"227 367 LINE",
"76 367 LINE",
"76 336 LINE"
);
}
);
width = 291.87625;
}
);
leftKerningGroup = V;
leftMetricsKey = T;
rightKerningGroup = V;
rightMetricsKey = T;
unicode = 0166;
},
{
glyphname = U;
lastChange = "2019-08-09 19:33:38 +0000";
layers = (
{
anchors = (
{
name = bottom;
position = "{187, 0}";
},
{
name = ogonekalt;
position = "{248, -20}";
},
{
name = top;
position = "{187, 800}";
},
{
name = topright;
position = "{324, 800}";
}
);
layerId = "3B122060-26E0-4730-9241-82784E6CB359";
paths = (
{
closed = 1;
nodes = (
"269 -5 OFFCURVE",
"302 24 OFFCURVE",
"303 95 CURVE SMOOTH",
"306 334 OFFCURVE",
"305 561 OFFCURVE",
"303 800 CURVE",
"263 800 LINE",
"265 561 OFFCURVE",
"263 334 OFFCURVE",
"263 95 CURVE SMOOTH",
"263 48 OFFCURVE",
"247 35 OFFCURVE",
"187 35 CURVE SMOOTH",
"127 35 OFFCURVE",
"110 48 OFFCURVE",
"110 95 CURVE SMOOTH",
"110 334 OFFCURVE",
"109 561 OFFCURVE",
"111 800 CURVE",
"71 800 LINE",
"69 561 OFFCURVE",
"68 334 OFFCURVE",
"71 95 CURVE SMOOTH",
"72 24 OFFCURVE",
"105 -5 OFFCURVE",
"187 -5 CURVE SMOOTH"
);
}
);
width = 374;
},
{
anchors = (
{
name = bottom;
position = "{263, 0}";
},
{
name = ogonekalt;
position = "{385, 1}";
},
{
name = top;
position = "{263, 800}";
},
{
name = topright;
position = "{494, 800}";
}
);
layerId = "1DFA7D5B-2E97-4B89-827F-FB43F8066DC1";
paths = (
{
closed = 1;
nodes = (
"418 -10 OFFCURVE",
"481 47 OFFCURVE",
"483 191 CURVE SMOOTH",
"486 392 OFFCURVE",
"486 599 OFFCURVE",
"483 800 CURVE",
"333 800 LINE",
"337 599 OFFCURVE",
"335 374 OFFCURVE",
"333 173 CURVE SMOOTH",
"333 134 OFFCURVE",
"308 112 OFFCURVE",
"263 112 CURVE SMOOTH",
"217 112 OFFCURVE",
"192 134 OFFCURVE",
"192 173 CURVE SMOOTH",
"190 374 OFFCURVE",
"188 599 OFFCURVE",
"192 800 CURVE",
"42 800 LINE",
"39 599 OFFCURVE",
"39 392 OFFCURVE",
"42 191 CURVE SMOOTH",
"44 47 OFFCURVE",
"107 -10 OFFCURVE",
"263 -10 CURVE SMOOTH"
);
}
);
width = 525;
},
{
anchors = (
{
name = bottom;
position = "{253, 0}";
},
{
name = ogonekalt;
position = "{375, 1}";
},
{
name = top;
position = "{253, 800}";
},
{
name = topright;
position = "{484, 800}";
}
);
layerId = "5013C991-8699-46CB-BB1C-82E334DBD38B";
paths = (
{
closed = 1;
nodes = (
"402 -10 OFFCURVE",
"461 47 OFFCURVE",
"463 191 CURVE SMOOTH",
"466 392 OFFCURVE",
"466 599 OFFCURVE",
"463 800 CURVE",
"313 800 LINE",
"317 599 OFFCURVE",
"315 364 OFFCURVE",
"313 163 CURVE SMOOTH",
"313 130 OFFCURVE",
"292 112 OFFCURVE",
"253 112 CURVE SMOOTH",
"214 112 OFFCURVE",
"192 130 OFFCURVE",
"192 163 CURVE SMOOTH",
"190 364 OFFCURVE",
"188 599 OFFCURVE",
"192 800 CURVE",
"42 800 LINE",
"39 599 OFFCURVE",
"39 392 OFFCURVE",
"42 191 CURVE SMOOTH",
"44 47 OFFCURVE",
"103 -10 OFFCURVE",
"253 -10 CURVE SMOOTH"
);
}
);
width = 505;
},
{
anchors = (
{
name = bottom;
position = "{147, 0}";
},
{
name = ogonekalt;
position = "{208, 0}";
},
{
name = top;
position = "{147, 800}";
},
{
name = topright;
position = "{254, 800}";
}
);
layerId = "3D06B89B-468F-44E0-A3D7-A5BC6911123E";
paths = (
{
closed = 1;
nodes = (
"207 -5 OFFCURVE",
"232 21 OFFCURVE",
"233 85 CURVE SMOOTH",
"235 324 OFFCURVE",
"235 561 OFFCURVE",
"233 800 CURVE",
"213 800 LINE",
"215 561 OFFCURVE",
"215 324 OFFCURVE",
"213 85 CURVE SMOOTH",
"213 35 OFFCURVE",
"194 15 OFFCURVE",
"147 15 CURVE SMOOTH",
"100 15 OFFCURVE",
"80 35 OFFCURVE",
"80 85 CURVE SMOOTH",
"78 324 OFFCURVE",
"79 561 OFFCURVE",
"81 800 CURVE",
"61 800 LINE",
"59 561 OFFCURVE",
"59 324 OFFCURVE",
"61 85 CURVE SMOOTH",
"62 21 OFFCURVE",
"87 -5 OFFCURVE",
"147 -5 CURVE SMOOTH"
);
}
);
width = 294;
},
{
anchors = (
{
name = bottom;
position = "{202, 0}";
},
{
name = ogonekalt;
position = "{275, -16}";
},
{
name = top;
position = "{202, 800}";
},
{
name = topright;
position = "{357, 800}";
}
);
layerId = "77772675-63BC-4C39-8CE0-5446587E214D";
paths = (
{
closed = 1;
nodes = (
"298 -6 OFFCURVE",
"337 29 OFFCURVE",
"338 114 CURVE SMOOTH",
"341 345 OFFCURVE",
"341 568 OFFCURVE",
"338 800 CURVE",
"277 800 LINE",
"279 568 OFFCURVE",
"277 342 OFFCURVE",
"277 110 CURVE SMOOTH",
"277 65 OFFCURVE",
"259 50 OFFCURVE",
"202 50 CURVE SMOOTH",
"145 50 OFFCURVE",
"126 65 OFFCURVE",
"126 110 CURVE SMOOTH",
"126 342 OFFCURVE",
"125 568 OFFCURVE",
"127 800 CURVE",
"65 800 LINE",
"63 568 OFFCURVE",
"62 345 OFFCURVE",
"65 114 CURVE SMOOTH",
"67 29 OFFCURVE",
"105 -6 OFFCURVE",
"202 -6 CURVE SMOOTH"
);
}
);
width = 403.63375;
},
{
anchors = (
{
name = bottom;
position = "{168, 0}";
},
{
name = ogonekalt;
position = "{241, 0}";
},
{
name = top;
position = "{168, 800}";
},
{
name = topright;
position = "{299, 800}";
}
);
layerId = "4BC723F9-D357-4E8E-81DA-22F6730CB37E";
paths = (
{
closed = 1;
nodes = (
"245 -6 OFFCURVE",
"277 26 OFFCURVE",
"278 106 CURVE SMOOTH",
"280 337 OFFCURVE",
"280 568 OFFCURVE",
"278 800 CURVE",
"233 800 LINE",
"235 568 OFFCURVE",
"235 332 OFFCURVE",
"233 100 CURVE SMOOTH",
"233 54 OFFCURVE",
"213 34 OFFCURVE",
"168 34 CURVE SMOOTH",
"122 34 OFFCURVE",
"102 54 OFFCURVE",
"102 100 CURVE SMOOTH",
"100 332 OFFCURVE",
"100 568 OFFCURVE",
"103 800 CURVE",
"57 800 LINE",
"55 568 OFFCURVE",
"55 337 OFFCURVE",
"57 106 CURVE SMOOTH",
"58 26 OFFCURVE",
"90 -6 OFFCURVE",
"168 -6 CURVE SMOOTH"
);
}
);
width = 335.40875;
}
);
leftKerningGroup = H;
rightKerningGroup = H;
unicode = 0055;
},
{
glyphname = V;
lastChange = "2019-08-11 19:01:24 +0000";
layers = (
{
layerId = "3B122060-26E0-4730-9241-82784E6CB359";
paths = (
{
closed = 1;
nodes = (
"220 0 LINE",
"294 800 LINE",
"252 800 LINE",
"210 330 LINE",
"184 38 LINE",
"150 38 LINE",
"124 330 LINE",
"82 800 LINE",
"40 800 LINE",
"114 0 LINE"
);
}
);
width = 334;
},
{
layerId = "1DFA7D5B-2E97-4B89-827F-FB43F8066DC1";
paths = (
{
closed = 1;
nodes = (
"398 0 LINE",
"514 800 LINE",
"359 800 LINE",
"300 399 LINE",
"291 132 LINE",
"243 132 LINE",
"234 399 LINE",
"175 800 LINE",
"20 800 LINE",
"136 0 LINE"
);
}
);
width = 534;
},
{
layerId = "5013C991-8699-46CB-BB1C-82E334DBD38B";
paths = (
{
closed = 1;
nodes = (
"378 0 LINE",
"494 800 LINE",
"339 800 LINE",
"280 399 LINE",
"271 132 LINE",
"243 132 LINE",
"234 399 LINE",
"175 800 LINE",
"20 800 LINE",
"136 0 LINE"
);
}
);
width = 514;
},
{
layerId = "3D06B89B-468F-44E0-A3D7-A5BC6911123E";
paths = (
{
closed = 1;
nodes = (
"150 0 LINE",
"224 800 LINE",
"202 800 LINE",
"160 330 LINE",
"133 20 LINE",
"121 20 LINE",
"94 330 LINE",
"52 800 LINE",
"30 800 LINE",
"104 0 LINE"
);
}
);
width = 254;
},
{
layerId = "77772675-63BC-4C39-8CE0-5446587E214D";
paths = (
{
closed = 1;
nodes = (
"257 0 LINE",
"337 800 LINE",
"271 800 LINE",
"230 347 LINE",
"204 62 LINE",
"165 62 LINE",
"140 347 LINE",
"98 800 LINE",
"33 800 LINE",
"112 0 LINE"
);
}
);
width = 370;
},
{
layerId = "4BC723F9-D357-4E8E-81DA-22F6730CB37E";
paths = (
{
closed = 1;
nodes = (
"207 0 LINE",
"292 800 LINE",
"236 800 LINE",
"193 347 LINE",
"168 48 LINE",
"151 48 LINE",
"126 347 LINE",
"83 800 LINE",
"28 800 LINE",
"112 0 LINE"
);
}
);
width = 320;
}
);
leftKerningGroup = V;
rightKerningGroup = V;
unicode = 0056;
},
{
glyphname = W;
lastChange = "2019-08-11 19:02:48 +0000";
layers = (
{
anchors = (
{
name = bottom;
position = "{269, 0}";
},
{
name = top;
position = "{269, 800}";
}
);
layerId = "3B122060-26E0-4730-9241-82784E6CB359";
paths = (
{
closed = 1;
nodes = (
"198 0 LINE",
"218 284 LINE",
"253 757 LINE",
"287 757 LINE",
"321 284 LINE",
"341 0 LINE",
"447 0 LINE",
"491 800 LINE",
"451 800 LINE",
"438 535 LINE",
"411 38 LINE",
"377 38 LINE",
"341 535 LINE",
"323 795 LINE",
"216 795 LINE",
"197 535 LINE",
"162 38 LINE",
"128 38 LINE",
"103 535 LINE",
"90 800 LINE",
"50 800 LINE",
"92 0 LINE"
);
}
);
width = 541;
},
{
anchors = (
{
name = bottom;
position = "{403, 0}";
},
{
name = top;
position = "{403, 800}";
}
);
background = {
paths = (
{
closed = 1;
nodes = (
"356 0 LINE",
"392 281 LINE",
"401 646 LINE",
"426 646 LINE",
"435 281 LINE",
"471 0 LINE",
"732 0 LINE",
"790 800 LINE",
"627 800 LINE",
"614 572 LINE",
"611 132 LINE",
"581 132 LINE",
"571 572 LINE",
"541 795 LINE",
"286 795 LINE",
"256 572 LINE",
"250 132 LINE",
"220 132 LINE",
"213 572 LINE",
"200 800 LINE",
"37 800 LINE",
"95 0 LINE"
);
}
);
};
layerId = "1DFA7D5B-2E97-4B89-827F-FB43F8066DC1";
paths = (
{
closed = 1;
nodes = (
"361 0 LINE",
"398 223 LINE",
"410 668 LINE",
"456 668 LINE",
"468 223 LINE",
"505 0 LINE",
"770 0 LINE",
"846 800 LINE",
"695 800 LINE",
"669 434 LINE",
"654 132 LINE",
"607 132 LINE",
"609 434 LINE",
"539 795 LINE",
"327 795 LINE",
"257 434 LINE",
"259 132 LINE",
"212 132 LINE",
"197 434 LINE",
"171 800 LINE",
"20 800 LINE",
"96 0 LINE"
);
}
);
width = 866;
},
{
anchors = (
{
name = bottom;
position = "{403, 0}";
},
{
name = top;
position = "{403, 800}";
}
);
background = {
paths = (
{
closed = 1;
nodes = (
"356 0 LINE",
"392 281 LINE",
"401 646 LINE",
"426 646 LINE",
"435 281 LINE",
"471 0 LINE",
"732 0 LINE",
"790 800 LINE",
"627 800 LINE",
"614 572 LINE",
"611 132 LINE",
"581 132 LINE",
"571 572 LINE",
"541 795 LINE",
"286 795 LINE",
"256 572 LINE",
"250 132 LINE",
"220 132 LINE",
"213 572 LINE",
"200 800 LINE",
"37 800 LINE",
"95 0 LINE"
);
}
);
};
layerId = "5013C991-8699-46CB-BB1C-82E334DBD38B";
paths = (
{
closed = 1;
nodes = (
"341 0 LINE",
"378 223 LINE",
"390 668 LINE",
"416 668 LINE",
"428 223 LINE",
"465 0 LINE",
"710 0 LINE",
"786 800 LINE",
"635 800 LINE",
"609 434 LINE",
"594 132 LINE",
"567 132 LINE",
"569 434 LINE",
"499 795 LINE",
"307 795 LINE",
"237 434 LINE",
"239 132 LINE",
"212 132 LINE",
"197 434 LINE",
"171 800 LINE",
"20 800 LINE",
"96 0 LINE"
);
}
);
width = 806;
},
{
anchors = (
{
name = bottom;
position = "{191, 0}";
},
{
name = top;
position = "{191, 800}";
}
);
layerId = "3D06B89B-468F-44E0-A3D7-A5BC6911123E";
paths = (
{
closed = 1;
nodes = (
"128 0 LINE",
"148 284 LINE",
"184 775 LINE",
"196 775 LINE",
"231 284 LINE",
"251 0 LINE",
"297 0 LINE",
"341 800 LINE",
"321 800 LINE",
"308 535 LINE",
"280 20 LINE",
"268 20 LINE",
"231 535 LINE",
"213 795 LINE",
"166 795 LINE",
"147 535 LINE",
"111 20 LINE",
"99 20 LINE",
"73 535 LINE",
"60 800 LINE",
"40 800 LINE",
"82 0 LINE"
);
}
);
width = 381;
},
{
anchors = (
{
name = bottom;
position = "{303, 0}";
},
{
name = top;
position = "{303, 800}";
}
);
layerId = "77772675-63BC-4C39-8CE0-5446587E214D";
paths = (
{
closed = 1;
nodes = (
"231 0 LINE",
"250 269 LINE",
"285 735 LINE",
"322 735 LINE",
"356 269 LINE",
"375 0 LINE",
"526 0 LINE",
"578 800 LINE",
"511 800 LINE",
"494 510 LINE",
"471 62 LINE",
"433 62 LINE",
"399 510 LINE",
"376 795 LINE",
"231 795 LINE",
"207 510 LINE",
"174 62 LINE",
"136 62 LINE",
"114 510 LINE",
"98 800 LINE",
"30 800 LINE",
"81 0 LINE"
);
}
);
width = 608;
},
{
anchors = (
{
name = bottom;
position = "{233, 0}";
},
{
name = top;
position = "{233, 800}";
}
);
layerId = "4BC723F9-D357-4E8E-81DA-22F6730CB37E";
paths = (
{
closed = 1;
nodes = (
"181 0 LINE",
"203 269 LINE",
"236 748 LINE",
"251 748 LINE",
"284 269 LINE",
"305 0 LINE",
"408 0 LINE",
"458 800 LINE",
"406 800 LINE",
"391 510 LINE",
"365 48 LINE",
"349 48 LINE",
"316 510 LINE",
"291 795 LINE",
"196 795 LINE",
"170 510 LINE",
"138 48 LINE",
"122 48 LINE",
"97 510 LINE",
"83 800 LINE",
"30 800 LINE",
"79 0 LINE"
);
}
);
width = 488;
}
);
leftKerningGroup = W;
rightKerningGroup = W;
unicode = 0057;
},
{
glyphname = X;
lastChange = "2019-08-09 19:33:38 +0000";
layers = (
{
background = {
paths = (
{
closed = 1;
nodes = (
"82 0 LINE",
"113 193 LINE",
"145 400 LINE",
"157 400 LINE",
"191 198 LINE",
"222 0 LINE",
"244 0 LINE",
"173 424 LINE",
"173 399 LINE",
"239 800 LINE",
"217 800 LINE",
"192 636 LINE",
"157 423 LINE",
"145 423 LINE",
"112 633 LINE",
"87 800 LINE",
"65 800 LINE",
"129 399 LINE",
"129 424 LINE",
"60 0 LINE"
);
}
);
};
layerId = "3B122060-26E0-4730-9241-82784E6CB359";
paths = (
{
closed = 1;
nodes = (
"79 0 LINE",
"116 198 LINE",
"152 383 LINE",
"180 383 LINE",
"216 198 LINE",
"253 0 LINE",
"292 0 LINE",
"215 403 LINE",
"287 800 LINE",
"248 800 LINE",
"211 596 LINE",
"180 421 LINE",
"152 421 LINE",
"120 598 LINE",
"84 800 LINE",
"45 800 LINE",
"117 403 LINE",
"40 0 LINE"
);
}
);
width = 332;
},
{
background = {
paths = (
{
closed = 1;
nodes = (
"173 0 LINE",
"220 197 LINE",
"234 351 LINE",
"261 351 LINE",
"277 197 LINE",
"325 0 LINE",
"476 0 LINE",
"357 448 LINE",
"354 363 LINE",
"472 800 LINE",
"316 800 LINE",
"278 614 LINE",
"264 463 LINE",
"236 463 LINE",
"221 614 LINE",
"183 800 LINE",
"27 800 LINE",
"145 393 LINE",
"140 466 LINE",
"20 0 LINE"
);
}
);
};
guideLines = (
{
position = "{178, 405}";
},
{
angle = 90;
position = "{178, 405}";
}
);
layerId = "1DFA7D5B-2E97-4B89-827F-FB43F8066DC1";
paths = (
{
closed = 1;
nodes = (
"167 0 LINE",
"222 197 LINE",
"235 344 LINE",
"275 344 LINE",
"288 197 LINE",
"341 0 LINE",
"488 0 LINE",
"369 411 LINE",
"485 800 LINE",
"338 800 LINE",
"288 613 LINE",
"275 476 LINE",
"235 476 LINE",
"222 613 LINE",
"170 800 LINE",
"23 800 LINE",
"145 416 LINE",
"20 0 LINE"
);
}
);
width = 508;
},
{
background = {
paths = (
{
closed = 1;
nodes = (
"153 0 LINE",
"200 197 LINE",
"214 351 LINE",
"241 351 LINE",
"257 197 LINE",
"305 0 LINE",
"456 0 LINE",
"337 448 LINE",
"334 363 LINE",
"452 800 LINE",
"296 800 LINE",
"258 614 LINE",
"244 463 LINE",
"216 463 LINE",
"201 614 LINE",
"163 800 LINE",
"7 800 LINE",
"125 393 LINE",
"120 466 LINE",
"0 0 LINE"
);
}
);
};
guideLines = (
{
position = "{158, 405}";
},
{
angle = 90;
position = "{158, 405}";
}
);
layerId = "5013C991-8699-46CB-BB1C-82E334DBD38B";
paths = (
{
closed = 1;
nodes = (
"167 0 LINE",
"222 197 LINE",
"235 344 LINE",
"255 344 LINE",
"268 197 LINE",
"321 0 LINE",
"468 0 LINE",
"349 411 LINE",
"465 800 LINE",
"318 800 LINE",
"268 613 LINE",
"255 476 LINE",
"235 476 LINE",
"222 613 LINE",
"170 800 LINE",
"23 800 LINE",
"145 416 LINE",
"20 0 LINE"
);
}
);
width = 488;
},
{
background = {
paths = (
{
closed = 1;
nodes = (
"42 0 LINE",
"73 193 LINE",
"105 400 LINE",
"117 400 LINE",
"151 198 LINE",
"182 0 LINE",
"204 0 LINE",
"133 424 LINE",
"133 399 LINE",
"199 800 LINE",
"177 800 LINE",
"152 636 LINE",
"117 423 LINE",
"105 423 LINE",
"72 633 LINE",
"47 800 LINE",
"25 800 LINE",
"89 399 LINE",
"89 424 LINE",
"20 0 LINE"
);
}
);
};
layerId = "3D06B89B-468F-44E0-A3D7-A5BC6911123E";
paths = (
{
closed = 1;
nodes = (
"49 0 LINE",
"86 198 LINE",
"123 392 LINE",
"129 392 LINE",
"166 198 LINE",
"203 0 LINE",
"222 0 LINE",
"145 403 LINE",
"217 800 LINE",
"198 800 LINE",
"166 619 LINE",
"129 412 LINE",
"123 412 LINE",
"86 619 LINE",
"54 800 LINE",
"35 800 LINE",
"107 403 LINE",
"30 0 LINE"
);
}
);
width = 252;
},
{
layerId = "77772675-63BC-4C39-8CE0-5446587E214D";
paths = (
{
closed = 1;
nodes = (
"96 0 LINE",
"137 198 LINE",
"168 375 LINE",
"199 375 LINE",
"230 198 LINE",
"270 0 LINE",
"330 0 LINE",
"245 405 LINE",
"326 800 LINE",
"266 800 LINE",
"226 599 LINE",
"199 432 LINE",
"168 432 LINE",
"140 601 LINE",
"101 800 LINE",
"41 800 LINE",
"122 406 LINE",
"36 0 LINE"
);
}
);
width = 366.54;
},
{
layerId = "4BC723F9-D357-4E8E-81DA-22F6730CB37E";
paths = (
{
closed = 1;
nodes = (
"72 0 LINE",
"113 198 LINE",
"145 383 LINE",
"154 383 LINE",
"186 198 LINE",
"226 0 LINE",
"270 0 LINE",
"185 405 LINE",
"266 800 LINE",
"222 800 LINE",
"186 618 LINE",
"154 425 LINE",
"145 425 LINE",
"113 618 LINE",
"77 800 LINE",
"33 800 LINE",
"114 406 LINE",
"28 0 LINE"
);
}
);
width = 298.315;
}
);
leftKerningGroup = X;
rightKerningGroup = X;
unicode = 0058;
},
{
glyphname = Y;
lastChange = "2019-08-11 18:59:56 +0000";
layers = (
{
anchors = (
{
name = bottom;
position = "{167, 0}";
},
{
name = top;
position = "{167, 800}";
},
{
name = topleft;
position = "{50, 800}";
}
);
layerId = "3B122060-26E0-4730-9241-82784E6CB359";
paths = (
{
closed = 1;
nodes = (
"187 0 LINE",
"187 290 LINE",
"218 290 LINE",
"294 800 LINE",
"252 800 LINE",
"216 556 LINE",
"183 331 LINE",
"151 331 LINE",
"118 556 LINE",
"82 800 LINE",
"40 800 LINE",
"116 290 LINE",
"147 290 LINE",
"147 0 LINE"
);
}
);
width = 334;
},
{
anchors = (
{
name = bottom;
position = "{246, 0}";
},
{
name = top;
position = "{246, 800}";
},
{
name = topleft;
position = "{20, 800}";
}
);
layerId = "1DFA7D5B-2E97-4B89-827F-FB43F8066DC1";
paths = (
{
closed = 1;
nodes = (
"320 0 LINE",
"320 255 LINE",
"335 255 LINE",
"470 800 LINE",
"317 800 LINE",
"274 606 LINE",
"259 371 LINE",
"231 371 LINE",
"216 606 LINE",
"173 800 LINE",
"20 800 LINE",
"154 255 LINE",
"170 255 LINE",
"170 0 LINE"
);
}
);
width = 490;
},
{
anchors = (
{
name = bottom;
position = "{246, 0}";
},
{
name = top;
position = "{240, 800}";
},
{
name = topleft;
position = "{20, 800}";
}
);
layerId = "5013C991-8699-46CB-BB1C-82E334DBD38B";
paths = (
{
closed = 1;
nodes = (
"320 0 LINE",
"320 191 LINE",
"331 237 LINE",
"470 800 LINE",
"317 800 LINE",
"274 606 LINE",
"259 371 LINE",
"231 371 LINE",
"216 606 LINE",
"173 800 LINE",
"20 800 LINE",
"159 236 LINE",
"170 191 LINE",
"170 0 LINE"
);
}
);
width = 490;
},
{
anchors = (
{
name = bottom;
position = "{127, 0}";
},
{
name = top;
position = "{127, 800}";
},
{
name = topleft;
position = "{30, 800}";
}
);
layerId = "3D06B89B-468F-44E0-A3D7-A5BC6911123E";
paths = (
{
closed = 1;
nodes = (
"137 0 LINE",
"137 219 LINE",
"142 251 LINE",
"224 800 LINE",
"202 800 LINE",
"166 556 LINE",
"133 331 LINE",
"121 331 LINE",
"88 556 LINE",
"52 800 LINE",
"30 800 LINE",
"112 251 LINE",
"117 219 LINE",
"117 0 LINE"
);
}
);
width = 254;
},
{
anchors = (
{
name = bottom;
position = "{179, 0}";
},
{
name = top;
position = "{179, 800}";
},
{
name = topleft;
position = "{35, 800}";
}
);
layerId = "77772675-63BC-4C39-8CE0-5446587E214D";
paths = (
{
closed = 1;
nodes = (
"213 0 LINE",
"213 281 LINE",
"240 281 LINE",
"323 800 LINE",
"261 800 LINE",
"228 569 LINE",
"195 341 LINE",
"164 341 LINE",
"130 569 LINE",
"97 800 LINE",
"36 800 LINE",
"118 281 LINE",
"145 281 LINE",
"145 0 LINE"
);
}
);
width = 359;
},
{
anchors = (
{
name = bottom;
position = "{157, 0}";
},
{
name = top;
position = "{155, 800}";
},
{
name = topleft;
position = "{28, 800}";
}
);
layerId = "4BC723F9-D357-4E8E-81DA-22F6730CB37E";
paths = (
{
closed = 1;
nodes = (
"183 0 LINE",
"183 213 LINE",
"189 250 LINE",
"286 800 LINE",
"231 800 LINE",
"196 569 LINE",
"165 341 LINE",
"149 341 LINE",
"118 569 LINE",
"82 800 LINE",
"28 800 LINE",
"124 249 LINE",
"130 214 LINE",
"130 0 LINE"
);
}
);
width = 300.315;
}
);
leftKerningGroup = V;
rightKerningGroup = V;
unicode = 0059;
},
{
glyphname = Z;
lastChange = "2019-08-09 19:33:38 +0000";
layers = (
{
anchors = (
{
name = bottom;
position = "{140, 0}";
},
{
name = center;
position = "{140, 400}";
},
{
name = top;
position = "{153, 800}";
}
);
layerId = "3B122060-26E0-4730-9241-82784E6CB359";
paths = (
{
closed = 1;
nodes = (
"239 0 LINE",
"239 38 LINE",
"82 38 LINE",
"259 765 LINE",
"259 800 LINE",
"51 800 LINE",
"51 762 LINE",
"217 762 LINE",
"40 33 LINE",
"40 0 LINE"
);
}
);
width = 299;
},
{
anchors = (
{
name = bottom;
position = "{209, 0}";
},
{
name = center;
position = "{209, 400}";
},
{
name = top;
position = "{225, 800}";
}
);
layerId = "1DFA7D5B-2E97-4B89-827F-FB43F8066DC1";
paths = (
{
closed = 1;
nodes = (
"408 0 LINE",
"408 132 LINE",
"172 132 LINE",
"423 672 LINE",
"423 800 LINE",
"32 800 LINE",
"32 668 LINE",
"262 668 LINE",
"20 125 LINE",
"20 0 LINE"
);
}
);
width = 443;
},
{
anchors = (
{
name = bottom;
position = "{209, 0}";
},
{
name = center;
position = "{209, 400}";
},
{
name = top;
position = "{209, 800}";
}
);
layerId = "5013C991-8699-46CB-BB1C-82E334DBD38B";
paths = (
{
closed = 1;
nodes = (
"388 0 LINE",
"388 132 LINE",
"170 132 LINE",
"403 672 LINE",
"403 800 LINE",
"32 800 LINE",
"32 668 LINE",
"243 668 LINE",
"20 125 LINE",
"20 0 LINE"
);
}
);
width = 423;
},
{
anchors = (
{
name = bottom;
position = "{130, 0}";
},
{
name = center;
position = "{130, 400}";
},
{
name = top;
position = "{130, 800}";
}
);
layerId = "3D06B89B-468F-44E0-A3D7-A5BC6911123E";
paths = (
{
closed = 1;
nodes = (
"209 0 LINE",
"209 20 LINE",
"52 20 LINE",
"229 785 LINE",
"229 800 LINE",
"41 800 LINE",
"41 780 LINE",
"206 780 LINE",
"30 15 LINE",
"30 0 LINE"
);
}
);
width = 259;
},
{
anchors = (
{
name = bottom;
position = "{154, 0}";
},
{
name = center;
position = "{154, 400}";
},
{
name = top;
position = "{167, 800}";
}
);
layerId = "77772675-63BC-4C39-8CE0-5446587E214D";
paths = (
{
closed = 1;
nodes = (
"272 0 LINE",
"272 56 LINE",
"100 56 LINE",
"291 747 LINE",
"291 800 LINE",
"47 800 LINE",
"47 744 LINE",
"226 744 LINE",
"36 51 LINE",
"36 0 LINE"
);
}
);
width = 327.26;
},
{
anchors = (
{
name = bottom;
position = "{146, 0}";
},
{
name = center;
position = "{146, 400}";
},
{
name = top;
position = "{146, 800}";
}
);
layerId = "4BC723F9-D357-4E8E-81DA-22F6730CB37E";
paths = (
{
closed = 1;
nodes = (
"244 0 LINE",
"244 42 LINE",
"75 42 LINE",
"263 763 LINE",
"263 800 LINE",
"39 800 LINE",
"39 758 LINE",
"213 758 LINE",
"28 37 LINE",
"28 0 LINE"
);
}
);
width = 291.185;
}
);
leftKerningGroup = Z;
rightKerningGroup = Z;
unicode = 005A;
},
{
glyphname = R.ss01;
lastChange = "2019-08-09 19:33:38 +0000";
layers = (
{
anchors = (
{
name = bottom;
position = "{165, 0}";
},
{
name = top;
position = "{165, 800}";
}
);
layerId = "3B122060-26E0-4730-9241-82784E6CB359";
paths = (
{
closed = 1;
nodes = (
"110 0 LINE",
"110 358 LINE",
"172 358 LINE SMOOTH",
"223 358 OFFCURVE",
"237 344 OFFCURVE",
"238 294 CURVE SMOOTH",
"240 200 OFFCURVE",
"240 116 OFFCURVE",
"239 0 CURVE",
"279 0 LINE",
"280 115 OFFCURVE",
"279 199 OFFCURVE",
"278 294 CURVE SMOOTH",
"277 345 OFFCURVE",
"258 370 OFFCURVE",
"215 376 CURVE",
"215 380 LINE",
"256 387 OFFCURVE",
"274 412 OFFCURVE",
"276 462 CURVE SMOOTH",
"279 533 OFFCURVE",
"279 603 OFFCURVE",
"276 707 CURVE SMOOTH",
"274 773 OFFCURVE",
"241 800 OFFCURVE",
"160 800 CURVE SMOOTH",
"70 800 LINE",
"70 0 LINE"
);
},
{
closed = 1;
nodes = (
"110 760 LINE",
"160 760 LINE SMOOTH",
"218 760 OFFCURVE",
"234 749 OFFCURVE",
"236 707 CURVE SMOOTH",
"239 619 OFFCURVE",
"239 548 OFFCURVE",
"236 460 CURVE SMOOTH",
"234 410 OFFCURVE",
"219 396 OFFCURVE",
"169 396 CURVE SMOOTH",
"110 396 LINE"
);
}
);
width = 349;
},
{
anchors = (
{
name = bottom;
position = "{246, 0}";
},
{
name = top;
position = "{246, 800}";
}
);
background = {
paths = (
{
closed = 1;
nodes = (
"265 655 OFFCURVE",
"288 635 OFFCURVE",
"288 600 CURVE SMOOTH",
"288 505 LINE SMOOTH",
"288 463 OFFCURVE",
"265 440 OFFCURVE",
"223 440 CURVE SMOOTH",
"133 440 LINE",
"133 363 LINE",
"223 364 LINE SMOOTH",
"373 366 OFFCURVE",
"434 411 OFFCURVE",
"438 533 CURVE SMOOTH",
"439 562 OFFCURVE",
"439 575 OFFCURVE",
"438 605 CURVE SMOOTH",
"433 744 OFFCURVE",
"371 800 OFFCURVE",
"223 800 CURVE SMOOTH",
"137 800 LINE",
"137 655 LINE",
"223 655 LINE SMOOTH"
);
},
{
closed = 1;
nodes = (
"180 0 LINE",
"180 800 LINE",
"30 800 LINE",
"30 0 LINE"
);
},
{
closed = 1;
nodes = (
"462 9 LINE",
"449 27 OFFCURVE",
"438 65 OFFCURVE",
"437 88 CURVE SMOOTH",
"434 215 LINE SMOOTH",
"431 343 OFFCURVE",
"372 394 OFFCURVE",
"227 394 CURVE SMOOTH",
"133 394 LINE",
"133 310 LINE",
"221 310 LINE SMOOTH",
"262 310 OFFCURVE",
"283 284 OFFCURVE",
"284 238 CURVE SMOOTH",
"287 88 LINE SMOOTH",
"288 53 OFFCURVE",
"301 22 OFFCURVE",
"323 0 CURVE",
"462 0 LINE"
);
},
{
closed = 1;
nodes = (
"307 367 LINE",
"339 367 LINE",
"339 391 LINE",
"307 391 LINE"
);
}
);
};
layerId = "1DFA7D5B-2E97-4B89-827F-FB43F8066DC1";
paths = (
{
closed = 1;
nodes = (
"190 0 LINE",
"190 307 LINE",
"251 307 LINE SMOOTH",
"292 307 OFFCURVE",
"315 281 OFFCURVE",
"317 235 CURVE SMOOTH",
"320 161 OFFCURVE",
"322 74 OFFCURVE",
"321 0 CURVE",
"471 0 LINE",
"472 69 OFFCURVE",
"470 145 OFFCURVE",
"467 214 CURVE SMOOTH",
"463 296 OFFCURVE",
"432 339 OFFCURVE",
"359 357 CURVE",
"359 380 LINE",
"433 399 OFFCURVE",
"465 443 OFFCURVE",
"468 522 CURVE SMOOTH",
"469 551 OFFCURVE",
"469 575 OFFCURVE",
"468 605 CURVE SMOOTH",
"463 744 OFFCURVE",
"402 800 OFFCURVE",
"253 800 CURVE SMOOTH",
"40 800 LINE",
"40 0 LINE"
);
},
{
closed = 1;
nodes = (
"190 668 LINE",
"253 668 LINE SMOOTH",
"295 668 OFFCURVE",
"318 648 OFFCURVE",
"318 613 CURVE SMOOTH",
"318 577 OFFCURVE",
"318 541 OFFCURVE",
"318 505 CURVE SMOOTH",
"318 463 OFFCURVE",
"295 440 OFFCURVE",
"253 440 CURVE SMOOTH",
"190 440 LINE"
);
}
);
width = 511;
},
{
anchors = (
{
name = bottom;
position = "{236, 0}";
},
{
name = top;
position = "{236, 800}";
}
);
background = {
paths = (
{
closed = 1;
nodes = (
"265 655 OFFCURVE",
"288 635 OFFCURVE",
"288 600 CURVE SMOOTH",
"288 505 LINE SMOOTH",
"288 463 OFFCURVE",
"265 440 OFFCURVE",
"223 440 CURVE SMOOTH",
"133 440 LINE",
"133 363 LINE",
"223 364 LINE SMOOTH",
"373 366 OFFCURVE",
"434 411 OFFCURVE",
"438 533 CURVE SMOOTH",
"439 562 OFFCURVE",
"439 575 OFFCURVE",
"438 605 CURVE SMOOTH",
"433 744 OFFCURVE",
"371 800 OFFCURVE",
"223 800 CURVE SMOOTH",
"137 800 LINE",
"137 655 LINE",
"223 655 LINE SMOOTH"
);
},
{
closed = 1;
nodes = (
"180 0 LINE",
"180 800 LINE",
"30 800 LINE",
"30 0 LINE"
);
},
{
closed = 1;
nodes = (
"462 9 LINE",
"449 27 OFFCURVE",
"438 65 OFFCURVE",
"437 88 CURVE SMOOTH",
"434 215 LINE SMOOTH",
"431 343 OFFCURVE",
"372 394 OFFCURVE",
"227 394 CURVE SMOOTH",
"133 394 LINE",
"133 310 LINE",
"221 310 LINE SMOOTH",
"262 310 OFFCURVE",
"283 284 OFFCURVE",
"284 238 CURVE SMOOTH",
"287 88 LINE SMOOTH",
"288 53 OFFCURVE",
"301 22 OFFCURVE",
"323 0 CURVE",
"462 0 LINE"
);
},
{
closed = 1;
nodes = (
"307 367 LINE",
"339 367 LINE",
"339 391 LINE",
"307 391 LINE"
);
}
);
};
layerId = "5013C991-8699-46CB-BB1C-82E334DBD38B";
paths = (
{
closed = 1;
nodes = (
"190 0 LINE",
"190 307 LINE",
"231 307 LINE SMOOTH",
"272 307 OFFCURVE",
"295 281 OFFCURVE",
"297 235 CURVE SMOOTH",
"300 161 OFFCURVE",
"302 74 OFFCURVE",
"301 0 CURVE",
"451 0 LINE",
"452 69 OFFCURVE",
"450 145 OFFCURVE",
"447 214 CURVE SMOOTH",
"443 296 OFFCURVE",
"412 339 OFFCURVE",
"339 357 CURVE",
"339 380 LINE",
"413 399 OFFCURVE",
"445 443 OFFCURVE",
"448 522 CURVE SMOOTH",
"449 551 OFFCURVE",
"449 575 OFFCURVE",
"448 605 CURVE SMOOTH",
"443 744 OFFCURVE",
"382 800 OFFCURVE",
"233 800 CURVE SMOOTH",
"40 800 LINE",
"40 0 LINE"
);
},
{
closed = 1;
nodes = (
"190 668 LINE",
"233 668 LINE SMOOTH",
"275 668 OFFCURVE",
"298 648 OFFCURVE",
"298 613 CURVE SMOOTH",
"298 577 OFFCURVE",
"298 541 OFFCURVE",
"298 505 CURVE SMOOTH",
"298 463 OFFCURVE",
"275 440 OFFCURVE",
"233 440 CURVE SMOOTH",
"190 440 LINE"
);
}
);
width = 491;
},
{
anchors = (
{
name = bottom;
position = "{147, 0}";
},
{
name = top;
position = "{140, 800}";
}
);
layerId = "3D06B89B-468F-44E0-A3D7-A5BC6911123E";
paths = (
{
closed = 1;
nodes = (
"80 0 LINE",
"80 367 LINE",
"142 367 LINE SMOOTH",
"188 367 OFFCURVE",
"207 346 OFFCURVE",
"208 294 CURVE SMOOTH",
"210 200 OFFCURVE",
"210 116 OFFCURVE",
"209 0 CURVE",
"229 0 LINE",
"230 69 OFFCURVE",
"229 153 OFFCURVE",
"228 294 CURVE SMOOTH",
"227 338 OFFCURVE",
"214 361 OFFCURVE",
"185 371 CURVE",
"185 385 LINE",
"212 395 OFFCURVE",
"225 419 OFFCURVE",
"226 462 CURVE SMOOTH",
"229 533 OFFCURVE",
"229 603 OFFCURVE",
"226 707 CURVE SMOOTH",
"224 773 OFFCURVE",
"199 800 OFFCURVE",
"140 800 CURVE SMOOTH",
"60 800 LINE",
"60 0 LINE"
);
},
{
closed = 1;
nodes = (
"80 780 LINE",
"140 780 LINE SMOOTH",
"185 780 OFFCURVE",
"204 759 OFFCURVE",
"206 707 CURVE SMOOTH",
"209 619 OFFCURVE",
"209 548 OFFCURVE",
"206 460 CURVE SMOOTH",
"204 408 OFFCURVE",
"185 387 OFFCURVE",
"139 387 CURVE SMOOTH",
"80 387 LINE"
);
}
);
width = 289;
},
{
anchors = (
{
name = bottom;
position = "{181, 0}";
},
{
name = top;
position = "{181, 800}";
}
);
layerId = "77772675-63BC-4C39-8CE0-5446587E214D";
paths = (
{
closed = 1;
nodes = (
"126 0 LINE",
"126 348 LINE",
"188 348 LINE SMOOTH",
"237 348 OFFCURVE",
"252 332 OFFCURVE",
"254 282 CURVE SMOOTH",
"256 192 OFFCURVE",
"256 108 OFFCURVE",
"255 0 CURVE",
"317 0 LINE",
"318 106 OFFCURVE",
"316 188 OFFCURVE",
"315 278 CURVE SMOOTH",
"314 335 OFFCURVE",
"292 364 OFFCURVE",
"243 372 CURVE",
"243 380 LINE",
"291 389 OFFCURVE",
"311 418 OFFCURVE",
"314 474 CURVE SMOOTH",
"316 537 OFFCURVE",
"316 598 OFFCURVE",
"314 687 CURVE SMOOTH",
"311 767 OFFCURVE",
"273 800 OFFCURVE",
"178 800 CURVE SMOOTH",
"64 800 LINE",
"64 0 LINE"
);
},
{
closed = 1;
nodes = (
"126 742 LINE",
"178 742 LINE SMOOTH",
"233 742 OFFCURVE",
"250 729 OFFCURVE",
"252 689 CURVE SMOOTH",
"255 611 OFFCURVE",
"255 547 OFFCURVE",
"252 469 CURVE SMOOTH",
"250 420 OFFCURVE",
"234 405 OFFCURVE",
"185 405 CURVE SMOOTH",
"126 405 LINE"
);
}
);
width = 380.7925;
},
{
anchors = (
{
name = bottom;
position = "{164, 0}";
},
{
name = top;
position = "{159, 800}";
}
);
layerId = "4BC723F9-D357-4E8E-81DA-22F6730CB37E";
paths = (
{
closed = 1;
nodes = (
"102 0 LINE",
"102 355 LINE",
"159 355 LINE SMOOTH",
"204 355 OFFCURVE",
"224 333 OFFCURVE",
"225 282 CURVE SMOOTH",
"228 192 OFFCURVE",
"228 108 OFFCURVE",
"227 0 CURVE",
"273 0 LINE",
"274 69 OFFCURVE",
"272 151 OFFCURVE",
"271 278 CURVE SMOOTH",
"269 330 OFFCURVE",
"253 357 OFFCURVE",
"215 368 CURVE",
"215 384 LINE",
"251 396 OFFCURVE",
"268 424 OFFCURVE",
"270 474 CURVE SMOOTH",
"272 537 OFFCURVE",
"272 598 OFFCURVE",
"270 687 CURVE SMOOTH",
"267 767 OFFCURVE",
"235 800 OFFCURVE",
"158 800 CURVE SMOOTH",
"56 800 LINE",
"56 0 LINE"
);
},
{
closed = 1;
nodes = (
"102 758 LINE",
"158 758 LINE SMOOTH",
"203 758 OFFCURVE",
"222 737 OFFCURVE",
"224 689 CURVE SMOOTH",
"226 611 OFFCURVE",
"226 547 OFFCURVE",
"224 469 CURVE SMOOTH",
"222 419 OFFCURVE",
"203 397 OFFCURVE",
"157 397 CURVE SMOOTH",
"102 397 LINE"
);
}
);
width = 328.6425;
}
);
leftKerningGroup = H;
rightKerningGroup = R;
},
{
glyphname = a;
lastChange = "2019-08-10 15:47:35 +0000";
layers = (
{
anchors = (
{
name = bottom;
position = "{175, 0}";
},
{
name = ogonek;
position = "{247, 2}";
},
{
name = top;
position = "{163, 600}";
}
);
background = {
paths = (
{
closed = 1;
nodes = (
"263 0 LINE",
"265 43 OFFCURVE",
"264 467 OFFCURVE",
"263 514 CURVE SMOOTH",
"261 579 OFFCURVE",
"229 605 OFFCURVE",
"153 605 CURVE SMOOTH",
"71 605 OFFCURVE",
"47 574 OFFCURVE",
"45 514 CURVE SMOOTH",
"44 487 OFFCURVE",
"46 418 OFFCURVE",
"46 410 CURVE",
"85 410 LINE",
"85 419 OFFCURVE",
"83 487 OFFCURVE",
"85 517 CURVE SMOOTH",
"87 548 OFFCURVE",
"96 568 OFFCURVE",
"152 568 CURVE SMOOTH",
"200 568 OFFCURVE",
"222 553 OFFCURVE",
"223 517 CURVE SMOOTH",
"225 393 OFFCURVE",
"226 182 OFFCURVE",
"223 0 CURVE"
);
},
{
closed = 1;
nodes = (
"183 -5 OFFCURVE",
"200 16 OFFCURVE",
"211 47 CURVE",
"230 47 LINE",
"230 114 LINE",
"225 114 LINE",
"210 59 OFFCURVE",
"191 33 OFFCURVE",
"142 33 CURVE SMOOTH",
"103 33 OFFCURVE",
"81 54 OFFCURVE",
"75 93 CURVE SMOOTH",
"72 112 OFFCURVE",
"71 133 OFFCURVE",
"74 157 CURVE SMOOTH",
"81 214 OFFCURVE",
"104 254 OFFCURVE",
"140 284 CURVE SMOOTH",
"178 316 OFFCURVE",
"228 334 OFFCURVE",
"235 336 CURVE",
"235 377 LINE",
"209 364 OFFCURVE",
"180 353 OFFCURVE",
"142 326 CURVE SMOOTH",
"53 263 OFFCURVE",
"40 201 OFFCURVE",
"36 166 CURVE SMOOTH",
"33 137 OFFCURVE",
"34 111 OFFCURVE",
"36 93 CURVE SMOOTH",
"42 36 OFFCURVE",
"79 -5 OFFCURVE",
"140 -5 CURVE SMOOTH"
);
}
);
};
layerId = "3B122060-26E0-4730-9241-82784E6CB359";
paths = (
{
closed = 1;
nodes = (
"190 -5 OFFCURVE",
"211 18 OFFCURVE",
"224 50 CURVE",
"229 50 LINE",
"229 0 LINE",
"269 0 LINE",
"269 499 LINE SMOOTH",
"269 574 OFFCURVE",
"244 606 OFFCURVE",
"164 606 CURVE SMOOTH",
"81 606 OFFCURVE",
"51 573 OFFCURVE",
"48 502 CURVE SMOOTH",
"47 474 OFFCURVE",
"47 443 OFFCURVE",
"49 404 CURVE",
"88 404 LINE",
"87 430 OFFCURVE",
"86 469 OFFCURVE",
"88 509 CURVE SMOOTH",
"90 557 OFFCURVE",
"119 572 OFFCURVE",
"161 572 CURVE SMOOTH",
"212 572 OFFCURVE",
"229 552 OFFCURVE",
"229 504 CURVE SMOOTH",
"229 361 LINE",
"200 348 OFFCURVE",
"160 328 OFFCURVE",
"133 311 CURVE SMOOTH",
"61 267 OFFCURVE",
"43 217 OFFCURVE",
"40 151 CURVE SMOOTH",
"39 130 OFFCURVE",
"40 117 OFFCURVE",
"41 97 CURVE SMOOTH",
"45 32 OFFCURVE",
"79 -5 OFFCURVE",
"142 -5 CURVE SMOOTH"
);
},
{
closed = 1;
nodes = (
"108 28 OFFCURVE",
"84 56 OFFCURVE",
"81 99 CURVE SMOOTH",
"80 112 OFFCURVE",
"80 131 OFFCURVE",
"80 150 CURVE SMOOTH",
"80 197 OFFCURVE",
"92 244 OFFCURVE",
"136 275 CURVE SMOOTH",
"177 304 OFFCURVE",
"202 316 OFFCURVE",
"229 327 CURVE",
"229 92 LINE",
"214 49 OFFCURVE",
"188 28 OFFCURVE",
"146 28 CURVE SMOOTH"
);
}
);
width = 330;
},
{
anchors = (
{
name = bottom;
position = "{237, 0}";
},
{
name = ogonek;
position = "{369, 10}";
},
{
name = top;
position = "{248, 600}";
}
);
background = {
paths = (
{
closed = 1;
nodes = (
"419 0 LINE",
"420 131 OFFCURVE",
"422 333 OFFCURVE",
"417 412 CURVE SMOOTH",
"409 555 OFFCURVE",
"362 610 OFFCURVE",
"211 610 CURVE SMOOTH",
"157 610 OFFCURVE",
"62 603 OFFCURVE",
"46 600 CURVE",
"46 487 LINE",
"84 487 OFFCURVE",
"175 487 OFFCURVE",
"213 487 CURVE SMOOTH",
"252 487 OFFCURVE",
"267 469 OFFCURVE",
"268 437 CURVE SMOOTH",
"273 281 OFFCURVE",
"270 146 OFFCURVE",
"269 0 CURVE"
);
},
{
closed = 1;
nodes = (
"197 -8 OFFCURVE",
"219 11 OFFCURVE",
"250 65 CURVE",
"280 65 LINE",
"280 142 LINE",
"270 142 LINE",
"258 116 OFFCURVE",
"232 99 OFFCURVE",
"205 99 CURVE SMOOTH",
"174 99 OFFCURVE",
"159 116 OFFCURVE",
"159 148 CURVE SMOOTH",
"159 164 OFFCURVE",
"159 221 OFFCURVE",
"159 232 CURVE SMOOTH",
"159 259 OFFCURVE",
"162 282 OFFCURVE",
"200 292 CURVE SMOOTH",
"231 300 OFFCURVE",
"283 301 OFFCURVE",
"295 301 CURVE",
"291 396 LINE",
"246 394 OFFCURVE",
"204 390 OFFCURVE",
"161 382 CURVE SMOOTH",
"46 360 OFFCURVE",
"9 310 OFFCURVE",
"9 210 CURVE SMOOTH",
"9 196 OFFCURVE",
"9 173 OFFCURVE",
"9 159 CURVE SMOOTH",
"9 48 OFFCURVE",
"63 -8 OFFCURVE",
"147 -8 CURVE SMOOTH"
);
}
);
};
layerId = "1DFA7D5B-2E97-4B89-827F-FB43F8066DC1";
paths = (
{
closed = 1;
nodes = (
"225 -8 OFFCURVE",
"252 14 OFFCURVE",
"277 65 CURVE",
"300 65 LINE",
"300 0 LINE",
"449 0 LINE",
"450 412 LINE SMOOTH",
"450 552 OFFCURVE",
"402 610 OFFCURVE",
"247 610 CURVE SMOOTH",
"95 610 OFFCURVE",
"46 557 OFFCURVE",
"41 436 CURVE SMOOTH",
"40 409 OFFCURVE",
"41 377 OFFCURVE",
"42 369 CURVE",
"187 369 LINE",
"186 375 OFFCURVE",
"186 442 OFFCURVE",
"187 453 CURVE SMOOTH",
"189 485 OFFCURVE",
"206 498 OFFCURVE",
"242 498 CURVE SMOOTH",
"283 498 OFFCURVE",
"303 482 OFFCURVE",
"303 446 CURVE SMOOTH",
"303 372 LINE",
"256 361 OFFCURVE",
"225 354 OFFCURVE",
"185 341 CURVE SMOOTH",
"69 302 OFFCURVE",
"28 262 OFFCURVE",
"21 180 CURVE SMOOTH",
"20 170 OFFCURVE",
"20 148 OFFCURVE",
"21 137 CURVE SMOOTH",
"30 30 OFFCURVE",
"72 -8 OFFCURVE",
"166 -8 CURVE SMOOTH"
);
},
{
closed = 1;
nodes = (
"194 99 OFFCURVE",
"175 116 OFFCURVE",
"172 148 CURVE SMOOTH",
"171 162 OFFCURVE",
"171 163 OFFCURVE",
"172 180 CURVE SMOOTH",
"174 210 OFFCURVE",
"181 239 OFFCURVE",
"223 255 CURVE SMOOTH",
"246 264 OFFCURVE",
"275 271 OFFCURVE",
"302 277 CURVE",
"301 140 LINE",
"287 115 OFFCURVE",
"259 99 OFFCURVE",
"229 99 CURVE SMOOTH"
);
}
);
width = 491;
},
{
anchors = (
{
name = bottom;
position = "{225, 0}";
},
{
name = ogonek;
position = "{346, 10}";
},
{
name = top;
position = "{235, 600}";
}
);
background = {
paths = (
{
closed = 1;
nodes = (
"419 0 LINE",
"420 131 OFFCURVE",
"422 333 OFFCURVE",
"417 412 CURVE SMOOTH",
"409 555 OFFCURVE",
"362 610 OFFCURVE",
"211 610 CURVE SMOOTH",
"157 610 OFFCURVE",
"62 603 OFFCURVE",
"46 600 CURVE",
"46 487 LINE",
"84 487 OFFCURVE",
"175 487 OFFCURVE",
"213 487 CURVE SMOOTH",
"252 487 OFFCURVE",
"267 469 OFFCURVE",
"268 437 CURVE SMOOTH",
"273 281 OFFCURVE",
"270 146 OFFCURVE",
"269 0 CURVE"
);
},
{
closed = 1;
nodes = (
"197 -8 OFFCURVE",
"219 11 OFFCURVE",
"250 65 CURVE",
"280 65 LINE",
"280 142 LINE",
"270 142 LINE",
"258 116 OFFCURVE",
"232 99 OFFCURVE",
"205 99 CURVE SMOOTH",
"174 99 OFFCURVE",
"159 116 OFFCURVE",
"159 148 CURVE SMOOTH",
"159 164 OFFCURVE",
"159 221 OFFCURVE",
"159 232 CURVE SMOOTH",
"159 259 OFFCURVE",
"162 282 OFFCURVE",
"200 292 CURVE SMOOTH",
"231 300 OFFCURVE",
"283 301 OFFCURVE",
"295 301 CURVE",
"291 396 LINE",
"246 394 OFFCURVE",
"204 390 OFFCURVE",
"161 382 CURVE SMOOTH",
"46 360 OFFCURVE",
"9 310 OFFCURVE",
"9 210 CURVE SMOOTH",
"9 196 OFFCURVE",
"9 173 OFFCURVE",
"9 159 CURVE SMOOTH",
"9 48 OFFCURVE",
"63 -8 OFFCURVE",
"147 -8 CURVE SMOOTH"
);
}
);
};
layerId = "5013C991-8699-46CB-BB1C-82E334DBD38B";
paths = (
{
closed = 1;
nodes = (
"210 -8 OFFCURVE",
"236 14 OFFCURVE",
"260 65 CURVE",
"279 65 LINE",
"279 0 LINE",
"429 0 LINE",
"430 412 LINE",
"425 552 OFFCURVE",
"385 610 OFFCURVE",
"236 610 CURVE SMOOTH",
"93 610 OFFCURVE",
"45 557 OFFCURVE",
"40 436 CURVE SMOOTH",
"39 414 OFFCURVE",
"40 376 OFFCURVE",
"41 369 CURVE",
"187 369 LINE",
"186 387 OFFCURVE",
"186 439 OFFCURVE",
"187 453 CURVE SMOOTH",
"189 485 OFFCURVE",
"199 498 OFFCURVE",
"232 498 CURVE SMOOTH",
"271 498 OFFCURVE",
"280 480 OFFCURVE",
"281 448 CURVE SMOOTH",
"281 371 LINE",
"244 362 OFFCURVE",
"212 354 OFFCURVE",
"176 341 CURVE SMOOTH",
"68 302 OFFCURVE",
"28 262 OFFCURVE",
"21 180 CURVE SMOOTH",
"20 168 OFFCURVE",
"20 148 OFFCURVE",
"21 136 CURVE SMOOTH",
"30 30 OFFCURVE",
"68 -8 OFFCURVE",
"157 -8 CURVE SMOOTH"
);
},
{
closed = 1;
nodes = (
"189 99 OFFCURVE",
"172 116 OFFCURVE",
"169 148 CURVE SMOOTH",
"168 158 OFFCURVE",
"168 167 OFFCURVE",
"169 180 CURVE SMOOTH",
"171 212 OFFCURVE",
"180 239 OFFCURVE",
"215 255 CURVE SMOOTH",
"233 263 OFFCURVE",
"256 270 OFFCURVE",
"280 275 CURVE",
"280 139 LINE",
"267 115 OFFCURVE",
"246 99 OFFCURVE",
"220 99 CURVE SMOOTH"
);
}
);
width = 471;
},
{
anchors = (
{
name = bottom;
position = "{132, 0}";
},
{
name = ogonek;
position = "{203, 0}";
},
{
name = top;
position = "{132, 600}";
}
);
background = {
paths = (
{
closed = 0;
nodes = (
"28 179 LINE SMOOTH",
"28 259 OFFCURVE",
"48 293 OFFCURVE",
"96 311 CURVE SMOOTH"
);
},
{
closed = 0;
nodes = (
"98 289 LINE SMOOTH",
"54 272 OFFCURVE",
"51 221 OFFCURVE",
"49 179 CURVE SMOOTH"
);
},
{
closed = 0;
nodes = (
"30 85 LINE SMOOTH",
"31 21 OFFCURVE",
"55 -5 OFFCURVE",
"118 -5 CURVE SMOOTH"
);
},
{
closed = 0;
nodes = (
"118 15 LINE SMOOTH",
"70 15 OFFCURVE",
"51 30 OFFCURVE",
"50 85 CURVE SMOOTH"
);
}
);
};
layerId = "3D06B89B-468F-44E0-A3D7-A5BC6911123E";
paths = (
{
closed = 1;
nodes = (
"158 -5 OFFCURVE",
"177 17 OFFCURVE",
"187 47 CURVE",
"193 47 LINE",
"193 0 LINE",
"213 0 LINE",
"213 514 LINE SMOOTH",
"213 578 OFFCURVE",
"192 605 OFFCURVE",
"132 605 CURVE SMOOTH",
"74 605 OFFCURVE",
"47 579 OFFCURVE",
"45 514 CURVE SMOOTH",
"44 485 OFFCURVE",
"45 446 OFFCURVE",
"46 410 CURVE",
"65 410 LINE",
"64 446 OFFCURVE",
"64 485 OFFCURVE",
"65 514 CURVE SMOOTH",
"67 570 OFFCURVE",
"90 585 OFFCURVE",
"130 585 CURVE SMOOTH",
"176 585 OFFCURVE",
"193 565 OFFCURVE",
"193 514 CURVE SMOOTH",
"193 360 LINE",
"164 343 OFFCURVE",
"135 323 OFFCURVE",
"111 305 CURVE SMOOTH",
"55 261 OFFCURVE",
"42 209 OFFCURVE",
"40 145 CURVE SMOOTH",
"39 126 OFFCURVE",
"40 110 OFFCURVE",
"41 90 CURVE SMOOTH",
"44 32 OFFCURVE",
"68 -5 OFFCURVE",
"119 -5 CURVE SMOOTH"
);
},
{
closed = 1;
nodes = (
"86 15 OFFCURVE",
"64 42 OFFCURVE",
"61 90 CURVE SMOOTH",
"60 111 OFFCURVE",
"60 134 OFFCURVE",
"60 145 CURVE SMOOTH",
"62 198 OFFCURVE",
"70 245 OFFCURVE",
"111 280 CURVE SMOOTH",
"148 311 OFFCURVE",
"171 325 OFFCURVE",
"193 337 CURVE",
"193 82 LINE",
"180 37 OFFCURVE",
"157 15 OFFCURVE",
"119 15 CURVE SMOOTH"
);
}
);
width = 274;
},
{
anchors = (
{
name = bottom;
position = "{161, 0}";
},
{
name = ogonek;
position = "{301, 4}";
},
{
name = top;
position = "{172, 600}";
}
);
layerId = "77772675-63BC-4C39-8CE0-5446587E214D";
paths = (
{
closed = 1;
nodes = (
"204 -6 OFFCURVE",
"221 17 OFFCURVE",
"237 54 CURVE",
"246 54 LINE",
"246 0 LINE",
"314 0 LINE",
"314 477 LINE SMOOTH",
"314 569 OFFCURVE",
"286 607 OFFCURVE",
"187 607 CURVE SMOOTH",
"87 607 OFFCURVE",
"50 569 OFFCURVE",
"46 486 CURVE SMOOTH",
"45 458 OFFCURVE",
"46 427 OFFCURVE",
"47 395 CURVE",
"114 395 LINE",
"113 416 OFFCURVE",
"112 462 OFFCURVE",
"114 495 CURVE SMOOTH",
"116 539 OFFCURVE",
"143 554 OFFCURVE",
"184 554 CURVE SMOOTH",
"232 554 OFFCURVE",
"247 535 OFFCURVE",
"247 490 CURVE SMOOTH",
"247 364 LINE",
"214 352 OFFCURVE",
"176 334 OFFCURVE",
"146 319 CURVE SMOOTH",
"63 276 OFFCURVE",
"39 228 OFFCURVE",
"35 158 CURVE SMOOTH",
"34 140 OFFCURVE",
"35 125 OFFCURVE",
"36 107 CURVE SMOOTH",
"41 32 OFFCURVE",
"82 -6 OFFCURVE",
"153 -6 CURVE SMOOTH"
);
},
{
closed = 1;
nodes = (
"130 46 OFFCURVE",
"107 71 OFFCURVE",
"104 111 CURVE SMOOTH",
"103 125 OFFCURVE",
"103 139 OFFCURVE",
"103 158 CURVE SMOOTH",
"104 200 OFFCURVE",
"114 230 OFFCURVE",
"158 257 CURVE SMOOTH",
"194 280 OFFCURVE",
"220 292 OFFCURVE",
"247 301 CURVE",
"246 105 LINE",
"232 66 OFFCURVE",
"206 46 OFFCURVE",
"167 46 CURVE SMOOTH"
);
}
);
width = 370;
},
{
anchors = (
{
name = bottom;
position = "{155, 0}";
},
{
name = ogonek;
position = "{239, 3}";
},
{
name = top;
position = "{158, 600}";
}
);
layerId = "4BC723F9-D357-4E8E-81DA-22F6730CB37E";
paths = (
{
closed = 1;
nodes = (
"171 -6 OFFCURVE",
"192 16 OFFCURVE",
"205 52 CURVE",
"215 52 LINE",
"215 0 LINE",
"267 0 LINE",
"267 489 LINE SMOOTH",
"267 572 OFFCURVE",
"240 606 OFFCURVE",
"158 606 CURVE SMOOTH",
"79 606 OFFCURVE",
"47 574 OFFCURVE",
"44 495 CURVE SMOOTH",
"43 467 OFFCURVE",
"44 429 OFFCURVE",
"45 400 CURVE",
"96 400 LINE",
"95 431 OFFCURVE",
"95 474 OFFCURVE",
"96 499 CURVE SMOOTH",
"98 549 OFFCURVE",
"117 563 OFFCURVE",
"156 563 CURVE SMOOTH",
"200 563 OFFCURVE",
"215 544 OFFCURVE",
"215 498 CURVE SMOOTH",
"215 362 LINE",
"185 348 OFFCURVE",
"154 331 OFFCURVE",
"127 314 CURVE SMOOTH",
"58 271 OFFCURVE",
"39 222 OFFCURVE",
"35 154 CURVE SMOOTH",
"34 137 OFFCURVE",
"35 120 OFFCURVE",
"36 102 CURVE SMOOTH",
"41 32 OFFCURVE",
"68 -6 OFFCURVE",
"129 -6 CURVE SMOOTH"
);
},
{
closed = 1;
nodes = (
"112 36 OFFCURVE",
"91 61 OFFCURVE",
"88 105 CURVE SMOOTH",
"87 123 OFFCURVE",
"87 142 OFFCURVE",
"87 154 CURVE SMOOTH",
"89 202 OFFCURVE",
"98 237 OFFCURVE",
"137 267 CURVE SMOOTH",
"169 292 OFFCURVE",
"192 304 OFFCURVE",
"215 314 CURVE",
"215 97 LINE",
"202 57 OFFCURVE",
"179 36 OFFCURVE",
"144 36 CURVE SMOOTH"
);
}
);
width = 323;
}
);
leftKerningGroup = a;
rightKerningGroup = n;
unicode = 0061;
},
{
glyphname = ae;
lastChange = "2019-08-10 15:54:14 +0000";
layers = (
{
anchors = (
{
name = top;
position = "{248, 600}";
}
);
background = {
paths = (
{
closed = 1;
nodes = (
"158 -5 OFFCURVE",
"177 17 OFFCURVE",
"187 47 CURVE",
"200 47 LINE",
"200 86 LINE",
"195 86 LINE",
"182 38 OFFCURVE",
"158 15 OFFCURVE",
"119 15 CURVE SMOOTH",
"86 15 OFFCURVE",
"64 42 OFFCURVE",
"61 90 CURVE SMOOTH",
"60 111 OFFCURVE",
"60 134 OFFCURVE",
"60 145 CURVE SMOOTH",
"62 198 OFFCURVE",
"70 245 OFFCURVE",
"111 280 CURVE SMOOTH",
"155 317 OFFCURVE",
"179 330 OFFCURVE",
"205 343 CURVE",
"205 367 LINE",
"173 349 OFFCURVE",
"138 326 OFFCURVE",
"111 305 CURVE SMOOTH",
"55 261 OFFCURVE",
"42 209 OFFCURVE",
"40 145 CURVE SMOOTH",
"39 126 OFFCURVE",
"40 110 OFFCURVE",
"41 90 CURVE SMOOTH",
"44 32 OFFCURVE",
"68 -5 OFFCURVE",
"119 -5 CURVE SMOOTH"
);
}
);
};
layerId = "3B122060-26E0-4730-9241-82784E6CB359";
paths = (
{
closed = 1;
nodes = (
"175 -5 OFFCURVE",
"209 16 OFFCURVE",
"222 50 CURVE",
"228 50 LINE",
"240 12 OFFCURVE",
"272 -6 OFFCURVE",
"334 -6 CURVE SMOOTH",
"410 -6 OFFCURVE",
"439 23 OFFCURVE",
"442 98 CURVE SMOOTH",
"443 119 OFFCURVE",
"443 168 OFFCURVE",
"441 197 CURVE",
"401 197 LINE",
"403 158 OFFCURVE",
"403 123 OFFCURVE",
"402 95 CURVE SMOOTH",
"400 43 OFFCURVE",
"381 28 OFFCURVE",
"332 28 CURVE SMOOTH",
"284 28 OFFCURVE",
"261 43 OFFCURVE",
"261 95 CURVE SMOOTH",
"261 163 OFFCURVE",
"261 232 OFFCURVE",
"261 300 CURVE",
"441 300 LINE",
"445 399 OFFCURVE",
"443 480 OFFCURVE",
"442 502 CURVE SMOOTH",
"439 578 OFFCURVE",
"404 606 OFFCURVE",
"334 606 CURVE SMOOTH",
"289 606 OFFCURVE",
"259 596 OFFCURVE",
"242 575 CURVE",
"227 595 OFFCURVE",
"200 606 OFFCURVE",
"156 606 CURVE SMOOTH",
"82 606 OFFCURVE",
"50 575 OFFCURVE",
"48 506 CURVE SMOOTH",
"47 466 OFFCURVE",
"47 443 OFFCURVE",
"48 404 CURVE",
"87 404 LINE",
"85 434 OFFCURVE",
"86 486 OFFCURVE",
"87 505 CURVE SMOOTH",
"89 557 OFFCURVE",
"113 572 OFFCURVE",
"154 572 CURVE SMOOTH",
"206 572 OFFCURVE",
"220 547 OFFCURVE",
"220 504 CURVE SMOOTH",
"220 428 OFFCURVE",
"220 402 OFFCURVE",
"220 332 CURVE",
"188 316 OFFCURVE",
"155 299 OFFCURVE",
"128 281 CURVE SMOOTH",
"73 246 OFFCURVE",
"42 202 OFFCURVE",
"40 151 CURVE SMOOTH",
"39 130 OFFCURVE",
"40 118 OFFCURVE",
"41 96 CURVE SMOOTH",
"45 32 OFFCURVE",
"73 -5 OFFCURVE",
"132 -5 CURVE SMOOTH"
);
},
{
closed = 1;
nodes = (
"107 28 OFFCURVE",
"84 53 OFFCURVE",
"81 99 CURVE SMOOTH",
"79 124 OFFCURVE",
"80 139 OFFCURVE",
"80 150 CURVE SMOOTH",
"81 188 OFFCURVE",
"101 222 OFFCURVE",
"133 246 CURVE SMOOTH",
"170 274 OFFCURVE",
"196 287 OFFCURVE",
"220 297 CURVE",
"220 225 OFFCURVE",
"220 170 OFFCURVE",
"221 122 CURVE SMOOTH",
"222 51 OFFCURVE",
"181 28 OFFCURVE",
"142 28 CURVE SMOOTH"
);
},
{
closed = 1;
nodes = (
"261 390 OFFCURVE",
"261 448 OFFCURVE",
"261 505 CURVE SMOOTH",
"261 553 OFFCURVE",
"284 572 OFFCURVE",
"334 572 CURVE SMOOTH",
"380 572 OFFCURVE",
"399 553 OFFCURVE",
"402 504 CURVE SMOOTH",
"404 473 OFFCURVE",
"404 406 OFFCURVE",
"402 333 CURVE",
"261 333 LINE"
);
}
);
width = 493;
},
{
anchors = (
{
name = top;
position = "{369, 600}";
}
);
background = {
paths = (
{
closed = 1;
nodes = (
"210 -8 OFFCURVE",
"239 14 OFFCURVE",
"263 65 CURVE",
"293 65 LINE",
"293 142 LINE",
"284 142 LINE",
"272 116 OFFCURVE",
"247 99 OFFCURVE",
"220 99 CURVE SMOOTH",
"189 99 OFFCURVE",
"172 116 OFFCURVE",
"169 148 CURVE SMOOTH",
"168 158 OFFCURVE",
"168 167 OFFCURVE",
"169 180 CURVE SMOOTH",
"171 212 OFFCURVE",
"180 239 OFFCURVE",
"215 255 CURVE SMOOTH",
"239 266 OFFCURVE",
"272 274 OFFCURVE",
"305 281 CURVE",
"301 376 LINE",
"256 365 OFFCURVE",
"219 356 OFFCURVE",
"176 341 CURVE SMOOTH",
"68 302 OFFCURVE",
"28 262 OFFCURVE",
"21 180 CURVE SMOOTH",
"20 168 OFFCURVE",
"20 148 OFFCURVE",
"21 136 CURVE SMOOTH",
"30 30 OFFCURVE",
"68 -8 OFFCURVE",
"157 -8 CURVE SMOOTH"
);
}
);
};
layerId = "1DFA7D5B-2E97-4B89-827F-FB43F8066DC1";
paths = (
{
closed = 1;
nodes = (
"221 -8 OFFCURVE",
"277 13 OFFCURVE",
"302 65 CURVE",
"314 65 LINE",
"345 13 OFFCURVE",
"405 -10 OFFCURVE",
"498 -10 CURVE SMOOTH",
"633 -10 OFFCURVE",
"691 41 OFFCURVE",
"697 168 CURVE SMOOTH",
"698 190 OFFCURVE",
"697 226 OFFCURVE",
"696 233 CURVE",
"549 233 LINE",
"550 206 OFFCURVE",
"550 191 OFFCURVE",
"548 151 CURVE SMOOTH",
"547 122 OFFCURVE",
"539 102 OFFCURVE",
"498 102 CURVE SMOOTH",
"459 102 OFFCURVE",
"439 116 OFFCURVE",
"439 152 CURVE SMOOTH",
"439 193 OFFCURVE",
"439 234 OFFCURVE",
"439 275 CURVE",
"696 275 LINE",
"699 331 OFFCURVE",
"698 412 OFFCURVE",
"697 436 CURVE SMOOTH",
"691 560 OFFCURVE",
"633 610 OFFCURVE",
"496 610 CURVE SMOOTH",
"443 610 OFFCURVE",
"401 602 OFFCURVE",
"368 586 CURVE",
"339 602 OFFCURVE",
"298 610 OFFCURVE",
"242 610 CURVE SMOOTH",
"96 610 OFFCURVE",
"45 557 OFFCURVE",
"40 436 CURVE SMOOTH",
"39 418 OFFCURVE",
"40 375 OFFCURVE",
"41 369 CURVE",
"189 369 LINE",
"188 387 OFFCURVE",
"188 432 OFFCURVE",
"189 453 CURVE SMOOTH",
"191 485 OFFCURVE",
"201 498 OFFCURVE",
"238 498 CURVE SMOOTH",
"285 498 OFFCURVE",
"289 473 OFFCURVE",
"289 448 CURVE SMOOTH",
"289 422 OFFCURVE",
"289 397 OFFCURVE",
"289 371 CURVE",
"252 362 OFFCURVE",
"218 354 OFFCURVE",
"180 341 CURVE SMOOTH",
"74 304 OFFCURVE",
"28 262 OFFCURVE",
"21 180 CURVE SMOOTH",
"20 168 OFFCURVE",
"20 151 OFFCURVE",
"21 136 CURVE SMOOTH",
"28 30 OFFCURVE",
"79 -8 OFFCURVE",
"161 -8 CURVE SMOOTH"
);
},
{
closed = 1;
nodes = (
"191 99 OFFCURVE",
"177 116 OFFCURVE",
"171 147 CURVE SMOOTH",
"169 158 OFFCURVE",
"169 168 OFFCURVE",
"170 180 CURVE SMOOTH",
"173 212 OFFCURVE",
"183 239 OFFCURVE",
"219 255 CURVE SMOOTH",
"239 263 OFFCURVE",
"266 270 OFFCURVE",
"289 275 CURVE",
"290 248 OFFCURVE",
"290 221 OFFCURVE",
"290 201 CURVE SMOOTH",
"290 110 OFFCURVE",
"252 99 OFFCURVE",
"225 99 CURVE SMOOTH"
);
},
{
closed = 1;
nodes = (
"439 403 OFFCURVE",
"439 428 OFFCURVE",
"439 453 CURVE SMOOTH",
"439 485 OFFCURVE",
"458 498 OFFCURVE",
"496 498 CURVE SMOOTH",
"532 498 OFFCURVE",
"546 485 OFFCURVE",
"548 454 CURVE SMOOTH",
"548 445 OFFCURVE",
"549 413 OFFCURVE",
"549 378 CURVE",
"439 378 LINE"
);
}
);
width = 728;
},
{
anchors = (
{
name = top;
position = "{359, 600}";
}
);
background = {
paths = (
{
closed = 1;
nodes = (
"210 -8 OFFCURVE",
"239 14 OFFCURVE",
"263 65 CURVE",
"293 65 LINE",
"293 142 LINE",
"284 142 LINE",
"272 116 OFFCURVE",
"247 99 OFFCURVE",
"220 99 CURVE SMOOTH",
"189 99 OFFCURVE",
"172 116 OFFCURVE",
"169 148 CURVE SMOOTH",
"168 158 OFFCURVE",
"168 167 OFFCURVE",
"169 180 CURVE SMOOTH",
"171 212 OFFCURVE",
"180 239 OFFCURVE",
"215 255 CURVE SMOOTH",
"239 266 OFFCURVE",
"272 274 OFFCURVE",
"305 281 CURVE",
"301 376 LINE",
"256 365 OFFCURVE",
"219 356 OFFCURVE",
"176 341 CURVE SMOOTH",
"68 302 OFFCURVE",
"28 262 OFFCURVE",
"21 180 CURVE SMOOTH",
"20 168 OFFCURVE",
"20 148 OFFCURVE",
"21 136 CURVE SMOOTH",
"30 30 OFFCURVE",
"68 -8 OFFCURVE",
"157 -8 CURVE SMOOTH"
);
}
);
};
layerId = "5013C991-8699-46CB-BB1C-82E334DBD38B";
paths = (
{
closed = 1;
nodes = (
"216 -8 OFFCURVE",
"268 13 OFFCURVE",
"293 65 CURVE",
"304 65 LINE",
"334 13 OFFCURVE",
"392 -10 OFFCURVE",
"483 -10 CURVE SMOOTH",
"615 -10 OFFCURVE",
"671 41 OFFCURVE",
"677 168 CURVE SMOOTH",
"678 190 OFFCURVE",
"677 226 OFFCURVE",
"676 233 CURVE",
"530 233 LINE",
"531 198 OFFCURVE",
"531 168 OFFCURVE",
"530 152 CURVE SMOOTH",
"528 116 OFFCURVE",
"515 102 OFFCURVE",
"483 102 CURVE SMOOTH",
"447 102 OFFCURVE",
"428 116 OFFCURVE",
"428 152 CURVE SMOOTH",
"428 193 OFFCURVE",
"428 234 OFFCURVE",
"428 275 CURVE",
"676 275 LINE",
"679 331 OFFCURVE",
"678 414 OFFCURVE",
"677 436 CURVE SMOOTH",
"671 560 OFFCURVE",
"615 610 OFFCURVE",
"481 610 CURVE SMOOTH",
"430 610 OFFCURVE",
"389 603 OFFCURVE",
"358 586 CURVE",
"329 603 OFFCURVE",
"290 610 OFFCURVE",
"236 610 CURVE SMOOTH",
"93 610 OFFCURVE",
"45 557 OFFCURVE",
"40 436 CURVE SMOOTH",
"39 414 OFFCURVE",
"40 376 OFFCURVE",
"41 369 CURVE",
"187 369 LINE",
"186 387 OFFCURVE",
"186 439 OFFCURVE",
"187 453 CURVE SMOOTH",
"189 485 OFFCURVE",
"199 498 OFFCURVE",
"232 498 CURVE SMOOTH",
"271 498 OFFCURVE",
"280 480 OFFCURVE",
"280 448 CURVE SMOOTH",
"280 422 OFFCURVE",
"280 397 OFFCURVE",
"280 371 CURVE",
"244 362 OFFCURVE",
"212 354 OFFCURVE",
"176 341 CURVE SMOOTH",
"72 304 OFFCURVE",
"28 262 OFFCURVE",
"21 180 CURVE SMOOTH",
"20 168 OFFCURVE",
"20 148 OFFCURVE",
"21 136 CURVE SMOOTH",
"28 30 OFFCURVE",
"78 -8 OFFCURVE",
"157 -8 CURVE SMOOTH"
);
},
{
closed = 1;
nodes = (
"189 99 OFFCURVE",
"172 116 OFFCURVE",
"169 148 CURVE SMOOTH",
"168 158 OFFCURVE",
"168 168 OFFCURVE",
"169 180 CURVE SMOOTH",
"172 215 OFFCURVE",
"180 239 OFFCURVE",
"215 255 CURVE SMOOTH",
"234 264 OFFCURVE",
"259 270 OFFCURVE",
"280 275 CURVE",
"280 248 OFFCURVE",
"281 222 OFFCURVE",
"281 201 CURVE SMOOTH",
"279 109 OFFCURVE",
"245 99 OFFCURVE",
"220 99 CURVE SMOOTH"
);
},
{
closed = 1;
nodes = (
"428 403 OFFCURVE",
"428 428 OFFCURVE",
"428 453 CURVE SMOOTH",
"428 485 OFFCURVE",
"446 498 OFFCURVE",
"481 498 CURVE SMOOTH",
"514 498 OFFCURVE",
"530 485 OFFCURVE",
"530 453 CURVE SMOOTH",
"530 437 OFFCURVE",
"531 404 OFFCURVE",
"531 378 CURVE",
"428 378 LINE"
);
}
);
width = 708;
},
{
anchors = (
{
name = top;
position = "{212, 600}";
}
);
background = {
paths = (
{
closed = 1;
nodes = (
"158 -5 OFFCURVE",
"177 17 OFFCURVE",
"187 47 CURVE",
"200 47 LINE",
"200 86 LINE",
"195 86 LINE",
"182 38 OFFCURVE",
"158 15 OFFCURVE",
"119 15 CURVE SMOOTH",
"86 15 OFFCURVE",
"64 42 OFFCURVE",
"61 90 CURVE SMOOTH",
"60 111 OFFCURVE",
"60 134 OFFCURVE",
"60 145 CURVE SMOOTH",
"62 198 OFFCURVE",
"70 245 OFFCURVE",
"111 280 CURVE SMOOTH",
"155 317 OFFCURVE",
"179 330 OFFCURVE",
"205 343 CURVE",
"205 367 LINE",
"173 349 OFFCURVE",
"138 326 OFFCURVE",
"111 305 CURVE SMOOTH",
"55 261 OFFCURVE",
"42 209 OFFCURVE",
"40 145 CURVE SMOOTH",
"39 126 OFFCURVE",
"40 110 OFFCURVE",
"41 90 CURVE SMOOTH",
"44 32 OFFCURVE",
"68 -5 OFFCURVE",
"119 -5 CURVE SMOOTH"
);
}
);
};
layerId = "3D06B89B-468F-44E0-A3D7-A5BC6911123E";
paths = (
{
closed = 1;
nodes = (
"158 -5 OFFCURVE",
"184 17 OFFCURVE",
"194 47 CURVE",
"199 47 LINE",
"209 10 OFFCURVE",
"236 -5 OFFCURVE",
"286 -5 CURVE SMOOTH",
"350 -5 OFFCURVE",
"369 21 OFFCURVE",
"372 85 CURVE SMOOTH",
"373 114 OFFCURVE",
"373 148 OFFCURVE",
"371 191 CURVE",
"351 191 LINE",
"353 148 OFFCURVE",
"353 115 OFFCURVE",
"352 85 CURVE SMOOTH",
"350 30 OFFCURVE",
"332 15 OFFCURVE",
"284 15 CURVE SMOOTH",
"236 15 OFFCURVE",
"215 30 OFFCURVE",
"215 85 CURVE SMOOTH",
"214 173 OFFCURVE",
"214 239 OFFCURVE",
"214 305 CURVE",
"371 305 LINE",
"375 415 OFFCURVE",
"373 478 OFFCURVE",
"372 514 CURVE SMOOTH",
"369 579 OFFCURVE",
"345 605 OFFCURVE",
"286 605 CURVE SMOOTH",
"245 605 OFFCURVE",
"219 594 OFFCURVE",
"206 569 CURVE",
"194 594 OFFCURVE",
"171 605 OFFCURVE",
"132 605 CURVE SMOOTH",
"74 605 OFFCURVE",
"47 579 OFFCURVE",
"45 514 CURVE SMOOTH",
"44 485 OFFCURVE",
"45 446 OFFCURVE",
"46 410 CURVE",
"65 410 LINE",
"64 446 OFFCURVE",
"64 485 OFFCURVE",
"65 514 CURVE SMOOTH",
"67 570 OFFCURVE",
"90 585 OFFCURVE",
"130 585 CURVE SMOOTH",
"176 585 OFFCURVE",
"195 565 OFFCURVE",
"195 514 CURVE SMOOTH",
"195 451 OFFCURVE",
"194 388 OFFCURVE",
"194 325 CURVE",
"165 308 OFFCURVE",
"135 289 OFFCURVE",
"111 270 CURVE SMOOTH",
"67 235 OFFCURVE",
"41 191 OFFCURVE",
"40 145 CURVE SMOOTH",
"39 126 OFFCURVE",
"40 110 OFFCURVE",
"41 90 CURVE SMOOTH",
"44 32 OFFCURVE",
"68 -5 OFFCURVE",
"119 -5 CURVE SMOOTH"
);
},
{
closed = 1;
nodes = (
"86 15 OFFCURVE",
"64 42 OFFCURVE",
"61 90 CURVE SMOOTH",
"60 111 OFFCURVE",
"60 134 OFFCURVE",
"60 145 CURVE SMOOTH",
"61 183 OFFCURVE",
"80 218 OFFCURVE",
"111 245 CURVE SMOOTH",
"149 277 OFFCURVE",
"172 290 OFFCURVE",
"194 302 CURVE",
"194 236 OFFCURVE",
"196 171 OFFCURVE",
"195 106 CURVE SMOOTH",
"194 50 OFFCURVE",
"157 15 OFFCURVE",
"119 15 CURVE SMOOTH"
);
},
{
closed = 1;
nodes = (
"214 382 OFFCURVE",
"215 440 OFFCURVE",
"215 514 CURVE SMOOTH",
"215 565 OFFCURVE",
"237 585 OFFCURVE",
"286 585 CURVE SMOOTH",
"331 585 OFFCURVE",
"349 565 OFFCURVE",
"352 514 CURVE SMOOTH",
"354 476 OFFCURVE",
"354 413 OFFCURVE",
"352 325 CURVE",
"214 325 LINE"
);
}
);
width = 423;
},
{
anchors = (
{
name = top;
position = "{279, 600}";
}
);
layerId = "77772675-63BC-4C39-8CE0-5446587E214D";
paths = (
{
closed = 1;
nodes = (
"191 -6 OFFCURVE",
"227 15 OFFCURVE",
"243 54 CURVE",
"250 54 LINE",
"267 12 OFFCURVE",
"306 -7 OFFCURVE",
"376 -7 CURVE SMOOTH",
"467 -7 OFFCURVE",
"503 28 OFFCURVE",
"507 116 CURVE SMOOTH",
"508 137 OFFCURVE",
"508 183 OFFCURVE",
"506 206 CURVE",
"439 206 LINE",
"442 143 OFFCURVE",
"440 127 OFFCURVE",
"440 109 CURVE SMOOTH",
"438 63 OFFCURVE",
"422 47 OFFCURVE",
"375 47 CURVE SMOOTH",
"329 47 OFFCURVE",
"307 61 OFFCURVE",
"307 109 CURVE SMOOTH",
"307 171 OFFCURVE",
"307 232 OFFCURVE",
"307 294 CURVE",
"506 294 LINE",
"510 332 OFFCURVE",
"507 466 OFFCURVE",
"507 486 CURVE SMOOTH",
"504 573 OFFCURVE",
"462 607 OFFCURVE",
"373 607 CURVE SMOOTH",
"328 607 OFFCURVE",
"296 598 OFFCURVE",
"274 580 CURVE",
"255 596 OFFCURVE",
"225 607 OFFCURVE",
"176 607 CURVE SMOOTH",
"88 607 OFFCURVE",
"50 571 OFFCURVE",
"47 489 CURVE SMOOTH",
"46 468 OFFCURVE",
"46 422 OFFCURVE",
"47 395 CURVE",
"114 395 LINE",
"112 422 OFFCURVE",
"113 473 OFFCURVE",
"114 492 CURVE SMOOTH",
"117 536 OFFCURVE",
"132 554 OFFCURVE",
"175 554 CURVE SMOOTH",
"238 554 OFFCURVE",
"238 514 OFFCURVE",
"238 490 CURVE SMOOTH",
"238 441 OFFCURVE",
"238 392 OFFCURVE",
"238 343 CURVE",
"205 330 OFFCURVE",
"172 315 OFFCURVE",
"142 299 CURVE SMOOTH",
"89 270 OFFCURVE",
"40 230 OFFCURVE",
"36 158 CURVE SMOOTH",
"35 136 OFFCURVE",
"35 129 OFFCURVE",
"37 106 CURVE SMOOTH",
"44 29 OFFCURVE",
"80 -6 OFFCURVE",
"143 -6 CURVE SMOOTH"
);
},
{
closed = 1;
nodes = (
"122 46 OFFCURVE",
"109 74 OFFCURVE",
"105 111 CURVE SMOOTH",
"103 130 OFFCURVE",
"103 137 OFFCURVE",
"104 158 CURVE SMOOTH",
"106 198 OFFCURVE",
"120 220 OFFCURVE",
"156 245 CURVE SMOOTH",
"183 264 OFFCURVE",
"214 279 OFFCURVE",
"238 288 CURVE",
"238 232 OFFCURVE",
"239 178 OFFCURVE",
"239 145 CURVE SMOOTH",
"237 66 OFFCURVE",
"200 46 OFFCURVE",
"164 46 CURVE SMOOTH"
);
},
{
closed = 1;
nodes = (
"307 396 OFFCURVE",
"307 444 OFFCURVE",
"307 492 CURVE SMOOTH",
"307 536 OFFCURVE",
"329 554 OFFCURVE",
"373 554 CURVE SMOOTH",
"419 554 OFFCURVE",
"438 535 OFFCURVE",
"440 492 CURVE SMOOTH",
"441 467 OFFCURVE",
"441 406 OFFCURVE",
"440 348 CURVE",
"307 348 LINE"
);
}
);
width = 553;
},
{
anchors = (
{
name = top;
position = "{249, 600}";
}
);
layerId = "4BC723F9-D357-4E8E-81DA-22F6730CB37E";
paths = (
{
closed = 1;
nodes = (
"177 -6 OFFCURVE",
"205 16 OFFCURVE",
"219 52 CURVE",
"225 52 LINE",
"239 11 OFFCURVE",
"274 -6 OFFCURVE",
"335 -6 CURVE SMOOTH",
"416 -6 OFFCURVE",
"445 26 OFFCURVE",
"448 106 CURVE SMOOTH",
"449 133 OFFCURVE",
"449 168 OFFCURVE",
"447 202 CURVE",
"396 202 LINE",
"398 161 OFFCURVE",
"398 128 OFFCURVE",
"397 102 CURVE SMOOTH",
"395 52 OFFCURVE",
"378 37 OFFCURVE",
"334 37 CURVE SMOOTH",
"289 37 OFFCURVE",
"268 52 OFFCURVE",
"268 102 CURVE SMOOTH",
"268 167 OFFCURVE",
"268 233 OFFCURVE",
"268 298 CURVE",
"447 298 LINE",
"451 394 OFFCURVE",
"449 462 OFFCURVE",
"448 495 CURVE SMOOTH",
"445 574 OFFCURVE",
"413 606 OFFCURVE",
"335 606 CURVE SMOOTH",
"293 606 OFFCURVE",
"263 598 OFFCURVE",
"244 578 CURVE",
"227 597 OFFCURVE",
"199 606 OFFCURVE",
"158 606 CURVE SMOOTH",
"79 606 OFFCURVE",
"47 574 OFFCURVE",
"44 495 CURVE SMOOTH",
"43 467 OFFCURVE",
"44 429 OFFCURVE",
"45 400 CURVE",
"96 400 LINE",
"95 431 OFFCURVE",
"95 474 OFFCURVE",
"96 499 CURVE SMOOTH",
"98 549 OFFCURVE",
"117 563 OFFCURVE",
"156 563 CURVE SMOOTH",
"200 563 OFFCURVE",
"216 544 OFFCURVE",
"216 498 CURVE SMOOTH",
"216 445 OFFCURVE",
"216 392 OFFCURVE",
"216 339 CURVE",
"185 324 OFFCURVE",
"154 305 OFFCURVE",
"127 288 CURVE SMOOTH",
"68 252 OFFCURVE",
"38 209 OFFCURVE",
"35 154 CURVE SMOOTH",
"34 137 OFFCURVE",
"35 120 OFFCURVE",
"36 102 CURVE SMOOTH",
"40 32 OFFCURVE",
"75 -6 OFFCURVE",
"133 -6 CURVE SMOOTH"
);
},
{
closed = 1;
nodes = (
"112 36 OFFCURVE",
"91 61 OFFCURVE",
"88 105 CURVE SMOOTH",
"87 123 OFFCURVE",
"87 143 OFFCURVE",
"87 154 CURVE SMOOTH",
"89 191 OFFCURVE",
"105 213 OFFCURVE",
"137 238 CURVE SMOOTH",
"170 263 OFFCURVE",
"195 277 OFFCURVE",
"216 288 CURVE",
"216 233 OFFCURVE",
"217 180 OFFCURVE",
"217 130 CURVE SMOOTH",
"217 57 OFFCURVE",
"179 36 OFFCURVE",
"144 36 CURVE SMOOTH"
);
},
{
closed = 1;
nodes = (
"268 394 OFFCURVE",
"268 446 OFFCURVE",
"268 499 CURVE SMOOTH",
"268 545 OFFCURVE",
"289 563 OFFCURVE",
"335 563 CURVE SMOOTH",
"377 563 OFFCURVE",
"394 545 OFFCURVE",
"397 499 CURVE SMOOTH",
"398 471 OFFCURVE",
"398 406 OFFCURVE",
"397 341 CURVE",
"268 341 LINE"
);
}
);
width = 484;
}
);
leftKerningGroup = a;
leftMetricsKey = a;
rightKerningGroup = e;
rightMetricsKey = e;
unicode = 00E6;
},
